<?xml version="1.0" encoding="UTF-8"?>
<!-- Created with Inkscape (http://www.inkscape.org/) -->
<svg id="svg1872" width="48px" height="48px" xmlns="http://www.w3.org/2000/svg" xmlns:cc="http://web.resource.org/cc/" xmlns:dc="http://purl.org/dc/elements/1.1/" xmlns:rdf="http://www.w3.org/1999/02/22-rdf-syntax-ns#">
 <metadata id="metadata1877">
  <rdf:RDF>
   <cc:Work rdf:about="">
    <dc:format>image/svg+xml</dc:format>
    <dc:type rdf:resource="http://purl.org/dc/dcmitype/StillImage"/>
    <dc:title>Volume high</dc:title>
    <dc:creator>
     <cc:Agent>
      <dc:title>Luca Ferretti &lt;elle.uca@libero.it&gt;</dc:title>
     </cc:Agent>
    </dc:creator>
    <dc:subject>
     <rdf:Bag>
      <rdf:li>audio volume high</rdf:li>
     </rdf:Bag>
    </dc:subject>
    <dc:description>A speaker with ))) in front</dc:description>
    <cc:license rdf:resource="http://creativecommons.org/licenses/LGPL/2.1/"/>
   </cc:Work>
   <cc:License rdf:about="http://creativecommons.org/licenses/LGPL/2.1/">
    <cc:permits rdf:resource="http://web.resource.org/cc/Reproduction"/>
    <cc:permits rdf:resource="http://web.resource.org/cc/Distribution"/>
    <cc:requires rdf:resource="http://web.resource.org/cc/Notice"/>
    <cc:permits rdf:resource="http://web.resource.org/cc/DerivativeWorks"/>
    <cc:requires rdf:resource="http://web.resource.org/cc/ShareAlike"/>
    <cc:requires rdf:resource="http://web.resource.org/cc/SourceCode"/>
   </cc:License>
  </rdf:RDF>
 </metadata>
 <g id="layer1">
  <rect id="rect6346" width="48" height="48" rx="0" ry="0" style="fill:none"/>
  <path id="path9896" d="m33.75 39c11-7 11-23 0-30" style="fill:none;stroke-linecap:round;stroke-linejoin:round;stroke-width:12;stroke:#fff"/>
  <path id="path3659" d="m4.0217 16.109-0.021739 15.891h10l10 10 0.021739-35.891-10 10h-10z" style="fill-rule:evenodd;fill:#fff;stroke-linecap:round;stroke-linejoin:round;stroke-width:8;stroke:#fff"/>
  <path id="path8122" d="m31 16c5 4 5 12 0 16" style="fill:none;stroke-linecap:round;stroke-linejoin:round;stroke-width:12;stroke:#fff"/>
  <path id="path1880" d="m4.0217 16.109-0.021739 15.891h10l10 10 0.021739-35.891-10 10h-10z" style="fill-rule:evenodd"/>
  <path id="path7235" d="m31 16c5 4 5 12 0 16" style="fill:none;stroke-linecap:round;stroke-linejoin:round;stroke-width:4;stroke:#000"/>
  <path id="path9009" d="m33.75 39c11-7 11-23 0-30" style="fill:none;stroke-linecap:round;stroke-linejoin:round;stroke-width:4;stroke:#000"/>
  <path id="path10785" d="m27 20c2 3 2 5 0 8" style="fill:none;stroke-linecap:round;stroke-linejoin:round;stroke-width:4;stroke:#000"/>
 </g>
</svg>
