<?xml version="1.0" encoding="UTF-8"?>
<!-- Generator: Adobe Illustrator 9.0, SVG Export Plug-In  -->
<svg id="svg2" width="48" height="48" version="1.0" viewBox="0 0 48 48" xml:space="preserve" xmlns="http://www.w3.org/2000/svg" xmlns:cc="http://creativecommons.org/ns#" xmlns:dc="http://purl.org/dc/elements/1.1/" xmlns:rdf="http://www.w3.org/1999/02/22-rdf-syntax-ns#"><metadata id="metadata37"><rdf:RDF><cc:Work rdf:about=""><dc:format>image/svg+xml</dc:format><dc:type rdf:resource="http://purl.org/dc/dcmitype/StillImage"/><dc:title>Dialog Information</dc:title><dc:date>November 2008</dc:date><dc:creator><cc:Agent><dc:title>Luca Ferretti &lt;elle.uca@libero.it&gt;</dc:title></cc:Agent></dc:creator><dc:subject><rdf:Bag><rdf:li>dialog</rdf:li><rdf:li>alert</rdf:li><rdf:li>notification</rdf:li><rdf:li>information</rdf:li></rdf:Bag></dc:subject><dc:coverage>Icon to show while providing info to user</dc:coverage><dc:description>A light bulb</dc:description><dc:contributor><cc:Agent><dc:title>Based on Jakub Steiner's work</dc:title></cc:Agent></dc:contributor></cc:Work></rdf:RDF></metadata>
	
	
<g id="layer1"><rect id="rect2415" width="48" height="48" style="fill:none"/><g id="g3215" transform="translate(0,2)" style="fill:none;stroke-width:10;stroke:#fff"><path id="path3217" d="m20 33 8-1" style="fill:none;stroke-linecap:round;stroke-width:10;stroke:#fff"/><path id="path3219" d="m20 36 8-1" style="fill:none;stroke-linecap:round;stroke-width:10;stroke:#fff"/><path id="path3221" d="m20 39 8-1" style="fill:none;stroke-linecap:round;stroke-width:10;stroke:#fff"/><path id="path3223" d="m24 36v4" style="fill:none;stroke-linecap:round;stroke-width:10;stroke:#fff"/></g><path id="path3213" transform="matrix(1.0797 0 0 1.0803 -1.8608 -.50497)" d="m36 18.5a12.5 12.5 0 1 1-25 0 12.5 12.5 0 1 1 25 0z" style="fill:none;stroke-linecap:round;stroke-linejoin:round;stroke-width:11.112;stroke:#fff"/><path id="path3189" transform="matrix(1.0797 0 0 1.0803 -1.8608 -.50497)" d="m36 18.5a12.5 12.5 0 1 1-25 0 12.5 12.5 0 1 1 25 0z" style="fill:#fff;stroke-linecap:round;stroke-linejoin:round;stroke-width:3.7038;stroke:#000"/><path id="path3193" d="m23 27-5-9c4 3 7 4 10 1" style="fill:none;stroke-linecap:round;stroke-linejoin:round;stroke-width:2;stroke:#000"/><g id="g3207" transform="translate(0,2)"><path id="path3195" d="m20 33 8-1" style="fill:none;stroke-linecap:round;stroke-width:4;stroke:#000"/><path id="path3197" d="m20 36 8-1" style="fill:none;stroke-linecap:round;stroke-width:4;stroke:#000"/><path id="path3199" d="m20 39 8-1" style="fill:none;stroke-linecap:round;stroke-width:4;stroke:#000"/><path id="path3203" d="m24 36v4" style="fill:none;stroke-linecap:round;stroke-width:6;stroke:#000"/></g></g></svg>
