<?xml version="1.0" encoding="UTF-8"?>
<!-- Generator: Adobe Illustrator 9.0, SVG Export Plug-In  -->
<svg id="svg2" width="48" height="48" version="1.0" viewBox="0 0 48 48" xml:space="preserve" xmlns="http://www.w3.org/2000/svg" xmlns:cc="http://creativecommons.org/ns#" xmlns:dc="http://purl.org/dc/elements/1.1/" xmlns:rdf="http://www.w3.org/1999/02/22-rdf-syntax-ns#"><metadata id="metadata21"><rdf:RDF><cc:Work rdf:about=""><dc:format>image/svg+xml</dc:format><dc:type rdf:resource="http://purl.org/dc/dcmitype/StillImage"/></cc:Work></rdf:RDF></metadata>
	<g id="Layer_x0020_4" style="stroke:#000">
		<g id="g5">
			<g id="g7">
				<path id="path9" d="m19.2 30.3-0.1-1.4c-0.1-2.7 0.7-5.5 3.1-8.3 1.7-2 3.1-3.8 3.1-5.6s-1.2-3.1-3.8-3.1c-1.8 0-3.9 0.6-5.3 1.5l-1.8-5.7c1.9-1.1 5.1-2.2 8.9-2.2 7 0 10.2 3.9 10.2 8.2 0 4.1-2.6 6.7-4.6 9-1.9 2.1-2.8 4.2-2.7 6.6v1h-7zm3.3 12.2c-2.8 0-4.7-2.1-4.7-4.8 0-2.9 2-4.8 4.7-4.8 2.9 0 4.7 2 4.8 4.8 0 2.8-1.9 4.8-4.7 4.8h-0.1z" style="stroke-linejoin:round;stroke-width:7.0909;stroke:#fff"/>
			</g>
			<g id="g11">
				<path id="path13" d="m19.2 30.3-0.1-1.4c-0.1-2.7 0.7-5.5 3.1-8.3 1.7-2 3.1-3.8 3.1-5.6s-1.2-3.1-3.8-3.1c-1.8 0-3.9 0.6-5.3 1.5l-1.8-5.7c1.9-1.1 5.1-2.2 8.9-2.2 7 0 10.2 3.9 10.2 8.2 0 4.1-2.6 6.7-4.6 9-1.9 2.1-2.8 4.2-2.7 6.6v1h-7zm3.3 12.2c-2.8 0-4.7-2.1-4.7-4.8 0-2.9 2-4.8 4.7-4.8 2.9 0 4.7 2 4.8 4.8 0 2.8-1.9 4.8-4.7 4.8h-0.1z" style="stroke:none"/>
			</g>
		</g>
	</g>
	<g id="crop_x0020_marks" style="stroke:#000">
		<path id="path16" d="m48 48h-48v-48h48v48z" style="fill:none;stroke:none"/>
	</g>
</svg>
