<?xml version="1.0" encoding="UTF-8"?>
<!-- Generator: Adobe Illustrator 9.0, SVG Export Plug-In  -->
<svg id="svg23" width="48" height="48" version="1.0" viewBox="0 0 48 48" xml:space="preserve" xmlns="http://www.w3.org/2000/svg" xmlns:cc="http://creativecommons.org/ns#" xmlns:dc="http://purl.org/dc/elements/1.1/" xmlns:rdf="http://www.w3.org/1999/02/22-rdf-syntax-ns#"><metadata id="metadata40"><rdf:RDF><cc:Work rdf:about=""><dc:format>image/svg+xml</dc:format><dc:type rdf:resource="http://purl.org/dc/dcmitype/StillImage"/></cc:Work></rdf:RDF></metadata>
	<g id="Layer_x0020_4" style="stroke:#000">
		<g id="g26">
			<path id="path28" d="m7.1 10.6c-1.3 0-2.3 1-2.3 2.3l0.1 22.3c0 1.4 0.9 2.3 2.3 2.3h0.1 27.5c1.1 0 2.1-0.6 2.9-1.6 0.6-0.9 2.2-4.5 3.1-6.8 1.6-4.1 2.5-6.7 2.5-7.9 0-0.3 0-1.2-0.7-1.7-0.6-0.5-1.4-0.6-2.2-0.6h-4v-1.7c0-1.3-0.9-2.2-2.2-2.2h-14v-2.2c0-1.2-1-2.2-2.3-2.2h-10.8z" style="fill:none;stroke-width:6.709;stroke:#fff"/>
			<path id="path30" d="m7.1 10.6c-1.3 0-2.3 1-2.3 2.3l0.1 22.3c0 1.4 0.9 2.3 2.3 2.3h0.1 27.5c1.1 0 2.1-0.6 2.9-1.6 0.6-0.9 2.2-4.5 3.1-6.8 1.6-4.1 2.5-6.7 2.5-7.9 0-0.3 0-1.2-0.7-1.7-0.6-0.5-1.4-0.6-2.2-0.6h-4v-1.7c0-1.3-0.9-2.2-2.2-2.2h-14v-2.2c0-1.2-1-2.2-2.3-2.2h-10.8z" style="stroke:none"/>
			<path id="path32" d="m8.9 35.3h25.1c0.6 0 1.2-0.4 1.5-0.9 0.7-1 4.8-10.6 4.8-12.5 0-0.4 0-0.7-1.3-0.7h-24.1c-0.4 0-0.8 0.1-0.9 0.7-0.1 1.5-3.2 11.8-4.3 13.1-0.3 0.4-0.9 0.4-0.9 0.4l0.1-0.1z" style="fill:#fff;stroke:none"/>
		</g>
	</g>
	<g id="crop_x0020_marks" style="stroke:#000">
		<path id="path35" d="m48 48h-48v-48h48v48z" style="fill:none;stroke:none"/>
	</g>
</svg>
