<?xml version="1.0" encoding="UTF-8"?>
<!-- Created with Inkscape (http://www.inkscape.org/) -->
<svg id="svg2" width="48" height="48" version="1.0" xmlns="http://www.w3.org/2000/svg" xmlns:cc="http://creativecommons.org/ns#" xmlns:dc="http://purl.org/dc/elements/1.1/" xmlns:rdf="http://www.w3.org/1999/02/22-rdf-syntax-ns#">
 <metadata id="metadata7">
  <rdf:RDF>
   <cc:Work rdf:about="">
    <dc:format>image/svg+xml</dc:format>
    <dc:type rdf:resource="http://purl.org/dc/dcmitype/StillImage"/>
    <dc:title>Media Playlist Shuffle</dc:title>
    <dc:date>December 2008</dc:date>
    <dc:creator>
     <cc:Agent>
      <dc:title>Luca Ferretti</dc:title>
     </cc:Agent>
    </dc:creator>
    <dc:subject>
     <rdf:Bag>
      <rdf:li>media</rdf:li>
      <rdf:li>playlist</rdf:li>
      <rdf:li>play</rdf:li>
      <rdf:li>order</rdf:li>
      <rdf:li>shuffle</rdf:li>
     </rdf:Bag>
    </dc:subject>
    <dc:description>Two intersectating arrows</dc:description>
   </cc:Work>
  </rdf:RDF>
 </metadata>
 <rect id="rect2382" width="48" height="48" style="fill:none;stroke-width:0"/>
 <g id="layer1">
  <path id="path3199" d="m5 11v4h9l11 22h10v5c1 2 2 1 3-1l5-6-5-6c-1-2-2-3-3-1v5h-8l-11-22h-11z" style="fill-rule:evenodd;fill:#fff;stroke-linecap:round;stroke-linejoin:round;stroke-width:10;stroke:#fff"/>
  <g id="g3193">
   <path id="path3191" d="m5 37v-4h9l11-22h10v-5c1-2 2-1 3 1l5 6-5 6c-1 2-2 3-3 1v-5h-8l-11 22h-11z" style="fill-rule:evenodd;fill:#fff;stroke-linecap:round;stroke-linejoin:round;stroke-width:10;stroke:#fff"/>
   <path id="path2385" d="m5 37v-4h9l11-22h10v-5c1-2 2-1 3 1l5 6-5 6c-1 2-2 3-3 1v-5h-8l-11 22h-11z" style="fill-rule:evenodd;stroke-linecap:round;stroke-linejoin:round;stroke-width:2;stroke:#000"/>
  </g>
  <path id="path3205" d="m5 11v4h9l11 22h10v5c1 2 2 1 3-1l5-6-5-6c-1-2-2-3-3-1v5h-8l-11-22h-11z" style="fill-rule:evenodd;fill:#fff;stroke-linecap:round;stroke-linejoin:round;stroke-width:6;stroke:#fff"/>
  <path id="path3201" d="m5 11v4h9l11 22h10v5c1 2 2 1 3-1l5-6-5-6c-1-2-2-3-3-1v5h-8l-11-22h-11z" style="fill-rule:evenodd;stroke-linecap:round;stroke-linejoin:round;stroke-width:2;stroke:#000"/>
 </g>
</svg>
