<?xml version="1.0" encoding="UTF-8"?>
<!-- Created with Inkscape (http://www.inkscape.org/) -->
<svg id="svg2" width="48" height="48" version="1.0" xmlns="http://www.w3.org/2000/svg" xmlns:cc="http://creativecommons.org/ns#" xmlns:dc="http://purl.org/dc/elements/1.1/" xmlns:rdf="http://www.w3.org/1999/02/22-rdf-syntax-ns#">
 <metadata id="metadata7">
  <rdf:RDF>
   <cc:Work rdf:about="">
    <dc:format>image/svg+xml</dc:format>
    <dc:type rdf:resource="http://purl.org/dc/dcmitype/StillImage"/>
    <dc:title>Media Playlist Repeat</dc:title>
    <dc:date>December 2008</dc:date>
    <dc:creator>
     <cc:Agent>
      <dc:title>Luca Ferretti</dc:title>
     </cc:Agent>
    </dc:creator>
    <dc:subject>
     <rdf:Bag>
      <rdf:li>media</rdf:li>
      <rdf:li>playlist</rdf:li>
      <rdf:li>play</rdf:li>
      <rdf:li>order</rdf:li>
      <rdf:li>repeat</rdf:li>
      <rdf:li/>
     </rdf:Bag>
    </dc:subject>
    <dc:description>A "circular" arrow</dc:description>
   </cc:Work>
  </rdf:RDF>
 </metadata>
 <rect id="rect2382" width="48" height="48" style="fill:none;stroke-width:0"/>
 <g id="layer1">
  <path id="path3157" d="m7 34.91s-2 0-2-2v-25c0-2 2-2 2-2h34s2 0 2 2v25c0 2-2 2-2 2h-11v6c-1 2-2 1-3-1l-5-8 5-8c1-2 2-3 3-1v6h7v-17h-26v17h6l-3 3 3 3h-10z" style="fill-rule:evenodd;fill:#fff;stroke-linecap:round;stroke-linejoin:round;stroke-width:10;stroke:#fff"/>
  <path id="path2385" d="m7 34.91s-2 0-2-2v-25c0-2 2-2 2-2h34s2 0 2 2v25c0 2-2 2-2 2h-11v6c-1 2-2 1-3-1l-5-8 5-8c1-2 2-3 3-1v6h7v-17h-26v17h6l-3 3 3 3h-10z" style="fill-rule:evenodd;stroke-linecap:round;stroke-linejoin:round;stroke-width:2;stroke:#000"/>
 </g>
</svg>
