<?xml version="1.0" encoding="UTF-8"?>
<!-- Generator: Adobe Illustrator 9.0, SVG Export Plug-In  -->
<svg id="svg2" width="48" height="48" version="1.0" viewBox="0 0 48 48" xml:space="preserve" xmlns="http://www.w3.org/2000/svg" xmlns:cc="http://web.resource.org/cc/" xmlns:dc="http://purl.org/dc/elements/1.1/" xmlns:rdf="http://www.w3.org/1999/02/22-rdf-syntax-ns#"><metadata id="metadata33"><rdf:RDF><cc:Work rdf:about=""><dc:format>image/svg+xml</dc:format><dc:type rdf:resource="http://purl.org/dc/dcmitype/StillImage"/><dc:title>Network Online</dc:title><dc:creator><cc:Agent><dc:title>Luca Ferretti &lt;elle.uca@libero.it&gt;</dc:title></cc:Agent></dc:creator><dc:subject><rdf:Bag><rdf:li>network</rdf:li><rdf:li>online</rdf:li><rdf:li>connected</rdf:li></rdf:Bag></dc:subject><dc:description>Connected plugs</dc:description><dc:contributor><cc:Agent><dc:title>Based on Jakub Steiner's work, I've just made it pixel perfect</dc:title></cc:Agent></dc:contributor><cc:license rdf:resource="http://creativecommons.org/licenses/LGPL/2.1/"/></cc:Work><cc:License rdf:about="http://creativecommons.org/licenses/LGPL/2.1/"><cc:permits rdf:resource="http://web.resource.org/cc/Reproduction"/><cc:permits rdf:resource="http://web.resource.org/cc/Distribution"/><cc:requires rdf:resource="http://web.resource.org/cc/Notice"/><cc:permits rdf:resource="http://web.resource.org/cc/DerivativeWorks"/><cc:requires rdf:resource="http://web.resource.org/cc/ShareAlike"/><cc:requires rdf:resource="http://web.resource.org/cc/SourceCode"/></cc:License></rdf:RDF></metadata>
	
	
<rect id="rect6087" width="48" height="48" style="fill:none"/><g id="g4143" style="fill:#fff"><path id="path4145" d="m5 26v-4h6c0-4 2-10 6-11h5v26h-5c-4-1-6-7-6-11h-6z" style="fill-rule:evenodd;fill:#fff"/><path id="path4147" d="m43 26v-4h-6c0-4-2-10-6-11h-5v26h5c4-1 6-7 6-11h6z" style="fill-rule:evenodd;fill:#fff"/></g><g id="g7058" style="fill:#fff;stroke-linecap:round;stroke-linejoin:round;stroke-width:8;stroke:#fff"><path id="path7060" d="m5 26v-4h6c0-4 2-10 6-11h5v26h-5c-4-1-6-7-6-11h-6z" style="fill-rule:evenodd;fill:#fff;stroke-linecap:round;stroke-linejoin:round;stroke-width:8;stroke:#fff"/><path id="path7062" d="m43 26v-4h-6c0-4-2-10-6-11h-5v26h5c4-1 6-7 6-11h6z" style="fill-rule:evenodd;fill:#fff;stroke-linecap:round;stroke-linejoin:round;stroke-width:8;stroke:#fff"/></g><g id="g3170"><path id="path2186" d="m5 26v-4h6c0-4 2-10 6-11h5v26h-5c-4-1-6-7-6-11h-6z" style="fill-rule:evenodd"/><path id="path3159" d="m43 26v-4h-6c0-4-2-10-6-11h-5v26h5c4-1 6-7 6-11h6z" style="fill-rule:evenodd"/></g></svg>
