<?xml version="1.0" encoding="UTF-8"?>
<!-- Generator: Adobe Illustrator 9.0, SVG Export Plug-In  -->
<svg id="svg2" width="48" height="48" version="1.0" viewBox="0 0 48 48" xml:space="preserve" xmlns="http://www.w3.org/2000/svg" xmlns:cc="http://web.resource.org/cc/" xmlns:dc="http://purl.org/dc/elements/1.1/" xmlns:rdf="http://www.w3.org/1999/02/22-rdf-syntax-ns#"><metadata id="metadata29"><rdf:RDF><cc:Work rdf:about=""><dc:format>image/svg+xml</dc:format><dc:type rdf:resource="http://purl.org/dc/dcmitype/StillImage"/><dc:title>Network Offline</dc:title><dc:creator><cc:Agent><dc:title>Luca Ferretti &lt;elle.uca@libero.it&gt;</dc:title></cc:Agent></dc:creator><dc:subject><rdf:Bag><rdf:li>network</rdf:li><rdf:li>status</rdf:li><rdf:li>offline</rdf:li><rdf:li>disconnected</rdf:li></rdf:Bag></dc:subject><dc:description>A plug</dc:description><dc:contributor><cc:Agent><dc:title>Jakub Steiner did the previous non-pixel perfect version.</dc:title></cc:Agent></dc:contributor><cc:license rdf:resource="http://creativecommons.org/licenses/LGPL/2.1/"/></cc:Work><cc:License rdf:about="http://creativecommons.org/licenses/LGPL/2.1/"><cc:permits rdf:resource="http://web.resource.org/cc/Reproduction"/><cc:permits rdf:resource="http://web.resource.org/cc/Distribution"/><cc:requires rdf:resource="http://web.resource.org/cc/Notice"/><cc:permits rdf:resource="http://web.resource.org/cc/DerivativeWorks"/><cc:requires rdf:resource="http://web.resource.org/cc/ShareAlike"/><cc:requires rdf:resource="http://web.resource.org/cc/SourceCode"/></cc:License></rdf:RDF></metadata>
	
	
<g id="layer1"><rect id="rect5113" width="48" height="48" style="fill:none"/><path id="path4142" d="m5 21h8c1-4 2-11 9-12h10v5h9c3 0 3 5 0 5h-9v9h9c3 0 3 5 0 5h-9v5h-10c-7-1-8-7-9-11h-8v-6z" style="fill-rule:evenodd;fill:#fff;stroke-linecap:round;stroke-linejoin:round;stroke-width:8;stroke:#fff"/><path id="path2182" d="m5 21h8c1-4 2-11 9-12h10v5h9c3 0 3 5 0 5h-9v9h9c3 0 3 5 0 5h-9v5h-10c-7-1-8-7-9-11h-8v-6z" style="fill-rule:evenodd"/></g></svg>
