<?xml version="1.0" encoding="UTF-8"?>
<!-- Generator: Adobe Illustrator 9.0, SVG Export Plug-In  -->
<svg id="svg2" width="48" height="48" version="1.0" viewBox="0 0 48 48" xml:space="preserve" xmlns="http://www.w3.org/2000/svg" xmlns:cc="http://creativecommons.org/ns#" xmlns:dc="http://purl.org/dc/elements/1.1/" xmlns:rdf="http://www.w3.org/1999/02/22-rdf-syntax-ns#"><metadata id="metadata31"><rdf:RDF><cc:Work rdf:about=""><dc:format>image/svg+xml</dc:format><dc:type rdf:resource="http://purl.org/dc/dcmitype/StillImage"/></cc:Work></rdf:RDF></metadata>
	
	
<rect id="rect2393" width="48" height="48" rx="0" ry="0" style="fill:none"/><g id="g2395" transform="translate(0 -6)" style="fill:#fff;stroke-width:8;stroke:#fff"><path id="path2397" d="m40 49c0 0.4-0.56471 1-0.94118 1h-30.118c-0.37647 0-0.94118-0.6-0.94118-1v-12c0-0.4 0.47059-0.7 0.84706-0.7h30.024c0.37647 0 1.1294 0.3 1.1294 0.7v12z" style="fill:#fff;stroke-linejoin:round;stroke-width:8;stroke:#fff"/><path id="path2399" d="m44 35c0 0.4-0.6 1-1 1h-38c-0.4 0-1-0.6-1-1v-14c0-0.4 0.6-1 1-1h38c0.4 0 1 0.6 1 1v14z" style="fill:#fff;stroke-linejoin:round;stroke-width:8;stroke:#fff"/><path id="path2401" d="m12 10c-3 0-4 2-4 4v12h32v-12c0-2-1-4-4-4h-24z" style="fill:#fff;stroke-linejoin:round;stroke-width:8;stroke:#fff"/></g><g id="g2403" transform="translate(0 -10)"><path id="path2405" d="m41 42c0 0.4-0.6 1-1 1h-32c-0.4 0-1-0.6-1-1v-2c0-0.4 0.5-0.7 0.9-0.7h31.9c0.4 0 1.2 0.3 1.2 0.7v2z"/><path id="path2407" d="m44 39c0 0.4-0.6 1-1 1h-38c-0.4 0-1-0.6-1-1v-14c0-0.4 0.6-1 1-1h38c0.4 0 1 0.6 1 1v14z"/><path id="path2409" d="m12 14c-3 0-4 2-4 4v18h32v-18c0-2-1-4-4-4h-24z"/><path id="path3187" d="m12 54c-3 0-4-2-4-4v-18h32v18c0 2-1 4-4 4h-24z"/></g><path id="path2411" d="m36 15h-24v-6s0-1 1-1h22c1 0 1 1 1 1v6z" style="fill:#fff"/><path id="path3189" d="m36 30h-24v9s0 1 1 1h22c1 0 1-1 1-1v-9z" style="fill:#fff"/><path id="path2413" d="m16.6 35h14.4" style="fill:none;stroke-width:4;stroke:#000"/></svg>
