<?xml version="1.0" encoding="UTF-8"?>
<!-- Generator: Adobe Illustrator 9.0, SVG Export Plug-In  -->
<svg id="svg2" width="48" height="48" version="1.0" viewBox="0 0 48 48" xml:space="preserve" xmlns="http://www.w3.org/2000/svg" xmlns:cc="http://creativecommons.org/ns#" xmlns:dc="http://purl.org/dc/elements/1.1/" xmlns:rdf="http://www.w3.org/1999/02/22-rdf-syntax-ns#"><metadata id="metadata31"><rdf:RDF><cc:Work rdf:about=""><dc:format>image/svg+xml</dc:format><dc:type rdf:resource="http://purl.org/dc/dcmitype/StillImage"/></cc:Work></rdf:RDF></metadata>
	<rect id="rect3981" width="48" height="48" rx="0" ry="0" style="fill-opacity:0"/><g id="g3100" style="fill:#fff;stroke-width:8;stroke:#fff"><path id="path3102" d="m41 42c0 0.4-0.6 1-1 1h-32c-0.4 0-1-0.6-1-1v-2c0-0.4 0.5-0.7 0.9-0.7h31.9c0.4 0 1.2 0.3 1.2 0.7v2z" style="fill:#fff;stroke-linejoin:round;stroke-width:8;stroke:#fff"/><path id="path3104" d="m44 39c0 0.4-0.6 1-1 1h-38c-0.4 0-1-0.6-1-1v-14c0-0.4 0.6-1 1-1h38c0.4 0 1 0.6 1 1v14z" style="fill:#fff;stroke-linejoin:round;stroke-width:8;stroke:#fff"/><path id="path3106" d="m12 4c-3 0-4 2-4 4v18h32v-18c0-2-1-4-4-4h-24z" style="fill:#fff;stroke-linejoin:round;stroke-width:8;stroke:#fff"/></g><g id="g3095"><path id="path13" d="m41 42c0 0.4-0.6 1-1 1h-32c-0.4 0-1-0.6-1-1v-2c0-0.4 0.5-0.7 0.9-0.7h31.9c0.4 0 1.2 0.3 1.2 0.7v2z"/><path id="path15" d="m44 39c0 0.4-0.6 1-1 1h-38c-0.4 0-1-0.6-1-1v-14c0-0.4 0.6-1 1-1h38c0.4 0 1 0.6 1 1v14z"/><path id="path17" d="m12 4c-3 0-4 2-4 4v18h32v-18c0-2-1-4-4-4h-24z"/></g><path id="path19" d="m36 24h-24v-15s0-1 1-1h22c1 0 1 1 1 1v15z" style="fill:#fff"/>
	
<path id="path1315" d="m11 37h26" style="fill-rule:evenodd;fill:#fff;stroke-width:4;stroke:#fff"/><rect id="rect3164" transform="matrix(.70711 .70711 -.70711 .70711 0 0)" x="24.234" y="-2.7071" width="18" height="4" rx="1" ry="1" style="stroke-dashoffset:0pt;stroke-linecap:round;stroke-linejoin:round;stroke-width:6;stroke:#fff"/><rect id="rect3168" transform="matrix(-.70711 .70711 -.70711 -.70711 0 0)" x="-9.7071" y="-35.234" width="18" height="4" rx="1" ry="1" style="stroke-dashoffset:0pt;stroke-linecap:round;stroke-linejoin:round;stroke-width:6;stroke:#fff"/><rect id="rect3170" transform="matrix(.70711 .70711 -.70711 .70711 0 0)" x="24.234" y="-2.7071" width="18" height="4" rx="1" ry="1"/><rect id="rect3172" transform="matrix(-.70711 .70711 -.70711 -.70711 0 0)" x="-9.7071" y="-35.234" width="18" height="4" rx="1" ry="1"/></svg>
