<?xml version="1.0" encoding="UTF-8"?>
<!-- Created with Inkscape (http://www.inkscape.org/) -->
<svg id="svg2160" width="48px" height="48px" xmlns="http://www.w3.org/2000/svg" xmlns:cc="http://web.resource.org/cc/" xmlns:dc="http://purl.org/dc/elements/1.1/" xmlns:rdf="http://www.w3.org/1999/02/22-rdf-syntax-ns#">
 <metadata id="metadata2165">
  <rdf:RDF>
   <cc:Work rdf:about="">
    <dc:format>image/svg+xml</dc:format>
    <dc:type rdf:resource="http://purl.org/dc/dcmitype/StillImage"/>
    <dc:title>Updates</dc:title>
    <dc:creator>
     <cc:Agent>
      <dc:title>Luca Ferretti &lt;elle.uca@libero.it&gt;</dc:title>
     </cc:Agent>
    </dc:creator>
    <dc:subject>
     <rdf:Bag>
      <rdf:li>updates</rdf:li>
      <rdf:li>available</rdf:li>
      <rdf:li>software</rdf:li>
     </rdf:Bag>
    </dc:subject>
    <dc:description>Based on same icon in GNOME icon theme</dc:description>
    <cc:license rdf:resource="http://creativecommons.org/licenses/LGPL/2.1/"/>
   </cc:Work>
   <cc:License rdf:about="http://creativecommons.org/licenses/LGPL/2.1/">
    <cc:permits rdf:resource="http://web.resource.org/cc/Reproduction"/>
    <cc:permits rdf:resource="http://web.resource.org/cc/Distribution"/>
    <cc:requires rdf:resource="http://web.resource.org/cc/Notice"/>
    <cc:permits rdf:resource="http://web.resource.org/cc/DerivativeWorks"/>
    <cc:requires rdf:resource="http://web.resource.org/cc/ShareAlike"/>
    <cc:requires rdf:resource="http://web.resource.org/cc/SourceCode"/>
   </cc:License>
  </rdf:RDF>
 </metadata>
 <g id="layer1">
  <path id="path2178" transform="matrix(.82049 .33191 -.32897 .82105 11.847 -3.8812)" d="m15.41 1.0323c-0.23018 0.08997 9.6181 8.0593 9.371 8.0548-0.24626-0.0044987 9.8297-7.6093 9.6041-7.7081-0.22638-0.099145 1.1023 12.5 0.93073 12.322-0.17095-0.17731 12.331 1.57 12.242 1.3406-0.089969-0.23018-8.0593 9.6181-8.0548 9.371 0.004499-0.24626 7.6093 9.8297 7.7081 9.6041 0.099146-0.22638-12.5 1.1023-12.322 0.93073 0.17731-0.17095-1.57 12.331-1.3406 12.242 0.23018-0.08997-9.6181-8.0593-9.371-8.0548 0.24626 0.004498-9.8297 7.6093-9.6041 7.7081 0.22638 0.099145-1.1023-12.5-0.93074-12.322 0.17095 0.17731-12.331-1.57-12.242-1.3406 0.08997 0.23018 8.0593-9.6181 8.0548-9.371-0.0044987 0.24626-7.6093-9.8297-7.7081-9.6041-0.099145 0.22638 12.5-1.1023 12.322-0.93073-0.17731 0.17095 1.57-12.331 1.3406-12.242z" style="stroke-linecap:round;stroke-linejoin:round;stroke-width:4.5246;stroke:#fff"/>
  <path id="path3137" transform="matrix(.74762 .30258 -.29975 .74851 12.898 -1.4539)" d="m15.41 1.0323c1.9372-0.7572 7.3413 5.5377 9.4209 5.5757 2.0691 0.037798 7.6587-6.0592 9.5543-5.229 1.9053 0.83442 1.2753 9.1068 2.719 10.604 1.4363 1.4898 9.7 1.131 10.453 3.0584 0.7572 1.9372-5.5377 7.3413-5.5757 9.4209-0.037798 2.0691 6.0592 7.6587 5.229 9.5543-0.83442 1.9053-9.1068 1.2753-10.604 2.719-1.4898 1.4363-1.131 9.7-3.0584 10.453-1.9372 0.7572-7.3413-5.5377-9.4209-5.5757-2.0691-0.037798-7.6587 6.0592-9.5543 5.229-1.9053-0.83442-1.2753-9.1068-2.719-10.604-1.4363-1.4898-9.7-1.131-10.453-3.0584-0.7572-1.9372 5.5377-7.3413 5.5757-9.4209 0.037798-2.0691-6.0592-7.6587-5.229-9.5543 0.83442-1.9053 9.1068-1.2753 10.604-2.719 1.4898-1.4363 1.131-9.7 3.0584-10.453z" style="fill:#fff;stroke-linecap:round;stroke-linejoin:round;stroke-width:9.9205;stroke:#fff"/>
  <path id="path2163" transform="matrix(.74762 .30258 -.29975 .74851 12.898 -1.4539)" d="m15.41 1.0323c1.9372-0.7572 7.3413 5.5377 9.4209 5.5757 2.0691 0.037798 7.6587-6.0592 9.5543-5.229 1.9053 0.83442 1.2753 9.1068 2.719 10.604 1.4363 1.4898 9.7 1.131 10.453 3.0584 0.7572 1.9372-5.5377 7.3413-5.5757 9.4209-0.037798 2.0691 6.0592 7.6587 5.229 9.5543-0.83442 1.9053-9.1068 1.2753-10.604 2.719-1.4898 1.4363-1.131 9.7-3.0584 10.453-1.9372 0.7572-7.3413-5.5377-9.4209-5.5757-2.0691-0.037798-7.6587 6.0592-9.5543 5.229-1.9053-0.83442-1.2753-9.1068-2.719-10.604-1.4363-1.4898-9.7-1.131-10.453-3.0584-0.7572-1.9372 5.5377-7.3413 5.5757-9.4209 0.037798-2.0691-6.0592-7.6587-5.229-9.5543 0.83442-1.9053 9.1068-1.2753 10.604-2.719 1.4898-1.4363 1.131-9.7 3.0584-10.453z"/>
 </g>
</svg>
