<?xml version="1.0" encoding="UTF-8"?>
<!-- Created with Inkscape (http://www.inkscape.org/) -->
<svg id="svg2383" width="48px" height="48px" xmlns="http://www.w3.org/2000/svg" xmlns:cc="http://creativecommons.org/ns#" xmlns:dc="http://purl.org/dc/elements/1.1/" xmlns:rdf="http://www.w3.org/1999/02/22-rdf-syntax-ns#">
 <metadata id="metadata2388">
  <rdf:RDF>
   <cc:Work rdf:about="">
    <dc:format>image/svg+xml</dc:format>
    <dc:type rdf:resource="http://purl.org/dc/dcmitype/StillImage"/>
    <dc:title>Weather Showers Scattered</dc:title>
    <dc:date>December 2008</dc:date>
    <dc:creator>
     <cc:Agent>
      <dc:title>Luca Ferretti &lt;elle.uca@libero.it&gt;</dc:title>
     </cc:Agent>
    </dc:creator>
    <dc:subject>
     <rdf:Bag>
      <rdf:li>weather</rdf:li>
      <rdf:li>showers</rdf:li>
      <rdf:li>scattered</rdf:li>
     </rdf:Bag>
    </dc:subject>
    <dc:description>Two raindrops</dc:description>
    <cc:license rdf:resource=""/>
   </cc:Work>
  </rdf:RDF>
 </metadata>
 <g id="layer1">
  <rect id="rect2393" width="48" height="48" style="fill:none"/>
  <g id="g3244" transform="translate(-1.0075 -.091287)">
   <path id="path3216" transform="matrix(.7576 .65272 -.65272 .7576 13.095 -35.621)" d="m28.062 28.12c1.7977-1.5877 7.7336 2.1449 10.001 2.9108 2.2678 0.76588 9.3053 1.0993 9.8214 3.4456s-6.0538 5.5858-7.8533 7.1792c-1.7995 1.5934-5.524 7.4872-7.7844 6.7188-2.2605-0.76841-1.7876-7.6668-2.2396-10.017s-3.7432-8.6498-1.9455-10.237z" style="fill:#fff;stroke-linecap:round;stroke-linejoin:round;stroke-width:8;stroke:#fff"/>
   <path id="path3218" transform="matrix(.033675 -.99943 .99943 .033675 -3.4034 36.449)" d="m22.977 19.5a10.477 11.5 0 1 1-20.954 0 10.477 11.5 0 1 1 20.954 0z" style="fill:#fff;stroke-linecap:round;stroke-linejoin:round;stroke-width:8;stroke:#fff"/>
  </g>
  <g id="g3240" transform="translate(-1.0075 -.091287)">
   <path id="path3208" transform="matrix(.033675 -.99943 .99943 .033675 -3.4034 36.449)" d="m22.977 19.5a10.477 11.5 0 1 1-20.954 0 10.477 11.5 0 1 1 20.954 0z"/>
   <path id="path3210" transform="matrix(.7576 .65272 -.65272 .7576 13.095 -35.621)" d="m28.062 28.12c1.7977-1.5877 7.7336 2.1449 10.001 2.9108 2.2678 0.76588 9.3053 1.0993 9.8214 3.4456s-6.0538 5.5858-7.8533 7.1792c-1.7995 1.5934-5.524 7.4872-7.7844 6.7188-2.2605-0.76841-1.7876-7.6668-2.2396-10.017s-3.7432-8.6498-1.9455-10.237z"/>
  </g>
  <g id="g3232" transform="translate(1.1657e-6 1)">
   <path id="path3220" transform="matrix(.029292 -.86792 .86936 .029244 16.684 44.179)" d="m22.977 19.5a10.477 11.5 0 1 1-20.954 0 10.477 11.5 0 1 1 20.954 0z" style="fill:#fff;stroke-linecap:round;stroke-linejoin:round;stroke-width:9.2046;stroke:#fff"/>
   <path id="path3230" transform="matrix(.659 .56683 -.56777 .6579 31.035 -18.407)" d="m28.062 28.12c1.7977-1.5877 7.7336 2.1449 10.001 2.9108 2.2678 0.76588 9.3053 1.0993 9.8214 3.4456s-6.0538 5.5858-7.8533 7.1792c-1.7995 1.5934-5.524 7.4872-7.7844 6.7188-2.2605-0.76841-1.7876-7.6668-2.2396-10.017s-3.7432-8.6498-1.9455-10.237z" style="fill:#fff;stroke-linecap:round;stroke-linejoin:round;stroke-width:9.2046;stroke:#fff"/>
  </g>
  <g id="g3236" transform="translate(-.0048279 1)">
   <path id="path3212" transform="matrix(.029292 -.86792 .86936 .029244 16.684 44.179)" d="m22.977 19.5a10.477 11.5 0 1 1-20.954 0 10.477 11.5 0 1 1 20.954 0z"/>
   <path id="path3214" transform="matrix(.659 .56683 -.56777 .6579 31.035 -18.407)" d="m28.062 28.12c1.7977-1.5877 7.7336 2.1449 10.001 2.9108 2.2678 0.76588 9.3053 1.0993 9.8214 3.4456s-6.0538 5.5858-7.8533 7.1792c-1.7995 1.5934-5.524 7.4872-7.7844 6.7188-2.2605-0.76841-1.7876-7.6668-2.2396-10.017s-3.7432-8.6498-1.9455-10.237z"/>
  </g>
  <path id="path3250" d="m9.5 24.5s0 5 5 5" style="fill:none;stroke-linecap:round;stroke-linejoin:round;stroke-width:3;stroke:#fff"/>
  <path id="path3252" d="m28.5 33.5s0 6 7 6" style="fill:none;stroke-linecap:round;stroke-linejoin:round;stroke-width:3;stroke:#fff"/>
 </g>
</svg>
