<?xml version="1.0" encoding="UTF-8"?>
<!-- Created with Inkscape (http://www.inkscape.org/) -->
<svg id="svg2383" width="48px" height="48px" xmlns="http://www.w3.org/2000/svg" xmlns:cc="http://creativecommons.org/ns#" xmlns:dc="http://purl.org/dc/elements/1.1/" xmlns:rdf="http://www.w3.org/1999/02/22-rdf-syntax-ns#" xmlns:xlink="http://www.w3.org/1999/xlink">
 <metadata id="metadata2388">
  <rdf:RDF>
   <cc:Work rdf:about="">
    <dc:format>image/svg+xml</dc:format>
    <dc:type rdf:resource="http://purl.org/dc/dcmitype/StillImage"/>
    <cc:license rdf:resource=""/>
    <dc:title>Weather Showers</dc:title>
    <dc:date>December 2008</dc:date>
    <dc:creator>
     <cc:Agent>
      <dc:title>Luca Ferretti &lt;elle.uca@libero.it&gt;</dc:title>
     </cc:Agent>
    </dc:creator>
    <dc:subject>
     <rdf:Bag>
      <rdf:li>weather</rdf:li>
      <rdf:li>showers</rdf:li>
     </rdf:Bag>
    </dc:subject>
   </cc:Work>
  </rdf:RDF>
 </metadata>
 <g id="layer1">
  <rect id="rect2395" width="48" height="48" style="fill:none"/>
  <use id="use3989" transform="translate(10)" width="48" height="48" xlink:href="#path3987"/>
  <use id="use3991" transform="translate(20)" width="48" height="48" xlink:href="#path3987"/>
  <use id="use3993" transform="translate(30)" width="48" height="48" xlink:href="#path3987"/>
  <path id="path3987" d="m6 40 5-12" style="fill:none;stroke-linecap:round;stroke-linejoin:round;stroke-width:12;stroke:#fff"/>
  <path id="path3253" d="m11.195 26c4.8055 0 7.8055 0 12.805-1 3 1 9 1 12.285 1 9.409 0 11.5-16.545-1.0454-13 3.1363-8.2727-7.3181-13-13.591-4.7273-3.1363-3.5455-10.991-3.6336-9.946 4.6392-10.454-3.5455-9.9175 13.088-0.50848 13.088z" style="fill-rule:evenodd;fill:#fff;stroke-width:8;stroke:#fff"/>
  <path id="path3247" d="m11.319 26c4.7872 0 7.7759 0 12.757-1 2.9886 1 8.9659 1 12.239 1 9.3733 0 11.456-16.545-1.0415-13 3.1244-8.2727-7.2904-13-13.539-4.7273-3.1244-3.5455-10.95-3.6336-9.9082 4.6392-10.415-3.5455-9.8799 13.088-0.50656 13.088z" style="fill-rule:evenodd"/>
  <path id="path3257" d="m20.805 27c5-1 8.3333-3.3333 12-5" style="fill:none;stroke-linecap:round;stroke-width:3;stroke:#fff"/>
  <path id="path3979" d="m6 40 6-13" style="fill:none;stroke-linecap:round;stroke-linejoin:round;stroke-width:4;stroke:#000"/>
  <use id="use3981" transform="translate(10)" width="48" height="48" xlink:href="#path3979"/>
  <use id="use3983" transform="translate(10)" width="48" height="48" xlink:href="#use3981"/>
  <use id="use3985" transform="translate(10)" width="48" height="48" xlink:href="#use3983"/>
 </g>
</svg>
