<?xml version="1.0" encoding="UTF-8"?>
<!-- Created with Inkscape (http://www.inkscape.org/) -->
<svg id="svg2383" width="48px" height="48px" xmlns="http://www.w3.org/2000/svg" xmlns:cc="http://creativecommons.org/ns#" xmlns:dc="http://purl.org/dc/elements/1.1/" xmlns:rdf="http://www.w3.org/1999/02/22-rdf-syntax-ns#">
 <metadata id="metadata2388">
  <rdf:RDF>
   <cc:Work rdf:about="">
    <dc:format>image/svg+xml</dc:format>
    <dc:type rdf:resource="http://purl.org/dc/dcmitype/StillImage"/>
    <dc:title>Weather Few Clouds Night</dc:title>
    <dc:date>December 2008</dc:date>
    <dc:creator>
     <cc:Agent>
      <dc:title>Luca Ferretti &lt;elle.uca@libero.it&gt;</dc:title>
     </cc:Agent>
    </dc:creator>
    <dc:subject>
     <rdf:Bag>
      <rdf:li>weather</rdf:li>
      <rdf:li>night</rdf:li>
      <rdf:li>moon</rdf:li>
      <rdf:li>few clouds</rdf:li>
      <rdf:li>cloud</rdf:li>
     </rdf:Bag>
    </dc:subject>
    <dc:description>A half moon with a twinkle-twinkle-little-star and a cloud over it</dc:description>
    <cc:license rdf:resource=""/>
   </cc:Work>
  </rdf:RDF>
 </metadata>
 <g id="layer1">
  <rect id="rect2493" width="48" height="48" style="fill:none"/>
  <path id="path3849" d="m17.575 44h26.425v-20.502c-4.0654-9.226-26.425-6.1507-25.409 4.1005-11.313-4.1209-16.262 16.402-1.0164 16.402z" style="fill-rule:evenodd;fill:#fff;stroke-width:8;stroke:#fff"/>
  <g id="g3785">
   <path id="path3275" d="m17.114 9.5545c-0.51298 1.9059-1.2002 3.8502-1.2002 5.9583 1e-6 8.4324 6.9574 15.268 15.54 15.268 2.5065 0 4.8724-0.96038 6.9487-1.6137-1.0382 5.7533-7.9027 9.3098-14.34 9.3098-8.5825 0-15.54-6.8357-15.54-15.268 0-5.9697 2.8874-12.768 8.5911-13.654z" style="fill:#fff;stroke-linejoin:round;stroke-width:17.046;stroke:#fff"/>
   <path id="path3273" d="m17.148 9.5516c-0.51327 1.9067-1.2009 3.8517-1.2009 5.9606 1e-6 8.4358 6.9614 15.274 15.549 15.274 2.508 0 4.8752-0.96076 6.9527-1.6143-1.0388 5.7556-7.9073 9.3135-14.348 9.3135-8.5875 0-15.549-6.8384-15.549-15.274 0-5.9721 2.889-12.774 8.5961-13.66z" style="stroke-linecap:round;stroke-linejoin:round;stroke-width:9;stroke:#000"/>
   <path id="path23408" d="m17.155 9.5437c-0.51418 1.9077-1.2031 3.8538-1.2031 5.9639 1e-6 8.4403 6.9737 15.282 15.576 15.282 2.5124 0 4.8839-0.96129 6.965-1.6152-1.0406 5.7587-7.9213 9.3186-14.373 9.3186-8.6027 0-15.576-6.8421-15.576-15.282 0-5.9753 2.8942-12.78 8.6113-13.667z" style="fill:#fff;stroke-linejoin:round;stroke-width:3.0131;stroke:#fff"/>
  </g>
  <g id="g3781">
   <path id="path3279" transform="matrix(1.018 0 0 .98036 28.446 6.1779)" d="m12.501 10.252c-0.67199 0.86933-3.562-1.5368-4.6166-1.2285-1.0546 0.30832-2.1935 3.8922-3.2279 3.5218-1.0344-0.37046 0.36084-3.8626-0.25829-4.7703-0.61913-0.90774-4.3796-0.88337-4.3469-1.9817 0.032673-1.0983 3.785-0.85042 4.457-1.7198s-0.51323-4.4382 0.5414-4.7465c1.0546-0.30832 1.9784 3.337 3.0129 3.7074 1.0344 0.37046 4.0624-1.8596 4.6815-0.95185 0.61913 0.90774-2.5623 2.9128-2.595 4.0111-0.032672 1.0983 3.0239 3.2889 2.3519 4.1582z" style="fill:none;stroke-linecap:round;stroke-linejoin:round;stroke-width:11.011;stroke:#fff"/>
   <path id="path3277" transform="matrix(1.018 0 0 .98036 28.447 6.1764)" d="m12.501 10.252c-0.67199 0.86933-3.562-1.5368-4.6166-1.2285-1.0546 0.30832-2.1935 3.8922-3.2279 3.5218-1.0344-0.37046 0.36084-3.8626-0.25829-4.7703-0.61913-0.90774-4.3796-0.88337-4.3469-1.9817 0.032673-1.0983 3.785-0.85042 4.457-1.7198s-0.51323-4.4382 0.5414-4.7465c1.0546-0.30832 1.9784 3.337 3.0129 3.7074 1.0344 0.37046 4.0624-1.8596 4.6815-0.95185 0.61913 0.90774-2.5623 2.9128-2.595 4.0111-0.032672 1.0983 3.0239 3.2889 2.3519 4.1582z" style="stroke-linecap:round;stroke-linejoin:round;stroke-width:3;stroke:#000"/>
  </g>
  <path id="path3247" d="m17.575 44h26.425v-20.502c-4.0654-9.226-26.425-6.1507-25.409 4.1005-11.313-4.1209-16.262 16.402-1.0164 16.402z" style="fill-rule:evenodd"/>
 </g>
</svg>
