<?xml version="1.0" encoding="UTF-8"?>
<!-- Created with Inkscape (http://www.inkscape.org/) -->
<svg id="svg2383" width="48px" height="48px" xmlns="http://www.w3.org/2000/svg" xmlns:cc="http://creativecommons.org/ns#" xmlns:dc="http://purl.org/dc/elements/1.1/" xmlns:rdf="http://www.w3.org/1999/02/22-rdf-syntax-ns#">
 <metadata id="metadata2388">
  <rdf:RDF>
   <cc:Work rdf:about="">
    <dc:format>image/svg+xml</dc:format>
    <dc:type rdf:resource="http://purl.org/dc/dcmitype/StillImage"/>
    <dc:title>Weather Few Clouds Night</dc:title>
    <dc:date>December 2008</dc:date>
    <dc:creator>
     <cc:Agent>
      <dc:title>Luca Ferretti &lt;elle.uca@libero.it&gt;</dc:title>
     </cc:Agent>
    </dc:creator>
    <dc:subject>
     <rdf:Bag>
      <rdf:li>weather</rdf:li>
      <rdf:li>day</rdf:li>
      <rdf:li>cloud</rdf:li>
      <rdf:li>few</rdf:li>
      <rdf:li/>
     </rdf:Bag>
    </dc:subject>
    <dc:description>A sun with a cloud over it</dc:description>
    <cc:license rdf:resource=""/>
   </cc:Work>
  </rdf:RDF>
 </metadata>
 <g id="layer1">
  <rect id="rect2393" width="48" height="48" style="fill:none"/>
  <path id="path3183" d="m24 4c1.8824 1e-7 3.2358 7.2692 4.9749 7.9896 1.7391 0.72035 7.8362-3.4627 9.1673-2.1317 1.331 1.331-2.8521 7.4282-2.1317 9.1673 0.72035 1.7391 7.9896 3.0925 7.9896 4.9749s-7.2692 3.2358-7.9896 4.9749c-0.72035 1.7391 3.4627 7.8362 2.1317 9.1673-1.331 1.331-7.4282-2.8521-9.1673-2.1317-1.7391 0.72035-3.0925 7.9896-4.9749 7.9896s-3.2358-7.2692-4.9749-7.9896c-1.7391-0.72035-7.8362 3.4627-9.1673 2.1317-1.331-1.331 2.8521-7.4282 2.1317-9.1673-0.72035-1.7391-7.9896-3.0925-7.9896-4.9749s7.2692-3.2358 7.9896-4.9749c0.72035-1.7391-3.4627-7.8362-2.1317-9.1673 1.331-1.331 7.4282 2.8521 9.1673 2.1317 1.7391-0.72035 3.0925-7.9896 4.9749-7.9896z" style="fill:#fff;stroke-linecap:round;stroke-linejoin:round;stroke-width:8;stroke:#fff"/>
  <path id="path3175" d="m38.193 24a14.096 14 0 1 1-28.193 0 14.096 14 0 1 1 28.193 0z"/>
  <path id="path2387" d="m18 44h26v-20c-4-9-26-6-25 4-11.131-4.0199-16 16-1 16z" style="fill-rule:evenodd;fill:#fff;stroke-linecap:round;stroke-linejoin:round;stroke-width:8;stroke:#fff"/>
  <path id="path3181" d="m24 4c1.8824 1e-7 3.2358 7.2692 4.9749 7.9896 1.7391 0.72035 7.8362-3.4627 9.1673-2.1317 1.331 1.331-2.8521 7.4282-2.1317 9.1673 0.72035 1.7391 7.9896 3.0925 7.9896 4.9749s-7.2692 3.2358-7.9896 4.9749c-0.72035 1.7391 3.4627 7.8362 2.1317 9.1673-1.331 1.331-7.4282-2.8521-9.1673-2.1317-1.7391 0.72035-3.0925 7.9896-4.9749 7.9896s-3.2358-7.2692-4.9749-7.9896c-1.7391-0.72035-7.8362 3.4627-9.1673 2.1317-1.331-1.331 2.8521-7.4282 2.1317-9.1673-0.72035-1.7391-7.9896-3.0925-7.9896-4.9749s7.2692-3.2358 7.9896-4.9749c0.72035-1.7391-3.4627-7.8362-2.1317-9.1673 1.331-1.331 7.4282 2.8521 9.1673 2.1317 1.7391-0.72035 3.0925-7.9896 4.9749-7.9896z"/>
  <path id="path3187" d="m35 24a11 11 0 1 1-22 0 11 11 0 1 1 22 0z" style="fill:#fff"/>
  <path id="path3247" d="m18 44h26v-20c-4-9-26-6-25 4-11.131-4.0199-16 16-1 16z" style="fill-rule:evenodd"/>
 </g>
</svg>
