<?xml version="1.0" encoding="UTF-8"?>
<!-- Created with Inkscape (http://www.inkscape.org/) -->
<svg id="svg2383" width="48px" height="48px" xmlns="http://www.w3.org/2000/svg" xmlns:cc="http://creativecommons.org/ns#" xmlns:dc="http://purl.org/dc/elements/1.1/" xmlns:rdf="http://www.w3.org/1999/02/22-rdf-syntax-ns#">
 <metadata id="metadata2388">
  <rdf:RDF>
   <cc:Work rdf:about="">
    <dc:format>image/svg+xml</dc:format>
    <dc:type rdf:resource="http://purl.org/dc/dcmitype/StillImage"/>
   </cc:Work>
  </rdf:RDF>
 </metadata>
 <g id="layer1">
  <rect id="rect2395" width="48" height="48" style="fill:none"/>
  <path id="path3253" d="m11.195 35c4.8055 0 7.8055 0 12.805-1 3 1 9 1 12.285 1 9.409 0 11.5-16.545-1.0454-13 3.1363-8.2727-7.3181-13-13.591-4.7273-3.1363-3.5455-10.991-3.6336-9.946 4.6392-10.454-3.5455-9.9175 13.088-0.50848 13.088z" style="fill-rule:evenodd;fill:#fff;stroke-width:8;stroke:#fff"/>
  <path id="path3247" d="m11.195 35c4.8055 0 7.8055 0 12.805-1 3 1 9 1 12.285 1 9.409 0 11.5-16.545-1.0454-13 3.1363-8.2727-7.3181-13-13.591-4.7273-3.1363-3.5455-10.991-3.6336-9.946 4.6392-10.454-3.5455-9.9175 13.088-0.50848 13.088z" style="fill-rule:evenodd"/>
  <path id="path3257" d="m21 36c5-1 8.3333-3.3333 12-5" style="fill:none;stroke-linecap:round;stroke-width:3;stroke:#fff"/>
 </g>
</svg>
