<?xml version="1.0" encoding="UTF-8"?>
<!-- Created with Inkscape (http://www.inkscape.org/) -->
<svg id="svg1872" width="48px" height="48px" xmlns="http://www.w3.org/2000/svg" xmlns:cc="http://web.resource.org/cc/" xmlns:dc="http://purl.org/dc/elements/1.1/" xmlns:rdf="http://www.w3.org/1999/02/22-rdf-syntax-ns#">
 <metadata id="metadata1877">
  <rdf:RDF>
   <cc:Work rdf:about="">
    <dc:format>image/svg+xml</dc:format>
    <dc:type rdf:resource="http://purl.org/dc/dcmitype/StillImage"/>
    <dc:title>Bookmark View</dc:title>
    <dc:creator>
     <cc:Agent>
      <dc:title>Luca Ferretti &lt;elle.uca@libero.it&gt;</dc:title>
     </cc:Agent>
    </dc:creator>
    <dc:subject>
     <rdf:Bag>
      <rdf:li>bookmark</rdf:li>
      <rdf:li>view</rdf:li>
      <rdf:li>edit</rdf:li>
      <rdf:li>web</rdf:li>
      <rdf:li>favorites</rdf:li>
     </rdf:Bag>
    </dc:subject>
    <dc:coverage>Manage bookmarks in web browser</dc:coverage>
    <dc:description>A book with a bookmark</dc:description>
    <cc:license rdf:resource="http://creativecommons.org/licenses/LGPL/2.1/"/>
   </cc:Work>
   <cc:License rdf:about="http://creativecommons.org/licenses/LGPL/2.1/">
    <cc:permits rdf:resource="http://web.resource.org/cc/Reproduction"/>
    <cc:permits rdf:resource="http://web.resource.org/cc/Distribution"/>
    <cc:requires rdf:resource="http://web.resource.org/cc/Notice"/>
    <cc:permits rdf:resource="http://web.resource.org/cc/DerivativeWorks"/>
    <cc:requires rdf:resource="http://web.resource.org/cc/ShareAlike"/>
    <cc:requires rdf:resource="http://web.resource.org/cc/SourceCode"/>
   </cc:License>
  </rdf:RDF>
 </metadata>
 <g id="layer1">
  <rect id="rect2768" x="6" y="20" width="36" height="22" rx="2.9601" ry="2.959" style="fill-rule:evenodd;fill:#fff;stroke-width:12;stroke:#fff"/>
  <rect id="rect1880" x="6" y="21" width="35" height="21" rx="2.9601" ry="2.959" style="fill-rule:evenodd;fill:#fff;stroke-width:4;stroke:#000"/>
  <rect id="rect5907" x="27" y="11" width="10" height="8" style="fill:#fff"/>
  <path id="path5909" transform="matrix(2.8 0 0 2.5784 -67.4 -3.1568)" d="m38 4.7149a2.5 2.7149 0 1 1-5 0 2.5 2.7149 0 1 1 5 0z" style="fill:none;stroke-linejoin:round;stroke-width:1.4887;stroke:#fff"/>
  <path id="path4932" transform="matrix(1.6 0 0 1.4734 -24.8 2.0533)" d="m38 4.7149a2.5 2.7149 0 1 1-5 0 2.5 2.7149 0 1 1 5 0z" style="fill:#fff;stroke-linejoin:round;stroke-width:2.6052;stroke:#000"/>
  <rect id="rect5905" x="30" y="12" width="4" height="7"/>
  <path id="path5915" d="m23.571 20.545 17.853 16.023" style="fill:none;stroke-width:3;stroke:#000"/>
  <path id="path5917" d="m12.647 22 22.353 20" style="fill:none;stroke-width:3;stroke:#000"/>
  <path id="path5919" d="m5.5 26.477 17.853 16.023" style="fill:none;stroke-width:3;stroke:#000"/>
 </g>
</svg>
