<?xml version="1.0" encoding="UTF-8"?>
<!-- Created with Inkscape (http://www.inkscape.org/) -->
<svg id="svg2160" width="48px" height="48px" xmlns="http://www.w3.org/2000/svg" xmlns:cc="http://web.resource.org/cc/" xmlns:dc="http://purl.org/dc/elements/1.1/" xmlns:rdf="http://www.w3.org/1999/02/22-rdf-syntax-ns#" xmlns:xlink="http://www.w3.org/1999/xlink">
 <metadata id="metadata2165">
  <rdf:RDF>
   <cc:Work rdf:about="">
    <dc:format>image/svg+xml</dc:format>
    <dc:type rdf:resource="http://purl.org/dc/dcmitype/StillImage"/>
    <dc:title>Generic Audio File</dc:title>
    <dc:creator>
     <cc:Agent>
      <dc:title>Luca Ferretti &lt;elle.uca@libero.it&gt;</dc:title>
     </cc:Agent>
    </dc:creator>
    <dc:subject>
     <rdf:Bag>
      <rdf:li>audio</rdf:li>
      <rdf:li>music</rdf:li>
      <rdf:li>file</rdf:li>
     </rdf:Bag>
    </dc:subject>
    <dc:coverage>A generic icon for music and audio files</dc:coverage>
    <cc:license rdf:resource="http://creativecommons.org/licenses/LGPL/2.1/"/>
   </cc:Work>
   <cc:License rdf:about="http://creativecommons.org/licenses/LGPL/2.1/">
    <cc:permits rdf:resource="http://web.resource.org/cc/Reproduction"/>
    <cc:permits rdf:resource="http://web.resource.org/cc/Distribution"/>
    <cc:requires rdf:resource="http://web.resource.org/cc/Notice"/>
    <cc:permits rdf:resource="http://web.resource.org/cc/DerivativeWorks"/>
    <cc:requires rdf:resource="http://web.resource.org/cc/ShareAlike"/>
    <cc:requires rdf:resource="http://web.resource.org/cc/SourceCode"/>
   </cc:License>
  </rdf:RDF>
 </metadata>
 <g id="layer1">
  <rect id="rect4126" width="48" height="48" style="fill:none"/>
  <path id="path5117" transform="matrix(1.0667 0 0 1 -1.4 0)" d="m21 34a7.5 6 0 1 1-15 0 7.5 6 0 1 1 15 0z" style="fill:#fff;stroke-linecap:round;stroke-linejoin:round;stroke-width:7.746;stroke:#fff"/>
  <path id="path6090" d="m21 34v-19l16 4v19h5v-27l-26-7v30h5z" style="fill-rule:evenodd;fill:#fff;stroke-linecap:round;stroke-linejoin:round;stroke-width:8;stroke:#fff"/>
  <path id="path3149" transform="matrix(1.0667 0 0 1 -1.4 0)" d="m21 34a7.5 6 0 1 1-15 0 7.5 6 0 1 1 15 0z"/>
  <path id="path6088" transform="matrix(1.0667 0 0 1 19.6 4)" d="m21 34a7.5 6 0 1 1-15 0 7.5 6 0 1 1 15 0z" style="fill:#fff;stroke-linecap:round;stroke-linejoin:round;stroke-width:7.746;stroke:#fff"/>
  <path id="path3153" d="m21 34v-19l16 4v19h5v-27l-26-7v30h5z" style="fill-rule:evenodd"/>
  <use id="use4124" transform="translate(21,4)" width="48" height="48" xlink:href="#path3149"/>
 </g>
</svg>
