<?xml version="1.0" encoding="UTF-8"?>
<!-- Created with Inkscape (http://www.inkscape.org/) -->
<svg id="svg3304" width="48px" height="48px" sodipodi:docbase="/home/luca/Artwork/blackwhite-icon-theme/scalable/categories" sodipodi:docname="applications-accessories.svg" sodipodi:version="0.32" xmlns="http://www.w3.org/2000/svg" xmlns:cc="http://web.resource.org/cc/" xmlns:dc="http://purl.org/dc/elements/1.1/" xmlns:rdf="http://www.w3.org/1999/02/22-rdf-syntax-ns#" xmlns:sodipodi="http://inkscape.sourceforge.net/DTD/sodipodi-0.dtd">
 <sodipodi:namedview id="base" bordercolor="#666666" borderopacity="1.0" pagecolor="#ffffff" showgrid="true"/>
 <metadata id="metadata3309">
  <rdf:RDF>
   <cc:Work rdf:about="">
    <dc:format>image/svg+xml</dc:format>
    <dc:type rdf:resource="http://purl.org/dc/dcmitype/StillImage"/>
   </cc:Work>
  </rdf:RDF>
 </metadata>
 <g id="layer1">
  <rect id="rect6296" width="48" height="48" ry="0" style="fill:none"/>
  <rect id="rect9204" x="5" y="16" width="37.961" height="26" rx="4.9134" ry="4.9134" style="fill-rule:evenodd;fill:#fff;stroke-width:8;stroke:#fff"/>
  <path id="path9932" d="m21 6c-7 0-9 4.1739-9 11h24c0-7-2-11-9-11h-6zm2 4.4173h2c7 0 6 4.5827 6 6.5827h-14c0-2-1-6.5827 6-6.5827z" style="color:#000000;display:block;fill:#fff;stroke-miterlimit:10;stroke-width:8;stroke:#fff" sodipodi:nodetypes="cccsccsccc"/>
  <rect id="rect3314" x="5" y="16" width="37.961" height="26" rx="4.9134" ry="4.9134" style="fill-rule:evenodd"/>
  <path id="path4042" d="m7 24h34" style="fill:none;stroke-width:2;stroke:#fff" sodipodi:nodetypes="cc"/>
  <path id="path4772" d="m36 21v8" style="fill:none;stroke-width:4;stroke:#fff" sodipodi:nodetypes="cc"/>
  <path id="path2086" d="m21 6c-7 0-9 4.1739-9 11h24c0-7-2-11-9-11h-6zm2 4.4173h2c7 0 6 4.5827 6 6.5827h-14c0-2-1-6.5827 6-6.5827z" style="color:#000000;display:block" sodipodi:nodetypes="cccsccsccc"/>
  <path id="path7024" d="m12 21v8" style="fill:none;stroke-width:4;stroke:#fff" sodipodi:nodetypes="cc"/>
 </g>
</svg>
