<?xml version="1.0" encoding="UTF-8"?>
<!-- Created with Inkscape (http://www.inkscape.org/) -->
<svg id="svg1307" width="48" height="48" version="1.0" xmlns="http://www.w3.org/2000/svg" xmlns:cc="http://creativecommons.org/ns#" xmlns:dc="http://purl.org/dc/elements/1.1/" xmlns:rdf="http://www.w3.org/1999/02/22-rdf-syntax-ns#">
 <metadata id="metadata1312">
  <rdf:RDF>
   <cc:Work rdf:about="">
    <dc:format>image/svg+xml</dc:format>
    <dc:type rdf:resource="http://purl.org/dc/dcmitype/StillImage"/>
   </cc:Work>
  </rdf:RDF>
 </metadata>
 <g id="layer1">
  <rect id="rect2415" y="-.063745" width="48" height="48.064" style="fill:none"/>
 </g>
 <g id="layer5">
  <path id="path3191" d="m17.64 6.9465 1.7445 1.5454c-2e-6 3.7794-0.061601 5.6765-0.061601 9.5421-1.1635 1.5461-7.8905 7.8404-11.575 14.368-1.1635 2.0615-1.1604 4.6382 0.58491 6.6997 1.1635 1.5461 3.1953 2.0636 5.2334 2.0636h20.944c2.0381 0 4.0699-0.51745 5.2334-2.0636 1.7453-2.0615 1.7484-4.6382 0.58491-6.6997-3.2966-6.528-8.9617-12.499-10.534-14.368 0-3.7794 0.0616-5.7627 0.0616-9.5421l1.7445-1.5454h-13.961z" style="fill:none;stroke-linecap:round;stroke-linejoin:round;stroke-width:12;stroke:#fff"/>
  <path id="path29274" d="m17.64 6.9465 1.7445 1.5454c-2e-6 3.7794-0.061601 5.6765-0.061601 9.5421-1.1635 1.5461-7.8905 7.8404-11.575 14.368-1.1635 2.0615-1.1604 4.6382 0.58491 6.6997 1.1635 1.5461 3.1953 2.0636 5.2334 2.0636h20.944c2.0381 0 4.0699-0.51745 5.2334-2.0636 1.7453-2.0615 1.7484-4.6382 0.58491-6.6997-3.2966-6.528-8.9617-12.499-10.534-14.368 0-3.7794 0.0616-5.7627 0.0616-9.5421l1.7445-1.5454h-13.961z" style="fill-rule:evenodd;fill:#fff;stroke-linecap:round;stroke-linejoin:round;stroke-width:3.8813;stroke:#000"/>
  <path id="path6798" d="m19.263 23.119c-1.8675 2.926-3.4968 4.6-5.4579 7.9301-0.8386 1.424-0.83561 3.2017 0.42228 4.6257 0.8386 1.068 2.304 1.4252 3.773 1.4252 5.0316-3e-6 6.9949-0.048687 12.026-0.048687 1.469-3e-6 2.9344-0.35718 3.773-1.4252 1.2579-1.424 1.2609-3.2017 0.42229-4.6257-2.008-3.8109-2.7707-4.0702-4.8715-7.8814h-10.088z" style="fill-rule:evenodd;stroke-linecap:round;stroke-linejoin:round;stroke-width:.073987;stroke:#000"/>
 </g>
</svg>
