<?xml version="1.0" encoding="UTF-8"?>
<!-- Created with Inkscape (http://www.inkscape.org/) -->
<svg id="svg4932" width="48px" height="48px" xmlns="http://www.w3.org/2000/svg" xmlns:cc="http://web.resource.org/cc/" xmlns:dc="http://purl.org/dc/elements/1.1/" xmlns:rdf="http://www.w3.org/1999/02/22-rdf-syntax-ns#">
 <metadata id="metadata4937">
  <rdf:RDF>
   <cc:Work rdf:about="">
    <dc:format>image/svg+xml</dc:format>
    <dc:type rdf:resource="http://purl.org/dc/dcmitype/StillImage"/>
    <cc:license rdf:resource="http://creativecommons.org/licenses/LGPL/2.1/"/>
    <dc:title>Preferences Desktop Peripherals</dc:title>
    <dc:creator>
     <cc:Agent>
      <dc:title>Andreas Nilsson</dc:title>
     </cc:Agent>
    </dc:creator>
    <dc:rights>
     <cc:Agent>
      <dc:title>Andreas Nilsson</dc:title>
     </cc:Agent>
    </dc:rights>
    <dc:source>http://www.gnome.org/</dc:source>
    <dc:subject>
     <rdf:Bag>
      <rdf:li>preferences</rdf:li>
      <rdf:li>desktop</rdf:li>
      <rdf:li>peripheral</rdf:li>
      <rdf:li>input devices</rdf:li>
      <rdf:li>mouse</rdf:li>
      <rdf:li>keyboard</rdf:li>
      <rdf:li>tablet</rdf:li>
     </rdf:Bag>
    </dc:subject>
   </cc:Work>
   <cc:License rdf:about="http://creativecommons.org/licenses/LGPL/2.1/">
    <cc:permits rdf:resource="http://web.resource.org/cc/Reproduction"/>
    <cc:permits rdf:resource="http://web.resource.org/cc/Distribution"/>
    <cc:requires rdf:resource="http://web.resource.org/cc/Notice"/>
    <cc:permits rdf:resource="http://web.resource.org/cc/DerivativeWorks"/>
    <cc:requires rdf:resource="http://web.resource.org/cc/ShareAlike"/>
    <cc:requires rdf:resource="http://web.resource.org/cc/SourceCode"/>
   </cc:License>
  </rdf:RDF>
 </metadata>
 <g id="layer1">
  <rect id="rect4940" x="2" y="6" width="36" height="31" style="stroke-linecap:round;stroke-linejoin:round;stroke-width:4;stroke:#fff"/>
  <rect id="rect4978" x="7" y="11" width="26" height="21" style="fill:#fff"/>
  <g id="g4962" transform="matrix(.55124 0 0 .55124 23.464 19.746)">
   <g id="g4964" style="display:none">
    <path id="path5587" d="m37.174 21.717a13.533 11.674 0 1 1-27.065 0 13.533 11.674 0 1 1 27.065 0z" style="fill-rule:evenodd"/>
    <path id="path6474" transform="translate(0 11.609)" d="m37.174 21.717a13.533 11.674 0 1 1-27.065 0 13.533 11.674 0 1 1 27.065 0z" style="fill-rule:evenodd"/>
    <rect id="rect6476" x="10" y="22" width="27.174" height="12.043" rx="0" ry="0" style="fill-rule:evenodd"/>
    <path id="path7363" transform="translate(-1.087)" d="m14.348 22.043a8.7391 8.7391 0 0 1 8.7391-8.7391v8.7391z" style="fill-rule:evenodd;fill:#fff"/>
    <path id="path8250" transform="matrix(-1 0 0 1 48.348 0)" d="m14.348 22.043a8.7391 8.7391 0 0 1 8.7391-8.7391v8.7391z" style="fill-rule:evenodd;fill:#fff"/>
    <path id="path8252" d="m13 24h21v10s-0.13617 7-10 7c-9.9449 0-11-7-11-7v-10" style="fill-rule:evenodd;fill:#fff"/>
   </g>
   <g id="layer2" transform="matrix(1.0501 0 0 1.066 -3.5346 -3.3816)">
    <path id="path4555" d="m21.168-1.5002c-16.849 0-16.875 12.653-16.875 12.653v20.705s-0.18506 12.591 16.823 12.591c16.852 0 16.928-12.591 16.928-12.591v-20.705s0.1312-12.653-16.875-12.653z" style="fill-rule:evenodd;fill:#fff;stroke-width:13.717;stroke:#fff"/>
    <path id="path1875" d="m21.568-1.5002c-17.249 0-17.276 12.653-17.276 12.653v20.705s-0.18945 12.591 17.222 12.591c17.252 0 17.329-12.591 17.329-12.591v-20.705s0.13431-12.653-17.276-12.653z" style="fill-rule:evenodd"/>
    <path id="path5971" transform="matrix(1.7276 0 0 1.7018 -37.169 -30.431)" d="m34 16v11" style="fill:none;stroke-width:2;stroke:#fff"/>
   </g>
  </g>
  <path id="path5969" d="m24 26.562 20-0.0625" style="fill:none;stroke-width:3;stroke:#fff"/>
  <rect id="rect2170" width="48" height="48" rx="0" ry="0" style="fill:none;opacity:.6"/>
 </g>
</svg>
