<?xml version="1.0" encoding="UTF-8"?>
<!-- Created with Inkscape (http://www.inkscape.org/) -->
<svg id="svg2387" width="48px" height="48px" xmlns="http://www.w3.org/2000/svg" xmlns:cc="http://creativecommons.org/ns#" xmlns:dc="http://purl.org/dc/elements/1.1/" xmlns:rdf="http://www.w3.org/1999/02/22-rdf-syntax-ns#">
 <metadata id="metadata2392">
  <rdf:RDF>
   <cc:Work rdf:about="">
    <dc:format>image/svg+xml</dc:format>
    <dc:type rdf:resource="http://purl.org/dc/dcmitype/StillImage"/>
    <dc:title>Audio Microphone</dc:title>
    <dc:date>June 2009</dc:date>
    <dc:creator>
     <cc:Agent>
      <dc:title>Luca Ferretti</dc:title>
     </cc:Agent>
    </dc:creator>
    <dc:publisher>
     <cc:Agent>
      <dc:title>gnome.org</dc:title>
     </cc:Agent>
    </dc:publisher>
    <dc:subject>
     <rdf:Bag>
      <rdf:li>audio</rdf:li>
      <rdf:li>input</rdf:li>
      <rdf:li>microphone</rdf:li>
     </rdf:Bag>
    </dc:subject>
    <dc:description>a talk radio style microphone</dc:description>
   </cc:Work>
  </rdf:RDF>
 </metadata>
 <g id="layer1">
  <rect id="rect2387" width="48" height="48" rx="0" ry="0" style="fill:none"/>
  <rect id="rect2394" x="14" y="4" width="20" height="30" rx="10" ry="8.9131" style="fill:#fff;stroke-linecap:round;stroke-linejoin:round;stroke-width:8;stroke:#fff"/>
  <path id="path3161" d="m9 14v9s-1.0312 15 15 15c16 0 15-15 15-15v-9" style="fill:none;stroke-linecap:round;stroke-linejoin:round;stroke-width:12;stroke:#fff"/>
  <rect id="rect2399" x="14" y="4" width="20" height="30" rx="10" ry="8.9131"/>
  <path id="rect2401" d="m23 7h2c3.878 0 6 3.8045 6 7.2881l-1e-6 6.7119h-14l1e-6 -6.7119c0-3.4836 2.122-7.2881 6-7.2881z" style="fill:#fff"/>
  <path id="path3168" d="m10 42h29" style="fill:none;stroke-linecap:round;stroke-width:12;stroke:#fff"/>
  <path id="path3174" d="m10 42h29" style="fill:none;stroke-linecap:round;stroke-width:4;stroke:#000"/>
  <path id="path3159" d="m9 14v9s-1.0312 15 15 15c16 0 15-15 15-15v-9" style="fill:none;stroke-linecap:round;stroke-linejoin:round;stroke-width:4;stroke:#000"/>
  <rect id="rect3163" x="20.778" y="37.775" width="6.2223" height="3.2248"/>
 </g>
</svg>
