<?xml version="1.0" encoding="UTF-8"?>
<!-- Created with Inkscape (http://www.inkscape.org/) -->
<svg id="svg2" width="48px" height="48px" sodipodi:docbase="/home/luca/Desktop/black-and-white/scalable/devices" sodipodi:docname="camera-photo_alt.svg" sodipodi:version="0.32" xmlns="http://www.w3.org/2000/svg" xmlns:cc="http://web.resource.org/cc/" xmlns:dc="http://purl.org/dc/elements/1.1/" xmlns:rdf="http://www.w3.org/1999/02/22-rdf-syntax-ns#" xmlns:sodipodi="http://inkscape.sourceforge.net/DTD/sodipodi-0.dtd">
 <sodipodi:namedview id="base" bordercolor="#666666" borderopacity="1.0" gridoriginx="0.0000000px" gridoriginy="0.0000000px" gridspacingx="1.0000000px" gridspacingy="1.0000000px" gridtolerance="1.0000000px" guidetolerance="1.0000000px" pagecolor="#ffffff" showgrid="true" showguides="true"/>
 <metadata id="metadata7">
  <rdf:RDF>
   <cc:Work rdf:about="">
    <dc:format>image/svg+xml</dc:format>
    <dc:type rdf:resource="http://purl.org/dc/dcmitype/StillImage"/>
    <cc:license rdf:resource="http://creativecommons.org/licenses/GPL/2.0/"/>
    <dc:title>Camera</dc:title>
    <dc:description>A photo camera.</dc:description>
    <dc:contributor>
     <cc:Agent>
      <dc:title>Design based on existing icon in HighContast GNOME icon theme.</dc:title>
     </cc:Agent>
    </dc:contributor>
    <dc:creator>
     <cc:Agent>
      <dc:title>Luca Ferretti &lt;elle.uca@libero.it&gt;</dc:title>
     </cc:Agent>
    </dc:creator>
   </cc:Work>
   <cc:License rdf:about="http://creativecommons.org/licenses/GPL/2.0/">
    <cc:permits rdf:resource="http://web.resource.org/cc/Reproduction"/>
    <cc:permits rdf:resource="http://web.resource.org/cc/Distribution"/>
    <cc:requires rdf:resource="http://web.resource.org/cc/Notice"/>
    <cc:permits rdf:resource="http://web.resource.org/cc/DerivativeWorks"/>
    <cc:requires rdf:resource="http://web.resource.org/cc/ShareAlike"/>
    <cc:requires rdf:resource="http://web.resource.org/cc/SourceCode"/>
   </cc:License>
  </rdf:RDF>
 </metadata>
 <rect id="rect9880" width="48" height="48" ry="0" style="fill:none"/>
 <path id="path9152" d="m5.9529 12.058h9.0524l2-5h14l2 5h9.0524c1.079 0 1.9476 0.86865 1.9476 1.9476l0.10471 24.052c0 1.079-0.86865 1.9476-1.9476 1.9476h-36.105c-1.079 0-1.9476-0.86865-1.9476-1.9476l-0.10471-24.052c0-1.079 0.86865-1.9476 1.9476-1.9476z" style="fill-rule:evenodd;fill:#fff;stroke-width:8;stroke:#fff" sodipodi:nodetypes="ccccccccccccc"/>
 <path id="rect8423" d="m5.9529 12.058h9.0524l2-5h14l2 5h9.0524c1.079 0 1.9476 0.86865 1.9476 1.9476l0.10471 24.052c0 1.079-0.86865 1.9476-1.9476 1.9476h-36.105c-1.079 0-1.9476-0.86865-1.9476-1.9476l-0.10471-24.052c0-1.079 0.86865-1.9476 1.9476-1.9476z" style="fill-rule:evenodd" sodipodi:nodetypes="ccccccccccccc"/>
 <path id="path12070" d="m24.058 16.005c-5.4781 0-9.9432 4.5041-9.9432 10s4.4651 10 9.9432 10 9.9432-4.5041 9.9432-10-4.4651-10-9.9432-10zm0 4.9091c2.7974 0 5.0455 2.2572 5.0455 5.0909-1e-6 2.8337-2.248 5.0909-5.0455 5.0909-2.7974 1e-6 -5.0455-2.2572-5.0455-5.0909s2.248-5.0909 5.0455-5.0909z" style="fill-rule:evenodd;fill:#fff" sodipodi:nodetypes="cszzscsssc"/>
</svg>
