<?xml version="1.0" encoding="UTF-8"?>
<!-- Created with Inkscape (http://www.inkscape.org/) -->
<svg id="svg3304" width="48px" height="48px" xmlns="http://www.w3.org/2000/svg" xmlns:cc="http://creativecommons.org/ns#" xmlns:dc="http://purl.org/dc/elements/1.1/" xmlns:rdf="http://www.w3.org/1999/02/22-rdf-syntax-ns#">
 <metadata id="metadata3309">
  <rdf:RDF>
   <cc:Work rdf:about="">
    <dc:format>image/svg+xml</dc:format>
    <dc:type rdf:resource="http://purl.org/dc/dcmitype/StillImage"/>
    <dc:title>Computer</dc:title>
    <dc:creator>
     <cc:Agent>
      <dc:title>Luca Ferretti &lt;elle.uca@libero.it&gt;</dc:title>
     </cc:Agent>
    </dc:creator>
    <cc:license rdf:resource="http://creativecommons.org/licenses/GPL/2.0/"/>
    <dc:subject>
     <rdf:Bag>
      <rdf:li>computer</rdf:li>
     </rdf:Bag>
    </dc:subject>
    <dc:date>June 2009</dc:date>
   </cc:Work>
   <cc:License rdf:about="http://creativecommons.org/licenses/GPL/2.0/">
    <cc:permits rdf:resource="http://web.resource.org/cc/Reproduction"/>
    <cc:permits rdf:resource="http://web.resource.org/cc/Distribution"/>
    <cc:requires rdf:resource="http://web.resource.org/cc/Notice"/>
    <cc:permits rdf:resource="http://web.resource.org/cc/DerivativeWorks"/>
    <cc:requires rdf:resource="http://web.resource.org/cc/ShareAlike"/>
    <cc:requires rdf:resource="http://web.resource.org/cc/SourceCode"/>
   </cc:License>
  </rdf:RDF>
 </metadata>
 <g id="layer1">
  <rect id="rect5087" width="48" height="48" style="fill:none"/>
  <path id="path3219" d="m9 42h30s-1.9804-11-15-11c-13.02 0-15 11-15 11z" style="fill-rule:evenodd;fill:#fff;stroke-linecap:round;stroke-linejoin:round;stroke-width:12;stroke:#fff"/>
  <rect id="rect4784" width="48" height="48" style="fill:none"/>
  <path id="path3180" d="m8 4h32c2.0251 0 4 1.8015 4 4v22h-40v-22c0-1.7738 2.1636-4 4-4z" style="fill-rule:evenodd;fill:#fff;stroke-linecap:round;stroke-linejoin:round;stroke-width:8;stroke:#fff"/>
  <path id="path2175" d="m8 4h32c2.0251 0 4 1.8015 4 4v22h-40v-22c0-1.7738 2.1636-4 4-4z" style="fill-rule:evenodd"/>
  <rect id="rect4355" x="8" y="8" width="32" height="18" style="fill-rule:evenodd;fill:#fff"/>
  <path id="path3217" d="m9 42h30s-1.9804-11-15-11c-13.02 0-15 11-15 11z" style="fill:none;stroke-linecap:round;stroke-linejoin:round;stroke-width:4;stroke:#000"/>
 </g>
</svg>
