<?xml version="1.0" encoding="UTF-8"?>
<!-- Created with Inkscape (http://www.inkscape.org/) -->
<svg id="svg2" width="48px" height="48px" sodipodi:docbase="/home/luca/Desktop/black-and-white/scalable/devices" sodipodi:docname="drive-removable-media.svg" sodipodi:version="0.32" xmlns="http://www.w3.org/2000/svg" xmlns:cc="http://web.resource.org/cc/" xmlns:dc="http://purl.org/dc/elements/1.1/" xmlns:rdf="http://www.w3.org/1999/02/22-rdf-syntax-ns#" xmlns:sodipodi="http://inkscape.sourceforge.net/DTD/sodipodi-0.dtd">
 <sodipodi:namedview id="base" bordercolor="#666666" borderopacity="1.0" gridoriginx="0.0000000px" gridoriginy="0.0000000px" gridspacingx="1.0000000px" gridspacingy="1.0000000px" gridtolerance="1.0000000px" guidetolerance="1.0000000px" pagecolor="#ffffff" showgrid="true"/>
 <metadata id="metadata7">
  <rdf:RDF>
   <cc:Work rdf:about="">
    <dc:format>image/svg+xml</dc:format>
    <dc:type rdf:resource="http://purl.org/dc/dcmitype/StillImage"/>
    <cc:license rdf:resource="http://creativecommons.org/licenses/GPL/2.0/"/>
    <dc:title>Hard disk</dc:title>
    <dc:creator>
     <cc:Agent>
      <dc:title>Luca Ferretti &lt;elle.uca@libero.it&gt;</dc:title>
     </cc:Agent>
    </dc:creator>
    <dc:contributor>
     <cc:Agent>
      <dc:title>Shape based on exising PNG icon in gnome-icon-theme</dc:title>
     </cc:Agent>
    </dc:contributor>
    <dc:subject>
     <rdf:Bag>
      <rdf:li>hard disk</rdf:li>
     </rdf:Bag>
    </dc:subject>
   </cc:Work>
   <cc:License rdf:about="http://creativecommons.org/licenses/GPL/2.0/">
    <cc:permits rdf:resource="http://web.resource.org/cc/Reproduction"/>
    <cc:permits rdf:resource="http://web.resource.org/cc/Distribution"/>
    <cc:requires rdf:resource="http://web.resource.org/cc/Notice"/>
    <cc:permits rdf:resource="http://web.resource.org/cc/DerivativeWorks"/>
    <cc:requires rdf:resource="http://web.resource.org/cc/ShareAlike"/>
    <cc:requires rdf:resource="http://web.resource.org/cc/SourceCode"/>
   </cc:License>
  </rdf:RDF>
 </metadata>
 <g id="layer1">
  <rect id="rect6226" width="48" height="48" rx="0" ry="0" style="fill:none"/>
  <path id="path4040" d="m9 10h30c2.7429 0 5 2.2571 5 5v18c0 2.7429-2.2571 5-5 5h-30c-2.7429 0-5-2.2571-5-5v-18c0-2.7429 2.2571-5 5-5z" style="fill-rule:evenodd;fill:#fff;stroke-width:8;stroke:#fff" sodipodi:nodetypes="ccccccccc"/>
  <path id="rect3311" d="m9 10h30c2.7429 0 5 2.2571 5 5v18c0 2.7429-2.2571 5-5 5h-30c-2.7429 0-5-2.2571-5-5v-18c0-2.7429 2.2571-5 5-5z" style="fill-rule:evenodd" sodipodi:nodetypes="ccccccccc"/>
  <path id="path4768" d="m11 14h26c2 0 3 1 3 3v14c0 2-1 3-3 3h-26c-2 0-3-1-3-3v-14c0-2 1-3 3-3z" style="fill-rule:evenodd;fill:#fff" sodipodi:nodetypes="ccccccccc"/>
  <rect id="rect5498" x="12" y="18" width="24" height="6" rx="2" ry="2" style="fill-rule:evenodd"/>
 </g>
</svg>
