<?xml version="1.0" encoding="UTF-8"?>
<!-- Created with Inkscape (http://www.inkscape.org/) -->
<svg id="svg5498" width="48px" height="48px" xmlns="http://www.w3.org/2000/svg" xmlns:cc="http://web.resource.org/cc/" xmlns:dc="http://purl.org/dc/elements/1.1/" xmlns:rdf="http://www.w3.org/1999/02/22-rdf-syntax-ns#">
 <metadata id="metadata5503">
  <rdf:RDF>
   <cc:Work rdf:about="">
    <dc:format>image/svg+xml</dc:format>
    <dc:type rdf:resource="http://purl.org/dc/dcmitype/StillImage"/>
    <dc:title>Mouse</dc:title>
    <dc:creator>
     <cc:Agent>
      <dc:title>Luca Ferretti &lt;elle.uca@libero.it&gt;</dc:title>
     </cc:Agent>
    </dc:creator>
    <dc:subject>
     <rdf:Bag>
      <rdf:li>mouse input device</rdf:li>
     </rdf:Bag>
    </dc:subject>
    <dc:description>A stylized mouse</dc:description>
    <cc:license rdf:resource="http://creativecommons.org/licenses/LGPL/2.1/"/>
   </cc:Work>
   <cc:License rdf:about="http://creativecommons.org/licenses/LGPL/2.1/">
    <cc:permits rdf:resource="http://web.resource.org/cc/Reproduction"/>
    <cc:permits rdf:resource="http://web.resource.org/cc/Distribution"/>
    <cc:requires rdf:resource="http://web.resource.org/cc/Notice"/>
    <cc:permits rdf:resource="http://web.resource.org/cc/DerivativeWorks"/>
    <cc:requires rdf:resource="http://web.resource.org/cc/ShareAlike"/>
    <cc:requires rdf:resource="http://web.resource.org/cc/SourceCode"/>
   </cc:License>
  </rdf:RDF>
 </metadata>
 <g id="layer1" style="display:none">
  <path id="path5587" d="m37.174 21.717a13.533 11.674 0 1 1-27.065 0 13.533 11.674 0 1 1 27.065 0z" style="fill-rule:evenodd"/>
  <path id="path6474" transform="translate(0 11.609)" d="m37.174 21.717a13.533 11.674 0 1 1-27.065 0 13.533 11.674 0 1 1 27.065 0z" style="fill-rule:evenodd"/>
  <rect id="rect6476" x="10" y="22" width="27.174" height="12.043" rx="0" ry="0" style="fill-rule:evenodd"/>
  <path id="path7363" transform="translate(-1.087)" d="m14.348 22.043a8.7391 8.7391 0 0 1 8.7391-8.7391v8.7391z" style="fill-rule:evenodd;fill:#fff"/>
  <path id="path8250" transform="matrix(-1 0 0 1 48.348 0)" d="m14.348 22.043a8.7391 8.7391 0 0 1 8.7391-8.7391v8.7391z" style="fill-rule:evenodd;fill:#fff"/>
  <path id="path8252" d="m13 24h21v10s-0.13617 7-10 7c-9.9449 0-11-7-11-7v-10" style="fill-rule:evenodd;fill:#fff"/>
 </g>
 <g id="layer2">
  <path id="path4555" d="m24.043 4.0543c-13.978 0-14 11-14 11v18s-0.15353 10.946 13.957 10.946c13.981 0 14.043-10.946 14.043-10.946v-18s0.10885-11-14-11z" style="fill-rule:evenodd;fill:#fff;stroke-width:8;stroke:#fff"/>
  <path id="path1875" d="m24.043 4.0543c-13.978 0-14 11-14 11v18s-0.15353 10.946 13.957 10.946c13.981 0 14.043-10.946 14.043-10.946v-18s0.10885-11-14-11z" style="fill-rule:evenodd"/>
  <path id="path3663" transform="matrix(-1 0 0 1 48.37 1.0217)" d="m14.37 15.978c0-5 3-9 8-9v9h-8z" style="fill-rule:evenodd;fill:#fff"/>
  <path id="path3665" d="m14 21h20v11s0.98 8-10 8c-10.915 0-10-8-10-8v-11z" style="fill-rule:evenodd;fill:#fff"/>
  <path id="path4553" d="m14 17c0-5 3-9 8-9v9h-8z" style="fill-rule:evenodd;fill:#fff"/>
 </g>
</svg>
