<?xml version="1.0" encoding="UTF-8"?>
<!-- Created with Inkscape (http://www.inkscape.org/) -->
<svg id="svg2" width="48" height="48" version="1.0" xmlns="http://www.w3.org/2000/svg" xmlns:cc="http://creativecommons.org/ns#" xmlns:dc="http://purl.org/dc/elements/1.1/" xmlns:rdf="http://www.w3.org/1999/02/22-rdf-syntax-ns#">
 <metadata id="metadata7">
  <rdf:RDF>
   <cc:Work rdf:about="">
    <dc:format>image/svg+xml</dc:format>
    <dc:type rdf:resource="http://purl.org/dc/dcmitype/StillImage"/>
    <dc:title>Network Wireless</dc:title>
    <dc:date>December 2008</dc:date>
    <dc:creator>
     <cc:Agent>
      <dc:title>Luca Ferretti &lt;elle.uca@libero.it&gt;</dc:title>
     </cc:Agent>
    </dc:creator>
    <dc:subject>
     <rdf:Bag>
      <rdf:li>network</rdf:li>
      <rdf:li>wireless</rdf:li>
      <rdf:li>antenna</rdf:li>
     </rdf:Bag>
    </dc:subject>
    <dc:description>An antenna with EM waves</dc:description>
   </cc:Work>
  </rdf:RDF>
 </metadata>
 <g id="layer1">
  <rect id="rect3169" width="48" height="48" style="fill:none"/>
  <path id="path3201" d="m20 34 12 7-8-18-8 18" style="fill:none;stroke-linecap:round;stroke-linejoin:round;stroke-width:12;stroke:#fff"/>
  <path id="path3199" transform="matrix(-1 0 0 1 51.85 .13948)" d="m36.35 11.406a14 14 0 0 1 0.14379 12.912" style="fill:none;stroke-linecap:round;stroke-linejoin:round;stroke-width:11;stroke:#fff"/>
  <path id="path3177" transform="matrix(-1 0 0 1 49.123 -.4214)" d="m39.064 6.4214a19 19 0 0 1 0.17564 22.925" style="fill:none;stroke-linecap:round;stroke-linejoin:round;stroke-width:12;stroke:#fff"/>
  <path id="path3175" transform="translate(-1.0659 -.4214)" d="m39.064 6.4214a19 19 0 0 1 0.17564 22.925" style="fill:none;stroke-linecap:round;stroke-linejoin:round;stroke-width:12;stroke:#fff"/>
  <path id="path3173" transform="translate(-3.6001 .13948)" d="m36.35 11.406a14 14 0 0 1 0.14379 12.912" style="fill:none;stroke-linecap:round;stroke-linejoin:round;stroke-width:11;stroke:#fff"/>
  <path id="path3171" transform="translate(0,-6)" d="m29 24a5 5 0 1 1-10 0 5 5 0 1 1 10 0z" style="fill:#fff;stroke-linecap:round;stroke-linejoin:round;stroke-width:8;stroke:#fff"/>
  <path id="path2385" transform="translate(0,-6)" d="m29 24a5 5 0 1 1-10 0 5 5 0 1 1 10 0z"/>
  <path id="path3157" d="m20 34 12 7-8-18-8 18" style="fill:none;stroke-linecap:round;stroke-linejoin:round;stroke-width:4;stroke:#000"/>
  <path id="path3159" transform="translate(-3.6001 .13948)" d="m36.35 11.406a14 14 0 0 1 0.14379 12.912" style="fill:none;stroke-linecap:round;stroke-linejoin:round;stroke-width:3;stroke:#000"/>
  <path id="path3163" transform="matrix(-1 0 0 1 51.6 .13948)" d="m36.43 11.558a14 14 0 0 1 0.099887 12.688" style="fill:none;stroke-linecap:round;stroke-linejoin:round;stroke-width:3;stroke:#000"/>
  <path id="path3165" transform="translate(-1.0659 -.4214)" d="m39.064 6.4214a19 19 0 0 1 0.17564 22.925" style="fill:none;stroke-linecap:round;stroke-linejoin:round;stroke-width:4;stroke:#000"/>
  <path id="path3167" transform="matrix(-1 0 0 1 49.24 -.34642)" d="m39.064 6.4214a19 19 0 0 1 0.17564 22.925" style="fill:none;stroke-linecap:round;stroke-linejoin:round;stroke-width:4;stroke:#000"/>
 </g>
</svg>
