<?xml version="1.0" encoding="UTF-8"?>
<!-- Created with Inkscape (http://www.inkscape.org/) -->
<svg id="svg3304" width="48px" height="48px" xmlns="http://www.w3.org/2000/svg" xmlns:cc="http://web.resource.org/cc/" xmlns:dc="http://purl.org/dc/elements/1.1/" xmlns:rdf="http://www.w3.org/1999/02/22-rdf-syntax-ns#">
 <metadata id="metadata3309">
  <rdf:RDF>
   <cc:Work rdf:about="">
    <dc:format>image/svg+xml</dc:format>
    <dc:type rdf:resource="http://purl.org/dc/dcmitype/StillImage"/>
    <dc:title>Phone</dc:title>
    <dc:creator>
     <cc:Agent>
      <dc:title>Andreas Nilsson</dc:title>
     </cc:Agent>
    </dc:creator>
    <dc:subject>
     <rdf:Bag>
      <rdf:li>phone</rdf:li>
      <rdf:li>mobile</rdf:li>
     </rdf:Bag>
    </dc:subject>
    <cc:license rdf:resource="http://creativecommons.org/licenses/LGPL/2.1/"/>
   </cc:Work>
   <cc:License rdf:about="http://creativecommons.org/licenses/LGPL/2.1/">
    <cc:permits rdf:resource="http://web.resource.org/cc/Reproduction"/>
    <cc:permits rdf:resource="http://web.resource.org/cc/Distribution"/>
    <cc:requires rdf:resource="http://web.resource.org/cc/Notice"/>
    <cc:permits rdf:resource="http://web.resource.org/cc/DerivativeWorks"/>
    <cc:requires rdf:resource="http://web.resource.org/cc/ShareAlike"/>
    <cc:requires rdf:resource="http://web.resource.org/cc/SourceCode"/>
   </cc:License>
  </rdf:RDF>
 </metadata>
 <rect id="rect2171" width="48" height="48.4" style="fill:none"/>
 <g id="layer1">
  <g id="g4956" transform="translate(.14286 .14286)">
   <rect id="rect5576" x="26.857" y="-.13773" width="14.047" height="12.995" rx="2.7006" ry="2.9797" style="fill:#fff"/>
   <rect id="rect6226" width="48" height="48" rx="0" ry="0" style="fill:none"/>
   <path id="path4768" d="m11 14h26c2 0 3 1 3 3v14c0 2-1 3-3 3h-26c-2 0-3-1-3-3v-14c0-2 1-3 3-3z" style="fill-rule:evenodd;fill:#fff"/>
   <rect id="rect4965" x="6.8571" y="4.9257" width="34" height="42.931" rx="3.4912" ry="3.7451" style="fill:#fff"/>
   <rect id="rect4967" x="10.857" y="9.8883" width="26" height="33.969" rx="2.7079" ry="3.0483"/>
   <rect id="rect5574" x="30.877" y="3.8517" width="5.9797" height="11.005" rx="2.0406" ry="1.9889"/>
   <rect id="rect4969" x="13.857" y="12.857" width="20" height="13" rx="1.7916" ry="1.8966" style="fill:#fff"/>
   <rect id="rect4971" x="14.055" y="27.857" width="19.74" height="12.995" rx="0" ry="0" style="fill:#fff"/>
   <path id="path4973" d="m18.938 27.562v13.642h2v-13.642h-2z" style="fill-rule:evenodd"/>
   <path id="path5552" d="m26.844 27.796v13.642h2v-13.642h-2z" style="fill-rule:evenodd"/>
   <path id="path5554" d="m12.469 30.906v2h23.156v-2h-23.156z" style="fill-rule:evenodd"/>
   <path id="path5556" d="m11.812 35.857v2.1116h23.156v-2.1116h-23.156z" style="fill-rule:evenodd"/>
  </g>
 </g>
</svg>
