<?xml version="1.0" encoding="UTF-8"?>
<!-- Generator: Adobe Illustrator 9.0, SVG Export Plug-In  -->
<svg id="svg2" width="48" height="48" sodipodi:docbase="/home/luca/Artwork/blackwhite-icon-theme/scalable/devices" sodipodi:docname="printer.svg" sodipodi:version="0.32" version="1.0" viewBox="0 0 48 48" xml:space="preserve" xmlns="http://www.w3.org/2000/svg" xmlns:cc="http://web.resource.org/cc/" xmlns:dc="http://purl.org/dc/elements/1.1/" xmlns:rdf="http://www.w3.org/1999/02/22-rdf-syntax-ns#" xmlns:sodipodi="http://inkscape.sourceforge.net/DTD/sodipodi-0.dtd"><metadata id="metadata31"><rdf:RDF><cc:Work rdf:about=""><dc:format>image/svg+xml</dc:format><dc:type rdf:resource="http://purl.org/dc/dcmitype/StillImage"/></cc:Work></rdf:RDF></metadata><sodipodi:namedview id="base" bordercolor="#666666" borderopacity="1.0" pagecolor="#ffffff" showgrid="true"/>
	<rect id="rect3981" width="48" height="48" rx="0" ry="0" style="fill:none"/><g id="g3100" style="fill:#fff;stroke-width:8;stroke:#fff"><path id="path3102" d="m41 42c0 0.4-0.6 1-1 1h-32c-0.4 0-1-0.6-1-1v-2c0-0.4 0.5-0.7 0.9-0.7h31.9c0.4 0 1.2 0.3 1.2 0.7v2z" style="fill:#fff;stroke-linejoin:round;stroke-width:8;stroke:#fff" sodipodi:nodetypes="ccccccccc"/><path id="path3104" d="m44 39c0 0.4-0.6 1-1 1h-38c-0.4 0-1-0.6-1-1v-14c0-0.4 0.6-1 1-1h38c0.4 0 1 0.6 1 1v14z" style="fill:#fff;stroke-linejoin:round;stroke-width:8;stroke:#fff" sodipodi:nodetypes="ccccccccc"/><path id="path3106" d="m12 4c-3 0-4 2-4 4v18h32v-18c0-2-1-4-4-4h-24z" style="fill:#fff;stroke-linejoin:round;stroke-width:8;stroke:#fff" sodipodi:nodetypes="ccccccc"/></g><g id="g3095"><path id="path13" d="m41 42c0 0.4-0.6 1-1 1h-32c-0.4 0-1-0.6-1-1v-2c0-0.4 0.5-0.7 0.9-0.7h31.9c0.4 0 1.2 0.3 1.2 0.7v2z" sodipodi:nodetypes="ccccccccc"/><path id="path15" d="m44 39c0 0.4-0.6 1-1 1h-38c-0.4 0-1-0.6-1-1v-14c0-0.4 0.6-1 1-1h38c0.4 0 1 0.6 1 1v14z" sodipodi:nodetypes="ccccccccc"/><path id="path17" d="m12 4c-3 0-4 2-4 4v18h32v-18c0-2-1-4-4-4h-24z" sodipodi:nodetypes="ccccccc"/></g><path id="path19" d="m36 24h-24v-15s0-1 1-1h22c1 0 1 1 1 1v15z" style="fill:#fff" sodipodi:nodetypes="ccccccc"/>
	
<path id="path1315" d="m11 37h26" style="fill-rule:evenodd;fill:#fff;stroke-width:4;stroke:#fff" sodipodi:nodetypes="cc"/></svg>
