<?xml version="1.0" encoding="UTF-8"?>
<!-- Generator: Adobe Illustrator 9.0, SVG Export Plug-In  -->
<svg id="svg1358" width="48px" height="48px" sodipodi:docbase="/home/luca/Artwork/blackwhite-icon-theme/scalable/places" sodipodi:docname="folder.svg" sodipodi:version="0.32" viewBox="0 0 48 48" xml:space="preserve" xmlns="http://www.w3.org/2000/svg" xmlns:cc="http://web.resource.org/cc/" xmlns:dc="http://purl.org/dc/elements/1.1/" xmlns:rdf="http://www.w3.org/1999/02/22-rdf-syntax-ns#" xmlns:sodipodi="http://inkscape.sourceforge.net/DTD/sodipodi-0.dtd">
<metadata id="metadata1375">
  <rdf:RDF>
    <cc:Work rdf:about="">
      <dc:format>image/svg+xml</dc:format>
      <dc:type rdf:resource="http://purl.org/dc/dcmitype/StillImage"/>
      <dc:title>Folder Icon</dc:title>
      <dc:description>A folder</dc:description>
      <cc:license rdf:resource="http://creativecommons.org/licenses/LGPL/2.1/"/>
      <dc:contributor>
        <cc:Agent>
          <dc:title/>
        </cc:Agent>
      </dc:contributor>
      <dc:subject>
        <rdf:Bag>
          <rdf:li>folder</rdf:li>
          <rdf:li>directory</rdf:li>
        </rdf:Bag>
      </dc:subject>
    </cc:Work>
    <cc:License rdf:about="http://creativecommons.org/licenses/LGPL/2.1/"><cc:permits rdf:resource="http://web.resource.org/cc/Reproduction"/><cc:permits rdf:resource="http://web.resource.org/cc/Distribution"/><cc:requires rdf:resource="http://web.resource.org/cc/Notice"/><cc:permits rdf:resource="http://web.resource.org/cc/DerivativeWorks"/><cc:requires rdf:resource="http://web.resource.org/cc/ShareAlike"/><cc:requires rdf:resource="http://web.resource.org/cc/SourceCode"/></cc:License></rdf:RDF></metadata><sodipodi:namedview id="base" bordercolor="#666666" borderopacity="1.0" gridempspacing="5" gridoriginx="0.0000000px" gridoriginy="0.0000000px" gridspacingx="1.0000000px" gridspacingy="1.0000000px" gridtolerance="0.50000000px" guidetolerance="0.50000000px" pagecolor="#ffffff" showgrid="true" showguides="true"/>
	<rect id="rect4762" width="48" height="48" style="fill:none"/><path id="path9126" d="m7 6c-2 0-3 1-3 3v25c0 2 2 4 4 4h32c2 0 4-2 4-4v-18c0-2-2-4-4-4h-18v-3c0-2-1-3-3-3h-12z" style="fill:#fff;stroke-linecap:round;stroke-linejoin:round;stroke-width:8;stroke:#fff" sodipodi:nodetypes="cccccccccccc"/><path id="path1365" d="m7 6c-2 0-3 1-3 3v25c0 2 2 4 4 4h32c2 0 4-2 4-4v-18c0-2-2-4-4-4h-18v-3c0-2-1-3-3-3h-12z" sodipodi:nodetypes="cccccccccccc"/>
	
<path id="path1306" d="m9 14h8v4h22" style="fill:none;stroke-linecap:round;stroke-linejoin:round;stroke-width:4;stroke:#fff" sodipodi:nodetypes="cccc"/></svg>
