<?xml version="1.0" encoding="UTF-8"?>
<!-- Generator: Adobe Illustrator 9.0, SVG Export Plug-In  -->
<svg id="svg2" width="48" height="48" sodipodi:docbase="/home/luca/Artwork/blackwhite-icon-theme/scalable/places" sodipodi:docname="user-trash.svg" sodipodi:version="0.32" version="1.0" viewBox="0 0 48 48" xml:space="preserve" xmlns="http://www.w3.org/2000/svg" xmlns:cc="http://web.resource.org/cc/" xmlns:dc="http://purl.org/dc/elements/1.1/" xmlns:rdf="http://www.w3.org/1999/02/22-rdf-syntax-ns#" xmlns:sodipodi="http://inkscape.sourceforge.net/DTD/sodipodi-0.dtd"><metadata id="metadata23"><rdf:RDF><cc:Work rdf:about=""><dc:format>image/svg+xml</dc:format><dc:type rdf:resource="http://purl.org/dc/dcmitype/StillImage"/><dc:title>Empty Trash Icon</dc:title><dc:subject><rdf:Bag><rdf:li>trash</rdf:li><rdf:li>delete</rdf:li><rdf:li>deleted files</rdf:li><rdf:li>waste</rdf:li><rdf:li>recycle</rdf:li><rdf:li>bin</rdf:li><rdf:li>empty</rdf:li></rdf:Bag></dc:subject><dc:description>An empty trash bin</dc:description><cc:license rdf:resource="http://creativecommons.org/licenses/LGPL/2.1/"/></cc:Work><cc:License rdf:about="http://creativecommons.org/licenses/LGPL/2.1/"><cc:permits rdf:resource="http://web.resource.org/cc/Reproduction"/><cc:permits rdf:resource="http://web.resource.org/cc/Distribution"/><cc:requires rdf:resource="http://web.resource.org/cc/Notice"/><cc:permits rdf:resource="http://web.resource.org/cc/DerivativeWorks"/><cc:requires rdf:resource="http://web.resource.org/cc/ShareAlike"/><cc:requires rdf:resource="http://web.resource.org/cc/SourceCode"/></cc:License></rdf:RDF></metadata><sodipodi:namedview id="base" bordercolor="#666666" borderopacity="1.0" pagecolor="#ffffff" showgrid="true"/>
	<rect id="rect1333" width="48" height="48" rx="0" ry=".046648" style="fill:none"/><path id="path2208" d="m23 6.5258c-7.9 0-14 3.0742-14 6.4742v24c0 3.4 7.1 7 15 7s15-2.6 15-6v-25c0-3.4-7.1-6.5-15-6.5l-1 0.025819z" style="fill:#fff;stroke-linejoin:round;stroke-width:8;stroke:#fff" sodipodi:nodetypes="cccscccc"/><path id="path3083" d="m24 5c-8.8 0-17 3.1-17 7v6c0 3.9 8.2 6.8 17 6.8s17-2.9 17-6.8v-6c0-3.9-8.2-7-17-7z" style="fill:#fff;stroke-linejoin:round;stroke-width:8;stroke:#fff" sodipodi:nodetypes="cccsccc"/><path id="path11" d="m23 6.5258c-7.9 0-14 3.0742-14 6.4742v24c0 3.4 7.1 7 15 7s15-2.6 15-6v-25c0-3.4-7.1-6.5-15-6.5l-1 0.025819z" sodipodi:nodetypes="cccscccc"/><path id="path13" d="m24 5c-8.8 0-17 3.1-17 7v6c0 3.9 8.2 6.8 17 6.8s17-2.9 17-6.8v-6c0-3.9-8.2-7-17-7z" sodipodi:nodetypes="cccsccc"/><path id="path15" d="m36 13c0 2.3-5.6 4-12 4s-12-1.8-12-4c0-2.3 5.6-4 12-4s12 1.8 12 4z" style="fill:#fff" sodipodi:nodetypes="csssc"/>
	<g id="crop_x0020_marks" style="stroke:#000">
		<path id="path18" d="m48 48h-48v-48h48v48z" style="fill:none;stroke:none"/>
	</g>
</svg>
