<?xml version="1.0" encoding="UTF-8"?>
<!-- Generator: Adobe Illustrator 9.0, SVG Export Plug-In  -->
<svg id="svg2" width="48" height="48" sodipodi:docbase="/home/luca/Artwork/blackwhite-icon-theme/scalable/mimetypes" sodipodi:docname="application-x-executable.svg" sodipodi:version="0.32" version="1.0" viewBox="0 0 48 48" xml:space="preserve" xmlns="http://www.w3.org/2000/svg" xmlns:cc="http://web.resource.org/cc/" xmlns:dc="http://purl.org/dc/elements/1.1/" xmlns:rdf="http://www.w3.org/1999/02/22-rdf-syntax-ns#" xmlns:sodipodi="http://inkscape.sourceforge.net/DTD/sodipodi-0.dtd"><metadata id="metadata17"><rdf:RDF><cc:Work rdf:about=""><dc:format>image/svg+xml</dc:format><dc:type rdf:resource="http://purl.org/dc/dcmitype/StillImage"/></cc:Work></rdf:RDF></metadata><sodipodi:namedview id="base" bordercolor="#666666" borderopacity="1.0" pagecolor="#ffffff" showgrid="true"/>
	<path id="path12" d="m48 48h-48v-48h48v48z" style="fill:none"/><path id="path7" d="m42.8 22.9-2.4-8.1-5.6 1.6c-1.1-1.6-2.7-3-4.4-4l0.9-5.5-9.2-1.2-0.8 5.3c-0.3 0.1-0.7 0.2-1 0.3-1.2 0.3-2.3 0.9-3.3 1.5l-4.3-3.3-5.7 6.9 4.5 3.5c-0.4 1.1-0.6 2.3-0.6 3.6l-5.6 1.6 2.4 8.1 5.6-1.6c1.1 1.6 2.7 3 4.4 4l-0.9 5.5 9.2 1.2 0.8-5.3c0.3-0.1 0.7-0.2 1-0.3 1.2-0.3 2.3-0.9 3.3-1.5l4.3 3.3 5.7-6.9-4.5-3.5c0.4-1.1 0.6-2.3 0.6-3.6l5.6-1.6zm-17.5 5.9c-2.8 0.8-5.8-0.8-6.7-3.6s0.8-5.8 3.6-6.7c2.8-0.8 5.8 0.8 6.7 3.6 0.8 2.8-0.8 5.8-3.6 6.7z" style="fill:none;stroke-linejoin:round;stroke-width:7.4578;stroke:#fff"/><path id="path9" d="m42.8 22.9-2.4-8.1-5.6 1.6c-1.1-1.6-2.7-3-4.4-4l0.9-5.5-9.2-1.2-0.8 5.3c-0.3 0.1-0.7 0.2-1 0.3-1.2 0.3-2.3 0.9-3.3 1.5l-4.3-3.3-5.7 6.9 4.5 3.5c-0.4 1.1-0.6 2.3-0.6 3.6l-5.6 1.6 2.4 8.1 5.6-1.6c1.1 1.6 2.7 3 4.4 4l-0.9 5.5 9.2 1.2 0.8-5.3c0.3-0.1 0.7-0.2 1-0.3 1.2-0.3 2.3-0.9 3.3-1.5l4.3 3.3 5.7-6.9-4.5-3.5c0.4-1.1 0.6-2.3 0.6-3.6l5.6-1.6zm-17.5 5.9c-2.8 0.8-5.8-0.8-6.7-3.6s0.8-5.8 3.6-6.7c2.8-0.8 5.8 0.8 6.7 3.6 0.8 2.8-0.8 5.8-3.6 6.7z"/>
	
</svg>
