<?xml version="1.0" encoding="UTF-8"?>
<!-- Generator: Adobe Illustrator 9.0, SVG Export Plug-In  -->
<svg id="svg2" width="48" height="48" sodipodi:docbase="/home/luca/Artwork/blackwhite-icon-theme/scalable/mimetypes" sodipodi:docname="font-x-generic.svg" sodipodi:version="0.32" version="1.0" viewBox="0 0 48 48" xml:space="preserve" xmlns="http://www.w3.org/2000/svg" xmlns:cc="http://web.resource.org/cc/" xmlns:dc="http://purl.org/dc/elements/1.1/" xmlns:rdf="http://www.w3.org/1999/02/22-rdf-syntax-ns#" xmlns:sodipodi="http://inkscape.sourceforge.net/DTD/sodipodi-0.dtd"><metadata id="metadata27"><rdf:RDF><cc:Work rdf:about=""><dc:format>image/svg+xml</dc:format><dc:type rdf:resource="http://purl.org/dc/dcmitype/StillImage"/></cc:Work></rdf:RDF></metadata><sodipodi:namedview id="base" bordercolor="#666666" borderopacity="1.0" pagecolor="#ffffff" showgrid="true"/>
	<rect id="rect1341" width="48" height="48" rx="0" ry="0" style="fill:none"/><g id="g7" style="stroke:#000">
				<g id="g9">
					<path id="path11" d="m18 30.9-2.8 7.2h-9.2l12.1-28.2h11.6l12.3 28.2h-9.6l-3-7.2h-11.4zm10-4.8s-3.8-9.8-4.4-11.4h-0.2c-0.5 1.7-4.2 11.4-4.2 11.4h8.8z" style="stroke:none"/>
				</g>
				
			</g><g id="g3089" style="fill:#fff;stroke-width:12;stroke:#fff">
				<path id="path3091" d="m15 38h-9l12-28h12l12 28h-9l-3-7-12-0.1-3 7.1zm14-12s-3.4-9.4-4-11h-2c-0.5 1.7-4 11-4 11h10z" style="fill:#fff;stroke-linejoin:round;stroke-width:12;stroke:#fff" sodipodi:nodetypes="cccccccccccccc"/>
			</g><g id="g17" style="stroke-width:4;stroke:#000">
				<path id="path19" d="m15 38h-9l12-28h12l12 28h-9l-3-7-12-0.1-3 7.1zm14-12s-3.4-9.4-4-11h-2c-0.5 1.7-4 11-4 11h10z" style="stroke-linejoin:round;stroke-width:4" sodipodi:nodetypes="cccccccccccccc"/>
			</g>
	
</svg>
