<?xml version="1.0" encoding="UTF-8"?>
<!-- Generator: Adobe Illustrator 9.0, SVG Export Plug-In  -->
<svg id="svg2" width="48px" height="48px" sodipodi:docbase="/home/luca/Artwork/blackwhite-icon-theme/scalable/mimetypes" sodipodi:docname="text-html.svg" sodipodi:version="0.32" viewBox="0 0 48 48" xml:space="preserve" xmlns="http://www.w3.org/2000/svg" xmlns:cc="http://web.resource.org/cc/" xmlns:dc="http://purl.org/dc/elements/1.1/" xmlns:rdf="http://www.w3.org/1999/02/22-rdf-syntax-ns#" xmlns:sodipodi="http://inkscape.sourceforge.net/DTD/sodipodi-0.dtd"><metadata id="metadata19"><rdf:RDF><cc:Work rdf:about=""><dc:format>image/svg+xml</dc:format><dc:type rdf:resource="http://purl.org/dc/dcmitype/StillImage"/><dc:title>Document new</dc:title><dc:creator><cc:Agent><dc:title>Jakub Stainer</dc:title></cc:Agent></dc:creator><cc:license rdf:resource="http://creativecommons.org/licenses/GPL/2.0/"/></cc:Work><cc:License rdf:about="http://creativecommons.org/licenses/GPL/2.0/"><cc:permits rdf:resource="http://web.resource.org/cc/Reproduction"/><cc:permits rdf:resource="http://web.resource.org/cc/Distribution"/><cc:requires rdf:resource="http://web.resource.org/cc/Notice"/><cc:permits rdf:resource="http://web.resource.org/cc/DerivativeWorks"/><cc:requires rdf:resource="http://web.resource.org/cc/ShareAlike"/><cc:requires rdf:resource="http://web.resource.org/cc/SourceCode"/></cc:License></rdf:RDF></metadata><sodipodi:namedview id="base" bordercolor="#666666" borderopacity="1.0" gridtolerance="0.50000000px" guidetolerance="0.50000000px" pagecolor="#ffffff" showgrid="true" showguides="true"><sodipodi:guide id="guide3305" orientation="vertical" position="24.944882"/><sodipodi:guide id="guide3307" orientation="horizontal" position="28.031496"/></sodipodi:namedview>
	<rect id="rect3319" width="48" height="48" style="fill:none"/><path id="path4775" d="m39 41h-30v-35h21l9 10v4.6789 20.321z" style="fill:#fff;stroke-linejoin:round;stroke-width:12;stroke:#fff" sodipodi:nodetypes="ccccccc"/><path id="path7" d="m39 41h-30v-35h21l9 10v25z" style="stroke-linejoin:round;stroke-width:4;stroke:#000" sodipodi:nodetypes="cccccc"/><path id="path9" d="m37 16-0.003427 23.004-25.997-0.003906 0.016535-30.982 17.983-0.01811 8 8z" style="fill:#fff" sodipodi:nodetypes="cccccc"/>
	
<path id="path3312" transform="matrix(.51282 0 0 .5 12 13.5)" d="m48 24a24 24 0 1 1-48 0 24 24 0 1 1 48 0z" style="fill-rule:evenodd;fill:#fff" sodipodi:cx="24" sodipodi:cy="24" sodipodi:rx="24" sodipodi:ry="24" sodipodi:type="arc"/><path id="path4048" transform="matrix(.51282 0 0 .5 12 13.5)" d="m44 24a20 20 0 1 1-40 0 20 20 0 1 1 40 0z" style="fill-rule:evenodd" sodipodi:cx="24" sodipodi:cy="24" sodipodi:rx="20" sodipodi:ry="20" sodipodi:type="arc"/><path id="path4784" transform="matrix(.51282 0 0 .5 12 13.5)" d="m40 24a16 16 0 1 1-32 0 16 16 0 1 1 32 0z" style="fill-rule:evenodd;fill:#fff" sodipodi:cx="24" sodipodi:cy="24" sodipodi:rx="16" sodipodi:ry="16" sodipodi:type="arc"/><path id="path5512" d="m17.128 30.625c4.1026-1.5 10.256-1.5 14.359 0" style="fill:none;stroke-linecap:round;stroke-width:2.0255;stroke:#000" sodipodi:nodetypes="cc"/><path id="path5516" d="m16.086 25.5h16.443" style="fill:none;stroke-width:2.0255;stroke:#000"/><path id="path5520" d="m22.256 17.276c-2.5641 5.2244-2.5641 11.724 0 16.724" style="fill:none;stroke-linecap:round;stroke-width:2.0255;stroke:#000" sodipodi:nodetypes="cc"/><path id="path6250" d="m17.128 20.375c4.1026 1.5 10.256 1.5 14.359 0" style="fill:none;stroke-linecap:round;stroke-width:2.0255;stroke:#000" sodipodi:nodetypes="cc"/><path id="path9156" d="m26.359 17.276c2.5641 5.2244 2.5641 11.724 0 16.724" style="fill:none;stroke-linecap:round;stroke-width:2.0255;stroke:#000" sodipodi:nodetypes="cc"/></svg>
