<?xml version="1.0" encoding="UTF-8"?>
<!-- Created with Inkscape (http://www.inkscape.org/) -->
<svg id="svg2" width="48" height="48" version="1.0" xmlns="http://www.w3.org/2000/svg" xmlns:cc="http://creativecommons.org/ns#" xmlns:dc="http://purl.org/dc/elements/1.1/" xmlns:rdf="http://www.w3.org/1999/02/22-rdf-syntax-ns#">
 <metadata id="metadata7">
  <rdf:RDF>
   <cc:Work rdf:about="">
    <dc:format>image/svg+xml</dc:format>
    <dc:type rdf:resource="http://purl.org/dc/dcmitype/StillImage"/>
    <dc:title>Office Address Book</dc:title>
    <dc:date>December 2008</dc:date>
    <dc:creator>
     <cc:Agent>
      <dc:title>Luca Ferretti &lt;elle.uca@libero.it&gt;</dc:title>
     </cc:Agent>
    </dc:creator>
    <dc:subject>
     <rdf:Bag>
      <rdf:li>address book</rdf:li>
      <rdf:li>contacts</rdf:li>
      <rdf:li>people</rdf:li>
     </rdf:Bag>
    </dc:subject>
   </cc:Work>
  </rdf:RDF>
 </metadata>
 <g id="layer1">
  <rect id="rect3171" width="48" height="48" style="fill:none"/>
  <path id="path3169" d="m6 9v30c0 3 3 3 3 3h22l11-3v-23-10h-33s-3 0-3 3z" style="fill-rule:evenodd;fill:#fff;stroke-linecap:round;stroke-linejoin:round;stroke-width:12;stroke:#fff"/>
  <path id="path2385" d="m6 9v30c0 3 3 3 3 3h23l10-3v-23-10h-33s-3 0-3 3z" style="fill-rule:evenodd;fill:#fff;stroke-linecap:round;stroke-linejoin:round;stroke-width:4;stroke:#000"/>
  <path id="path3163" transform="translate(1 1)" d="m24 18a6 6 0 1 1-12 0 6 6 0 1 1 12 0z"/>
  <path id="path3165" transform="matrix(1 0 0 .79283 -7.5 3.7649)" d="m18.5 36.776a8 13.753 0 1 1 16 0.09872"/>
  <path id="path3167" d="m15.106 23.374s4 3.3755 8 0l-4 5.6258-4-5.6258" style="fill-rule:evenodd;fill:#fff"/>
  <path id="path2387" d="m40.5 14.5-9 3v24" style="fill:none;stroke-linecap:round;stroke-linejoin:round;stroke-width:3;stroke:#000"/>
  <path id="path3161" d="m41.5 26.5-9 3" style="fill:none;stroke-linecap:round;stroke-linejoin:round;stroke-width:3;stroke:#000"/>
 </g>
</svg>
