<?xml version="1.0" encoding="UTF-8"?>
<svg id="svg2" width="48" height="48" version="1.1" viewBox="0 0 38.4 38.4" xmlns="http://www.w3.org/2000/svg" xmlns:cc="http://creativecommons.org/ns#" xmlns:dc="http://purl.org/dc/elements/1.1/" xmlns:rdf="http://www.w3.org/1999/02/22-rdf-syntax-ns#" xmlns:xlink="http://www.w3.org/1999/xlink">
 <metadata id="metadata4">
  <dc:date>2010-05-04 11:58Z</dc:date>
  <!-- Produced by OmniGraffle Professional 4.2.2 -->
  <rdf:RDF>
   <cc:Work rdf:about="">
    <dc:format>image/svg+xml</dc:format>
    <dc:type rdf:resource="http://purl.org/dc/dcmitype/StillImage"/>
    <dc:title/>
   </cc:Work>
  </rdf:RDF>
 </metadata>
 <rect id="rect16" x="3.2547" y="-.0010676" width="32.11" height="38.406" ry=".15818"/>
 <path id="rect18" d="m3.2447-1.5591v40.686h32.13v-40.686h-32.13z" style="fill:none;stroke-width:0"/>
 <path id="path20" d="m15.29 7.487h8.06c1.7121 0 3.1 0.97721 3.1 2.1827v5.8932c0 1.2054-1.3879 2.1827-3.1 2.1827h-8.06c-1.7121 0-3.1-0.97721-3.1-2.1827v-1e-6 -5.8932c0-1.2054 1.3879-2.1827 3.1-2.1827z" style="fill:#fff"/>
 <path id="path2846" d="m29.102 5.0911h1.9517c0.41458 0 0.75067-0.35169 0.75067-0.78551v-2.1209c0-0.43383-0.33608-0.78551-0.75067-0.78551h-1.9517c-0.41458 0-0.75067 0.35169-0.75067 0.78551v2.1209c0 0.43383 0.33608 0.78551 0.75067 0.78551z" style="fill:#fff"/>
 <path id="path2850" d="m29.102 9.3781h1.9517c0.41458 0 0.75067 0.35169 0.75067 0.78551v2.1209c0 0.43383-0.33608 0.78551-0.75067 0.78551h-1.9517c-0.41458 0-0.75067-0.35169-0.75067-0.78551v-2.1209c0-0.43383 0.33608-0.78551 0.75067-0.78551z" style="fill:#fff"/>
 <path id="path2852" d="m29.102 17.357h1.9517c0.41458 0 0.75067 0.35168 0.75067 0.78551v2.1209c0 0.43383-0.33608 0.78551-0.75067 0.78551h-1.9517c-0.41458 0-0.75067-0.35169-0.75067-0.78551v-2.1209c0-0.43383 0.33608-0.78551 0.75067-0.78551z" style="fill:#fff"/>
 <path id="path2854" d="m29.102 25.336h1.9517c0.41458 0 0.75067 0.35168 0.75067 0.78551v2.1209c0 0.43383-0.33608 0.78551-0.75067 0.78551h-1.9517c-0.41458 0-0.75067-0.35169-0.75067-0.78551v-2.1209c0-0.43383 0.33608-0.78551 0.75067-0.78551z" style="fill:#fff"/>
 <path id="path2856" d="m29.102 33.315h1.9517c0.41458 0 0.75067 0.35168 0.75067 0.78551v2.1209c0 0.43383-0.33608 0.78551-0.75067 0.78551h-1.9517c-0.41458 0-0.75067-0.35169-0.75067-0.78551v-2.1209c0-0.43383 0.33608-0.78551 0.75067-0.78551z" style="fill:#fff"/>
 <path id="path2969" d="m6.9096 5.0911h1.9517c0.41458 0 0.75067-0.35169 0.75067-0.78551v-2.1209c0-0.43383-0.33608-0.78551-0.75067-0.78551h-1.9517c-0.41458 0-0.75067 0.35169-0.75067 0.78551v2.1209c0 0.43383 0.33609 0.78551 0.75067 0.78551z" style="fill:#fff"/>
 <path id="path3002" d="m6.9096 9.2962h1.9517c0.41458 0 0.75067 0.35169 0.75067 0.78551v2.1209c0 0.43383-0.33608 0.78551-0.75067 0.78551h-1.9517c-0.41458 0-0.75067-0.35169-0.75067-0.78551v-2.1209c0-0.43383 0.33608-0.78551 0.75067-0.78551z" style="fill:#fff"/>
 <path id="path3004" d="m6.9096 17.193h1.9517c0.41458 0 0.75067 0.35168 0.75067 0.78551v2.1209c0 0.43383-0.33608 0.78551-0.75067 0.78551h-1.9517c-0.41458 0-0.75067-0.35169-0.75067-0.78551v-2.1209c0-0.43383 0.33608-0.78551 0.75067-0.78551z" style="fill:#fff"/>
 <path id="path3006" d="m6.9096 25.09h1.9517c0.41458 0 0.75067 0.35168 0.75067 0.78551v2.1209c0 0.43383-0.33608 0.78551-0.75067 0.78551h-1.9517c-0.41458 0-0.75067-0.35169-0.75067-0.78551v-2.1209c0-0.43383 0.33608-0.78551 0.75067-0.78551z" style="fill:#fff"/>
 <path id="path3008" d="m6.9096 32.987h1.9517c0.41458 0 0.75067 0.35168 0.75067 0.78551v2.1209c0 0.43383-0.33608 0.78551-0.75067 0.78551h-1.9517c-0.41458 0-0.75067-0.35169-0.75067-0.78551v-2.1209c0-0.43383 0.33608-0.78551 0.75067-0.78551z" style="fill:#fff"/>
 <use id="use3014" transform="translate(0 13.856)" width="48" height="48" xlink:href="#path20"/>
 <path id="use3016" d="m12.183 0.014966v1.7974c0 1.1449 1.3882 2.0842 3.1002 2.0842h8.0727c1.7121 0 3.1002-0.93925 3.1002-2.0842v-1.7974h-14.273z" style="fill:#fff"/>
 <path id="use3018" d="m15.283 35.201c-1.7121 0-3.1002 0.75206-3.1002 1.6879v1.5003h14.273v-1.5003c0-0.93582-1.3882-1.6879-3.1002-1.6879h-8.0727z" style="fill:#fff"/>
 <path id="path3810" d="m1.9663 0.0020401v38.4" style="fill:none;stroke-width:2.5691;stroke:#fff"/>
 <path id="path3812" d="m36.632 0.005393v38.387" style="fill:none;stroke-width:2.5687;stroke:#fff"/>
</svg>
