<?xml version="1.0" encoding="UTF-8"?>
<!-- Created with Inkscape (http://www.inkscape.org/) -->
<svg id="svg2" width="48" height="48" version="1.0" xmlns="http://www.w3.org/2000/svg" xmlns:cc="http://creativecommons.org/ns#" xmlns:dc="http://purl.org/dc/elements/1.1/" xmlns:rdf="http://www.w3.org/1999/02/22-rdf-syntax-ns#">
 <metadata id="metadata7">
  <rdf:RDF>
   <cc:Work rdf:about="">
    <dc:format>image/svg+xml</dc:format>
    <dc:type rdf:resource="http://purl.org/dc/dcmitype/StillImage"/>
    <cc:license rdf:resource=""/>
    <dc:title>Accessories Character Map</dc:title>
    <dc:date>May 2009</dc:date>
    <dc:creator>
     <cc:Agent>
      <dc:title>Luca Ferretti</dc:title>
     </cc:Agent>
    </dc:creator>
    <dc:subject>
     <rdf:Bag>
      <rdf:li>character map</rdf:li>
     </rdf:Bag>
    </dc:subject>
    <dc:description>A keyboard key with à letter on it</dc:description>
   </cc:Work>
  </rdf:RDF>
 </metadata>
 <g id="layer1">
  <rect id="rect1306" width="60" height="60" style="display:none;fill:none"/>
  <rect id="rect2394" width="48" height="48" ry="0" style="fill:none"/>
  <rect id="rect3182" x="4" y="4" width="40" height="40" ry="6.9928" style="fill:#fff;stroke-linejoin:round;stroke-width:8;stroke:#fff"/>
  <rect id="rect2398" x="4" y="4" width="40" height="40" ry="6.9928"/>
  <rect id="rect3172" x="13" y="13" width="22" height="22" ry="1.8129" style="fill:#fff"/>
  <path id="text3184" transform="scale(1.015 .9852)" d="m25.883 27.124c-0.79368 5e-6 -1.3925 0.13465-1.7964 0.40392-0.39684 0.26929-0.59526 0.66612-0.59525 1.1905-5e-6 0.48188 0.15944 0.86099 0.47833 1.1374 0.32597 0.26928 0.77595 0.40392 1.3499 0.40392 0.71571 2e-6 1.3181-0.25511 1.807-0.76533 0.48895-0.5173 0.73343-1.1622 0.73344-1.9346v-0.43581h-1.9771m5.8143-1.435v6.7923h-3.8373v-1.7645c-0.51022 0.72281-1.0842 1.2507-1.722 1.5838-0.63778 0.32597-1.4137 0.48896-2.3279 0.48896-1.233 0-2.2357-0.35786-3.0082-1.0736-0.76533-0.72281-1.148-1.6582-1.148-2.8062-1e-6 -1.396 0.47833-2.42 1.435-3.0719 0.96374-0.65194 2.4731-0.97791 4.5282-0.97792h2.2428v-0.29763c-9e-6 -0.60233-0.2374-1.0417-0.71218-1.3181-0.47479-0.28344-1.2153-0.42517-2.2216-0.42518-0.81494 9e-6 -1.5732 0.081502-2.2747 0.24448-0.70155 0.163-1.3535 0.40747-1.9558 0.73344v-2.9019c0.81493-0.19841 1.6334-0.34722 2.4554-0.44644 0.82201-0.10628 1.644-0.15943 2.466-0.15944 2.1472 1.2e-5 3.6955 0.42519 4.6451 1.2755 0.95664 0.84329 1.435 2.218 1.435 4.1243m-6.9942-10.619 2.9975 3.9967h-2.0834l-3.9223-3.9967h3.0082"/>
  <path id="path3188" d="m8 10 3 3v22l-3 3v-28" style="fill-rule:evenodd;fill:#fff"/>
  <path id="path3190" d="m40 10-3 3v22l3 3v-28" style="fill-rule:evenodd;fill:#fff"/>
  <path id="path3192" d="m38 40-3-3h-22l-3 3h28" style="fill-rule:evenodd;fill:#fff"/>
  <path id="path3194" d="m38 8-3 3h-22l-3-3h28" style="fill-rule:evenodd;fill:#fff"/>
 </g>
</svg>
