<?xml version="1.0" encoding="UTF-8"?>
<!-- Generator: Adobe Illustrator 9.0, SVG Export Plug-In  -->
<svg id="svg2" width="48" height="48" version="1.0" viewBox="0 0 48 48" xml:space="preserve" xmlns="http://www.w3.org/2000/svg" xmlns:cc="http://creativecommons.org/ns#" xmlns:dc="http://purl.org/dc/elements/1.1/" xmlns:rdf="http://www.w3.org/1999/02/22-rdf-syntax-ns#"><metadata id="metadata32"><rdf:RDF><cc:Work rdf:about=""><dc:format>image/svg+xml</dc:format><dc:type rdf:resource="http://purl.org/dc/dcmitype/StillImage"/><dc:title>Text Editor</dc:title><dc:date>May 2009</dc:date><dc:creator><cc:Agent><dc:title>Jakub Steiner</dc:title></cc:Agent></dc:creator><dc:coverage/><dc:description>A paper with a pencil on it</dc:description><dc:subject><rdf:Bag><rdf:li>text</rdf:li><rdf:li>editor</rdf:li></rdf:Bag></dc:subject></cc:Work></rdf:RDF></metadata>
	<rect id="rect2400" width="48" height="48" style="fill:none"/><rect id="rect3174" x="7" y="4" width="32" height="40" ry="3.4532" style="fill:#fff;stroke-linejoin:round;stroke-width:8;stroke:#fff"/><rect id="rect3172" x="7" y="4" width="32" height="40" ry="3.4532"/><path id="path13" d="m36 7h-26v34h26v-34z" style="fill:#fff"/>
	<g id="g3176" transform="matrix(.99465 0 0 .97382 .14108 .90381)"><path id="path7" d="m38.7 30.4-13.7-13.7-7.7-3 2.7 8.7 13.3 13.4 5.4-5.4z" style="fill:none;stroke-linejoin:round;stroke-width:12.765;stroke:#fff"/><g id="Layer_x0020_4" style="stroke:#000">
		<path id="path16" d="m38.7 30.4-13.7-13.7-7.7-3 2.7 8.7 13.3 13.4 5.4-5.4z" style="fill:none;stroke-linejoin:round;stroke-width:4.9715"/>
		<path id="path18" d="m38.7 30.4-13.7-13.7-7.7-3 2.7 8.7 13.3 13.4 5.4-5.4z" style="stroke:none"/>
		<path id="path20" d="m20.6 14.7-2.5 2.5-1.1-3.8 3.6 1.3z" style="stroke:none"/>
		<path id="path22" d="m19.6 22.2 3-0.3 2.4-2.4 0.4-2.8" style="fill:none;stroke-width:1.2429"/>
		<path id="path24" d="m20.4 14.9-2.1 2.1 1.6 5.2 2.7-0.3 2.4-2.4 0.3-2.4-5-2.2h0.1z" style="fill:#fff;stroke:none"/>
	</g></g>
	<g id="crop" style="stroke:#000">
		<path id="path27" d="m48 48h-48v-48h48v48z" style="fill:none;stroke:none"/>
	</g>
</svg>
