<?xml version="1.0" encoding="UTF-8"?>
<!-- Generator: Adobe Illustrator 9.0, SVG Export Plug-In  -->
<svg id="svg2" width="48" height="48" version="1.0" viewBox="0 0 48 48" xml:space="preserve" xmlns="http://www.w3.org/2000/svg" xmlns:cc="http://creativecommons.org/ns#" xmlns:dc="http://purl.org/dc/elements/1.1/" xmlns:rdf="http://www.w3.org/1999/02/22-rdf-syntax-ns#"><metadata id="metadata27"><rdf:RDF><cc:Work rdf:about=""><dc:format>image/svg+xml</dc:format><dc:type rdf:resource="http://purl.org/dc/dcmitype/StillImage"/></cc:Work></rdf:RDF></metadata>
	<g id="g17" style="stroke:#000">
				<path id="path2214" d="m18 31-3 7h-9l12-28h12l12 28h-10l-3-7-11-0.1v0.1zm10-5s-3.4-9.4-4-11h-1c-0.5 1.7-4 11-4 11h9z" style="stroke-linejoin:round;stroke-width:12;stroke:#fff"/><path id="path19" d="m18 31-3 7h-9l12-28h12l12 28h-10l-3-7-11-0.1v0.1zm10-5s-3.4-9.4-4-11h-1c-0.5 1.7-4 11-4 11h9z" style="stroke-linejoin:round;stroke-width:4"/>
			</g>
	<g id="crop_x0020_marks" style="stroke:#000">
		<path id="path22" d="m48 48h-48v-48h48v48z" style="fill:none;stroke:none"/>
	</g>
</svg>
