<?xml version="1.0" encoding="UTF-8"?>
<!-- Generator: Adobe Illustrator 9.0, SVG Export Plug-In  -->
<svg id="svg2" width="48" height="48" version="1.0" viewBox="0 0 48 48" xml:space="preserve" xmlns="http://www.w3.org/2000/svg" xmlns:cc="http://web.resource.org/cc/" xmlns:dc="http://purl.org/dc/elements/1.1/" xmlns:rdf="http://www.w3.org/1999/02/22-rdf-syntax-ns#"><metadata id="metadata27"><rdf:RDF><cc:Work rdf:about=""><dc:format>image/svg+xml</dc:format><dc:type rdf:resource="http://purl.org/dc/dcmitype/StillImage"/><dc:title>Application Exit</dc:title><dc:subject><rdf:Bag><rdf:li>exit</rdf:li><rdf:li>quit</rdf:li><rdf:li>application</rdf:li><rdf:li>program</rdf:li></rdf:Bag></dc:subject><cc:license rdf:resource="http://creativecommons.org/licenses/LGPL/2.1/"/></cc:Work><cc:License rdf:about="http://creativecommons.org/licenses/LGPL/2.1/"><cc:permits rdf:resource="http://web.resource.org/cc/Reproduction"/><cc:permits rdf:resource="http://web.resource.org/cc/Distribution"/><cc:requires rdf:resource="http://web.resource.org/cc/Notice"/><cc:permits rdf:resource="http://web.resource.org/cc/DerivativeWorks"/><cc:requires rdf:resource="http://web.resource.org/cc/ShareAlike"/><cc:requires rdf:resource="http://web.resource.org/cc/SourceCode"/></cc:License></rdf:RDF></metadata>
	<rect id="rect1906" y="-2.6645e-15" width="48" height="48" style="fill:none"/><path id="path7" d="m12 4.8c-1.2 0-3.2 1.6-3.2 3.2v32c0 1.6 1.6 3.2 3.2 3.2h25.6c1.6 0 3.2-1.6 3.2-3.2v-32c0-1.6-1.6-3.2-3.2-3.2h-25.6z" style="stroke-linejoin:round;stroke-width:6.057;stroke:#fff"/><path id="path9" d="m12 4.8c-1.6 0-3.2 1.6-3.2 3.2v32c0 1.6 1.6 3.2 3.2 3.2h25.6c1.6 0 3.2-1.6 3.2-3.2v-32c0-1.6-1.6-3.2-3.2-3.2h-25.6z"/><path id="path13" d="m28.1 29.6c0 0.4-0.1 0.6-0.4 0.8l-14.1 9.6c-0.95677-0.17131-1.601-1.2003-1.6-1.6v-29.6c0-0.4 0.4-0.8 0.8-0.8l14.7-1.2c0.4 0 0.7 0.3 0.7 0.7v22.2l-0.1-0.1z" style="fill:#fff"/><path id="path15" d="m25.5 15.1c0 1.2-1 2.2-2.2 2.2s-2.2-1-2.2-2.2 1-2.2 2.2-2.2 2.2 1 2.2 2.2z"/><path id="path17" d="m12.8 12.3c-0.6 0.3 0 0.7 0 1.3v3.2h-7.2c-1.6 0-3.2 1.6-3.2 3.2v8c0 1.6 1.6 3.2 3.2 3.2h7.2v2.4c0 0.7-0.6 1.3 0 1.5 0.6 0.3 1.3 0.1 1.8-0.4l9.6-9.6c1-1 0.7-2.1 0-2.7l-9.6-9.7c-0.5-0.5-1.2-0.6-1.9-0.4h0.1z" style="fill:#fff"/><path id="path19" d="m14.4 13.6c0-0.2 0.2-0.2 0.3-0.1l8.5 9.9c0.3 0.3 0.2 0.4 0 0.6l-8.6 9.7c-0.1 0.1-0.2 0-0.2-0.1v-5.6h-8s-0.8 0-0.8-0.8v-6.4c0-0.8 0.8-0.8 0.8-0.8h8v-6.4z"/>
	<g id="crop_x0020_marks" style="stroke:#000">
		<path id="path22" d="m48 48h-48v-48h48v48z" style="fill:none;stroke:none"/>
	</g>
</svg>
