<?xml version="1.0" encoding="UTF-8"?>
<!-- Created with Inkscape (http://www.inkscape.org/) -->
<svg id="svg3304" width="48px" height="48px" xmlns="http://www.w3.org/2000/svg" xmlns:cc="http://creativecommons.org/ns#" xmlns:dc="http://purl.org/dc/elements/1.1/" xmlns:rdf="http://www.w3.org/1999/02/22-rdf-syntax-ns#">
 <metadata id="metadata3309">
  <rdf:RDF>
   <cc:Work rdf:about="">
    <dc:format>image/svg+xml</dc:format>
    <dc:type rdf:resource="http://purl.org/dc/dcmitype/StillImage"/>
    <dc:title>Call Stop</dc:title>
    <dc:date>November 2008</dc:date>
    <dc:creator>
     <cc:Agent>
      <dc:title>Luca Ferretti &lt;elle.uca@libero.it&gt;</dc:title>
     </cc:Agent>
    </dc:creator>
    <dc:subject>
     <rdf:Bag>
      <rdf:li>call</rdf:li>
      <rdf:li>close</rdf:li>
      <rdf:li>stop</rdf:li>
     </rdf:Bag>
    </dc:subject>
    <dc:coverage>Stop an call</dc:coverage>
    <dc:description>A hanged up phone receiver</dc:description>
    <dc:contributor>
     <cc:Agent>
      <dc:title>A lot of mobile phones over the world :)</dc:title>
     </cc:Agent>
    </dc:contributor>
    <cc:license rdf:resource=""/>
   </cc:Work>
  </rdf:RDF>
 </metadata>
 <g id="layer1">
  <rect id="rect2381" width="48.133" height="48.133" style="fill:none"/>
  <path id="path3668" d="m13 29h-8v-13c0-2 1-3 3-3h32c2 0 3 1 3 3v13h-8v-7s0-1-1-1h-20c-1 0-1 1-1 1v7z" style="fill:none;stroke-linecap:round;stroke-linejoin:round;stroke-width:8;stroke:#fff"/>
  <rect id="rect2384" x="16" y="24" width="16" height="5" ry="2.0552" style="fill:none;stroke-linecap:round;stroke-linejoin:round;stroke-width:8;stroke:#fff"/>
  <path id="path3155" d="m13 29h-8v-13c0-2 1-3 3-3h32c2 0 3 1 3 3v13h-8v-7s0-1-1-1h-20c-1 0-1 1-1 1v7z" style="fill-rule:evenodd"/>
  <rect id="rect3670" x="16" y="24" width="16" height="5" ry="2.0552"/>
 </g>
</svg>
