<?xml version="1.0" encoding="UTF-8"?>
<!-- Generator: Adobe Illustrator 9.0, SVG Export Plug-In  -->
<svg id="svg2" width="48" height="48" sodipodi:docbase="/home/luca/Artwork/blackwhite-icon-theme/scalable/actions" sodipodi:docname="document-save.svg" sodipodi:version="0.32" version="1.0" viewBox="0 0 48 48" xml:space="preserve" xmlns="http://www.w3.org/2000/svg" xmlns:cc="http://web.resource.org/cc/" xmlns:dc="http://purl.org/dc/elements/1.1/" xmlns:rdf="http://www.w3.org/1999/02/22-rdf-syntax-ns#" xmlns:sodipodi="http://inkscape.sourceforge.net/DTD/sodipodi-0.dtd"><metadata id="metadata25"><rdf:RDF><cc:Work rdf:about=""><dc:format>image/svg+xml</dc:format><dc:type rdf:resource="http://purl.org/dc/dcmitype/StillImage"/></cc:Work></rdf:RDF></metadata><sodipodi:namedview id="base" bordercolor="#666666" borderopacity="1.0" pagecolor="#ffffff" showgrid="true"/>
	<path id="path4837" d="m40 39h-28l-4-4v-27h32v31z" style="fill:none;stroke-linecap:round;stroke-linejoin:round;stroke-width:14;stroke:#fff" sodipodi:nodetypes="cccccc"/><path id="path9" d="m40 39h-28l-4-4v-27h32v31z" style="fill:none;stroke-linecap:round;stroke-linejoin:round;stroke-width:6;stroke:#000" sodipodi:nodetypes="cccccc"/><path id="path11" d="m39.8 38.7h-27.8l-3.8-3.8v-26.1h31.6v29.9z"/><path id="path13" d="m33 37c0 1.1-0.9 2-2 2h-17c-1.1 0-2-0.9-2-2v-9c0-1.1 0.9-2 2-2h17c1.1 0 2 0.9 2 2v9z" style="fill:#fff" sodipodi:nodetypes="ccccccccc"/><path id="path15" d="m21 37h-6v-9h6v9z" sodipodi:nodetypes="ccccc"/><path id="path17" d="m38 22h-28v-13h28v13z" style="fill:#fff" sodipodi:nodetypes="ccccc"/>
	<g id="crop_x0020_marks" style="stroke:#000">
		<path id="path20" d="m48 48h-48v-48h48v48z" style="fill:none;stroke:none"/>
	</g>
</svg>
