<?xml version="1.0" encoding="UTF-8"?>
<!-- Generator: Adobe Illustrator 9.0, SVG Export Plug-In  -->
<svg id="svg2" width="48" height="48" version="1.0" viewBox="0 0 48 48" xml:space="preserve" xmlns="http://www.w3.org/2000/svg" xmlns:cc="http://creativecommons.org/ns#" xmlns:dc="http://purl.org/dc/elements/1.1/" xmlns:rdf="http://www.w3.org/1999/02/22-rdf-syntax-ns#"><metadata id="metadata37"><rdf:RDF><cc:Work rdf:about=""><dc:format>image/svg+xml</dc:format><dc:type rdf:resource="http://purl.org/dc/dcmitype/StillImage"/></cc:Work></rdf:RDF></metadata>
	<g id="Layer_x0020_4" style="stroke:#000">
		<g id="g5" style="stroke:none">
			<path id="path7" d="m37.3 37h-25.6l-3.5-3.5v-24.1h29.2v27.6h-0.1z" style="fill:none;stroke-linecap:round;stroke-linejoin:round;stroke-width:12.337;stroke:#fff"/>
			<path id="path9" d="m37.3 37h-25.6l-3.5-3.5v-24.1h29.2v27.6h-0.1z" style="fill:none;stroke-linecap:round;stroke-linejoin:round;stroke-width:6.1688;stroke:#000"/>
			<path id="path11" d="m37.3 37h-25.6l-3.5-3.5v-24.1h29.2v27.6h-0.1z"/>
			<path id="path13" d="m31 37.2c0 1-0.8 1.9-1.9 1.9h-15.7c-1 0-1.9-0.8-1.9-1.9v-10c0-1 0.8-1.9 1.9-1.9h15.7c1 0 1.9 0.8 1.9 1.9v10z" style="fill:#fff;stroke-width:1.5422;stroke:#000"/>
			<path id="path15" d="m20.6 36.4h-5.7v-8.4h5.7v8.4z"/>
			<path id="path17" d="m35.6 22.9h-25.4v-15.1h25.4v15.2-0.1z" style="fill:#fff;stroke-width:1.5422;stroke:#000"/>
			<path id="path19" d="m39.9 33.6-17-17-9.6-3.8 3.4 10.8 16.5 16.6 6.7-6.7v0.1z" style="fill:none;stroke-linejoin:round;stroke-width:12.337;stroke:#fff"/>
			<path id="path21" d="m39.9 33.6-17-17-9.6-3.8 3.4 10.8 16.5 16.6 6.7-6.7v0.1z" style="fill:none;stroke-linejoin:round;stroke-width:6.1688;stroke:#000"/>
			<path id="path23" d="m39.9 33.6-17-17-9.6-3.8 3.4 10.8 16.5 16.6 6.7-6.7v0.1z"/>
			<path id="path25" d="m17.4 14.1-3.1 3.1-1.4-4.7 4.5 1.7v-0.1z"/>
			<path id="path27" d="m16.2 23.4 3.8-0.3 3-3 0.4-3.5" style="fill:none;stroke-width:1.5422;stroke:#000"/>
			<path id="path29" d="m17.2 14.3-2.6 2.6 2 6.5 3.3-0.3 3-3 0.4-3-6.2-2.7 0.1-0.1z" style="fill:#fff"/>
		</g>
	</g>
	<g id="crop_x0020_marks" style="stroke:#000">
		<path id="path32" d="m48 48h-48v-48h48v48z" style="fill:none;stroke:none"/>
	</g>
</svg>
