<?xml version="1.0" encoding="UTF-8"?>
<!-- Generator: Adobe Illustrator 9.0, SVG Export Plug-In  -->
<svg id="svg2" width="48" height="48" sodipodi:docbase="/home/luca/Artwork/blackwhite-icon-theme/scalable/actions" sodipodi:docname="document-revert.svg" sodipodi:version="0.32" version="1.0" viewBox="0 0 48 48" xml:space="preserve" xmlns="http://www.w3.org/2000/svg" xmlns:cc="http://web.resource.org/cc/" xmlns:dc="http://purl.org/dc/elements/1.1/" xmlns:rdf="http://www.w3.org/1999/02/22-rdf-syntax-ns#" xmlns:sodipodi="http://inkscape.sourceforge.net/DTD/sodipodi-0.dtd"><metadata id="metadata25"><rdf:RDF><cc:Work rdf:about=""><dc:format>image/svg+xml</dc:format><dc:type rdf:resource="http://purl.org/dc/dcmitype/StillImage"/></cc:Work></rdf:RDF></metadata><sodipodi:namedview id="base" bordercolor="#666666" borderopacity="1.0" pagecolor="#ffffff" showgrid="true"/>
	<path id="path4837" d="m40 39h-28l-4-4v-27h32v31z" style="fill:none;stroke-linecap:round;stroke-linejoin:round;stroke-width:14;stroke:#fff" sodipodi:nodetypes="cccccc"/><path id="path9" d="m40 39h-28l-4-4v-27h32v31z" style="fill:none;stroke-linecap:round;stroke-linejoin:round;stroke-width:6;stroke:#000" sodipodi:nodetypes="cccccc"/><path id="path11" d="m39.8 38.7h-27.8l-3.8-3.8v-26.1h31.6v29.9z"/>
	<g id="crop_x0020_marks" style="stroke:#000">
		<path id="path20" d="m48 48h-48v-48h48v48z" style="fill:none;stroke:none"/>
	</g>
<path id="path13" d="m22.48 9.1c0-0.2-0.2-0.2-0.4-0.1l-11 11.1c-0.4 0.4-0.2 0.8 0 1l11.1 11.7c0.1 0.1 0.3 0 0.3-0.1l-0.4-7.6 5 0.5262c1 0 2 0.9738 2 3.4738v3c0 2.9-5 3.1-5 4s2 2 2 2h3c4 0 6-4.3 6-8v-5c0-6-3.3-9-8.1-9h-4.9l0.4-7z" style="fill:#fff" sodipodi:nodetypes="ccccccccccsccccccc"/></svg>
