<?xml version="1.0" encoding="UTF-8"?>
<!-- Generator: Adobe Illustrator 9.0, SVG Export Plug-In  -->
<svg id="svg2" width="48px" height="48px" sodipodi:docbase="/home/luca/Desktop/black-and-white/scalable/actions" sodipodi:docname="document-open.svg" sodipodi:version="0.32" viewBox="0 0 48 48" xml:space="preserve" xmlns="http://www.w3.org/2000/svg" xmlns:cc="http://web.resource.org/cc/" xmlns:dc="http://purl.org/dc/elements/1.1/" xmlns:rdf="http://www.w3.org/1999/02/22-rdf-syntax-ns#" xmlns:sodipodi="http://inkscape.sourceforge.net/DTD/sodipodi-0.dtd"><metadata id="metadata19"><rdf:RDF><cc:Work rdf:about=""><dc:format>image/svg+xml</dc:format><dc:type rdf:resource="http://purl.org/dc/dcmitype/StillImage"/></cc:Work></rdf:RDF></metadata><sodipodi:namedview id="base" bordercolor="#666666" borderopacity="1.0" pagecolor="#ffffff" showgrid="true"/>
	<rect id="rect3315" x="-.063325" y="-.063325" width="48.127" height="48.19" style="fill:none"/><path id="path5506" d="m6 9c-1 0-2 1-2 2v25c0 2 1 3 3 3h28c2 0 3-2 3-2l6-15c0.58401-1.46 0-5-3-5h-5v-1c0-2-1-3-3-3h-13v-2c0-1-1-2-2-2h-12z" style="fill:#fff;stroke-width:8;stroke:#fff" sodipodi:nodetypes="ccccccscccccccc"/><path id="path9" d="m6 9c-1 0-2 1-2 2v25c0 2 1 3 3 3h28c2 0 3-2 3-2l6-15c0.58401-1.46 0-5-3-5h-5v-1c0-2-1-3-3-3h-13v-2c0-1-1-2-2-2h-12z" sodipodi:nodetypes="ccccccscccccccc"/><path id="path11" d="m9 35 24 0.1c0.6 0 1.2-0.4 1.5-0.9 0.7-1 4.8-10.6 4.8-12.5 0-0.4 0-0.7-1.3-0.7h-23c-0.4 0-0.9 0.3-1 0.9-0.1 1.5-2.9 11.239-4 12.539-0.3 0.4-1 0.56121-1 0.56121z" style="fill:#fff" sodipodi:nodetypes="cccscccccc"/>
	
</svg>
