<?xml version="1.0" encoding="UTF-8"?>
<!-- Generator: Adobe Illustrator 9.0, SVG Export Plug-In  -->
<svg id="svg2" width="48px" height="48px" viewBox="0 0 48 48" xml:space="preserve" xmlns="http://www.w3.org/2000/svg" xmlns:cc="http://creativecommons.org/ns#" xmlns:dc="http://purl.org/dc/elements/1.1/" xmlns:rdf="http://www.w3.org/1999/02/22-rdf-syntax-ns#"><metadata id="metadata19"><rdf:RDF><cc:Work rdf:about=""><dc:format>image/svg+xml</dc:format><dc:type rdf:resource="http://purl.org/dc/dcmitype/StillImage"/><dc:title>Document Page Setup</dc:title><dc:creator><cc:Agent><dc:title>Kevin Kubasik</dc:title></cc:Agent></dc:creator><cc:license rdf:resource=""/><dc:subject><rdf:Bag><rdf:li>document</rdf:li><rdf:li>page setup</rdf:li><rdf:li>print margins</rdf:li></rdf:Bag></dc:subject><dc:description>A paper sheet with a gear sign</dc:description><dc:coverage>Set up magins and other for print</dc:coverage><dc:contributor><cc:Agent><dc:title/></cc:Agent></dc:contributor></cc:Work></rdf:RDF></metadata>
	<rect id="rect3319" width="48" height="48" style="fill:none"/><path id="path4775" d="m39 41.125h-30v-35h17l13 14v21z" style="fill:#fff;stroke-linejoin:round;stroke-width:12;stroke:#fff"/><path id="path7" d="m39 41h-30v-35h17l13 14v21z" style="stroke-linejoin:round;stroke-width:4;stroke:#000"/><path id="path9" d="m36.991 20 0.005167 19.004-25.997-0.003906 0.016535-30.982 13.953 0.015748 12.022 11.966z" style="fill:#fff"/>
	
<g id="g3285" transform="matrix(-.5 -.86603 .86603 -.5 13.482 56.412)"><path id="path2461" d="m30.908 17.289-2.866 2.9641c-0.36603-1.366-2.9641-2.866-4.3301-2.5l1.134-3.9641-5.3301-0.76795 0.74934 5.0582c-0.59275 0.23305-1.5466 0.765-2.0173 1.1379l-3.8301-3.366-3 5.1962 4.8301 1.634c-0.13102 0.58828-0.056827 1.5892 0.029704 2.253l-4.7618 1.9432 3.3301 4.2321 2.866-2.9641c0.36602 1.366 2.9641 2.866 4.3301 2.5l-1.134 3.9641 5.3301 0.76795-0.59808-4.9641c0.87985-0.31529 1.184-0.61961 1.866-1.2321l3.8301 3.366 3-5.1962-4.8301-1.634c0.13102-0.58828 0.2205-1.5683 0.13397-2.2321l4.5981-1.9641-3.3301-4.2321zm-6.9251 9.393c-1.3764 0.59485-3.0147-0.02242-3.6606-1.3922-0.64591-1.3698 0.022419-3.0147 1.3922-3.6606 1.3764-0.59485 3.0147 0.02242 3.6606 1.3922 0.59485 1.3764-0.022419 3.0147-1.3922 3.6606z"/></g></svg>
