<?xml version="1.0" encoding="UTF-8"?>
<!-- Generator: Adobe Illustrator 9.0, SVG Export Plug-In  -->
<svg id="svg2" width="48" height="48" sodipodi:docbase="/home/luca/Artwork/blackwhite-icon-theme/scalable/actions" sodipodi:docname="document-print-preview.svg" sodipodi:version="0.32" version="1.0" viewBox="0 0 48 48" xml:space="preserve" xmlns="http://www.w3.org/2000/svg" xmlns:cc="http://web.resource.org/cc/" xmlns:dc="http://purl.org/dc/elements/1.1/" xmlns:rdf="http://www.w3.org/1999/02/22-rdf-syntax-ns#" xmlns:sodipodi="http://inkscape.sourceforge.net/DTD/sodipodi-0.dtd"><metadata id="metadata31"><rdf:RDF><cc:Work rdf:about=""><dc:format>image/svg+xml</dc:format><dc:type rdf:resource="http://purl.org/dc/dcmitype/StillImage"/></cc:Work></rdf:RDF></metadata><sodipodi:namedview id="base" bordercolor="#666666" borderopacity="1.0" pagecolor="#ffffff" showgrid="true"/>
	<rect id="rect3981" width="48" height="48" rx="0" ry="0" style="fill:none"/><g id="g3100" style="fill:#fff;stroke-width:8;stroke:#fff"><path id="path3102" d="m41 42c0 0.4-0.6 1-1 1h-32c-0.4 0-1-0.6-1-1v-2c0-0.4 0.5-0.7 0.9-0.7h31.9c0.4 0 1.2 0.3 1.2 0.7v2z" style="fill:#fff;stroke-linejoin:round;stroke-width:8;stroke:#fff" sodipodi:nodetypes="ccccccccc"/><path id="path3104" d="m44 39c0 0.4-0.6 1-1 1h-38c-0.4 0-1-0.6-1-1v-14c0-0.4 0.6-1 1-1h38c0.4 0 1 0.6 1 1v14z" style="fill:#fff;stroke-linejoin:round;stroke-width:8;stroke:#fff" sodipodi:nodetypes="ccccccccc"/><path id="path3106" d="m12 4c-3 0-4 2-4 4v18h32v-18c0-2-1-4-4-4h-24z" style="fill:#fff;stroke-linejoin:round;stroke-width:8;stroke:#fff" sodipodi:nodetypes="ccccccc"/></g><g id="g3095"><path id="path13" d="m41 42c0 0.4-0.6 1-1 1h-32c-0.4 0-1-0.6-1-1v-2c0-0.4 0.5-0.7 0.9-0.7h31.9c0.4 0 1.2 0.3 1.2 0.7v2z" sodipodi:nodetypes="ccccccccc"/><path id="path15" d="m44 39c0 0.4-0.6 1-1 1h-38c-0.4 0-1-0.6-1-1v-14c0-0.4 0.6-1 1-1h38c0.4 0 1 0.6 1 1v14z" sodipodi:nodetypes="ccccccccc"/><path id="path17" d="m12 4c-3 0-4 2-4 4v18h32v-18c0-2-1-4-4-4h-24z" sodipodi:nodetypes="ccccccc"/></g><path id="path19" d="m36 27h-24v-18s0-1 1-1h22c1 0 1 1 1 1v18z" style="fill:#fff" sodipodi:nodetypes="ccccccc"/><path id="path21" d="m16.6 21h14.4" style="fill:none;stroke-width:4;stroke:#000" sodipodi:nodetypes="cc"/><path id="path23" d="m16.539 14h14.461" style="fill:none;stroke-width:4;stroke:#000" sodipodi:nodetypes="cc"/>
	
<path id="path25" d="m43.838 37.138-7.7-7.7c-0.7-0.7-1.7-0.9-2.6-0.6 1.8-2.1 2.9-4.9 2.9-7.9 0-6.8-5.5-12.3-12.3-12.3-6.9 0-12.4 5.5-12.4 12.3s5.5 12.3 12.3 12.3c3 0 5.7-1.1 7.8-2.8-0.3 0.9-0.1 1.9 0.6 2.7l7.7 7.7c1 1 2.7 1 3.7 0s1-2.6 0-3.7zm-19.8-7.2c-5 0-9-4.1-9-9 0-5 4.1-9 9-9 5 0 9 4.1 9 9 0 5-4.1 9-9 9z" style="fill:none;stroke-width:6.823;stroke:#fff"/><path id="path27" d="m43.838 37.138-7.7-7.7c-0.7-0.7-1.7-0.9-2.6-0.6 1.8-2.1 2.9-4.9 2.9-7.9 0-6.8-5.5-12.3-12.3-12.3-6.9 0-12.4 5.5-12.4 12.3s5.5 12.3 12.3 12.3c3 0 5.7-1.1 7.8-2.8-0.3 0.9-0.1 1.9 0.6 2.7l7.7 7.7c1 1 2.7 1 3.7 0s1-2.6 0-3.7zm-19.8-7.2c-5 0-9-4.1-9-9 0-5 4.1-9 9-9 5 0 9 4.1 9 9 0 5-4.1 9-9 9z"/></svg>
