<?xml version="1.0" encoding="UTF-8"?>
<!-- Generator: Adobe Illustrator 9.0, SVG Export Plug-In  -->
<svg id="svg2" width="48" height="48" version="1.0" viewBox="0 0 48 48" xml:space="preserve" xmlns="http://www.w3.org/2000/svg" xmlns:cc="http://web.resource.org/cc/" xmlns:dc="http://purl.org/dc/elements/1.1/" xmlns:rdf="http://www.w3.org/1999/02/22-rdf-syntax-ns#"><metadata id="metadata17"><rdf:RDF><cc:Work rdf:about=""><dc:format>image/svg+xml</dc:format><dc:type rdf:resource="http://purl.org/dc/dcmitype/StillImage"/><dc:title>Edit Cut</dc:title><dc:date>November 2007</dc:date><dc:creator><cc:Agent><dc:title>Jakub Steiner</dc:title></cc:Agent></dc:creator><dc:source>http://www.gnome.org</dc:source><dc:subject><rdf:Bag><rdf:li>edit</rdf:li><rdf:li>cut</rdf:li><rdf:li>move to clipboard</rdf:li></rdf:Bag></dc:subject><dc:contributor><cc:Agent><dc:title>Canvas size and pixel perfect by Luca Ferretti</dc:title></cc:Agent></dc:contributor><cc:license rdf:resource="http://creativecommons.org/licenses/LGPL/2.1/"/></cc:Work><cc:License rdf:about="http://creativecommons.org/licenses/LGPL/2.1/"><cc:permits rdf:resource="http://web.resource.org/cc/Reproduction"/><cc:permits rdf:resource="http://web.resource.org/cc/Distribution"/><cc:requires rdf:resource="http://web.resource.org/cc/Notice"/><cc:permits rdf:resource="http://web.resource.org/cc/DerivativeWorks"/><cc:requires rdf:resource="http://web.resource.org/cc/ShareAlike"/><cc:requires rdf:resource="http://web.resource.org/cc/SourceCode"/></cc:License></rdf:RDF></metadata>
	<rect id="rect2169" width="48" height="48" rx="0" ry="0" style="fill:none"/>
	
<path id="path6099" transform="translate(-.5 -2.5)" d="m20 39a4.5 6 0 1 1-9 0 4.5 6 0 1 1 9 0z" style="fill:none;stroke-linecap:round;stroke-linejoin:round;stroke-width:11;stroke:#fff"/><path id="path5128" transform="translate(17.5,-2.5)" d="m20 39a4.5 6 0 1 1-9 0 4.5 6 0 1 1 9 0z" style="fill:none;stroke-linecap:round;stroke-linejoin:round;stroke-width:11;stroke:#fff"/><path id="path6101" d="m29.5 30.4-2.5-4.4c2.9-2 6.3-4.2 9-9 3.9-6.8-2-12-2-12l-10 16-10-16s-5.9 5.2-2 12c2.7 4.7 6.1 7.1 9 9l-2.5 4.4 2.5 5.6c0.1-1.6 2-7 2-7s0.3-1.6 1-2c0.6 0.5 1 2 1 2s1.9 5.3 2 7l2.5-5.6z" style="fill:none;stroke-linecap:round;stroke-linejoin:round;stroke-width:8;stroke:#fff"/><path id="path9" d="m29.5 30.4-2.5-4.4c2.9-2 6.3-4.2 9-9 3.9-6.8-2-12-2-12l-10 16-10-16s-5.9 5.2-2 12c2.7 4.7 6.1 7.1 9 9l-2.5 4.4 2.5 5.6c0.1-1.6 2-7 2-7s0.3-1.6 1-2c0.6 0.5 1 2 1 2s1.9 5.3 2 7l2.5-5.6z"/><path id="path3148" transform="translate(-.5 -2.5)" d="m20 39a4.5 6 0 1 1-9 0 4.5 6 0 1 1 9 0z" style="fill:none;stroke-linecap:round;stroke-linejoin:round;stroke-width:3;stroke:#000"/><path id="path4119" transform="translate(17.5,-2.5)" d="m20 39a4.5 6 0 1 1-9 0 4.5 6 0 1 1 9 0z" style="fill:none;stroke-linecap:round;stroke-linejoin:round;stroke-width:3;stroke:#000"/></svg>
