<?xml version="1.0" encoding="UTF-8"?>
<!-- Generator: Adobe Illustrator 9.0, SVG Export Plug-In  -->
<svg id="svg2730" width="48" height="48" version="1.0" viewBox="0 0 48 48" xml:space="preserve" xmlns="http://www.w3.org/2000/svg" xmlns:cc="http://creativecommons.org/ns#" xmlns:dc="http://purl.org/dc/elements/1.1/" xmlns:rdf="http://www.w3.org/1999/02/22-rdf-syntax-ns#"><metadata id="metadata2753"><rdf:RDF><cc:Work rdf:about=""><dc:format>image/svg+xml</dc:format><dc:type rdf:resource="http://purl.org/dc/dcmitype/StillImage"/></cc:Work></rdf:RDF></metadata>
	<rect id="rect2759" width="48" height="48" style="fill:none"/><path id="path3552" d="m25.112 20.011-15.783 10.024 6.9051 9.8173c0.98644 1.8601 3.8471 0.72338 3.8471 0.72338l20.913-9.8173s-7.2997 1.2401-8.878-1.1367l-7.0038-9.6107z" style="fill:#fff;stroke-linecap:round;stroke-linejoin:round;stroke-width:12;stroke:#fff"/><path id="path3546" d="m31 20-2-3c-1-1.7-3.3-2-5-1l-17 10c-1.7 1-2 3.3-1 5l2 3c0.50305 0.54268 1 0 1 0l22-13s0.50305-0.48374 0-1z" style="stroke-width:8;stroke:#fff"/><path id="path3544" d="m19.957 20.07c1.1072 1.524 0.49207 3.5922-1.2302 4.5719-1.7222 0.97969-4.0596 0.43542-5.1667-1.0885l-8.9802-13.389c-1.1072-1.524-0.49207-3.5922 1.2302-4.5719 1.7222-0.97969 4.0596-0.43542 5.1667 1.0885l9.1032 13.28-0.12302 0.10885z" style="stroke-width:8;stroke:#fff"/><path id="path2737" d="m25.112 20.011-15.783 10.024 6.9051 9.8173c0.98644 1.8601 3.8471 0.72338 3.8471 0.72338l20.913-9.8173s-7.2997 1.2401-8.878-1.1367l-7.0038-9.6107z" style="fill:#fff;stroke-linecap:round;stroke-linejoin:round;stroke-width:4.0118;stroke:#000"/><path id="path2739" d="m19.957 20.07c1.1072 1.524 0.49207 3.5922-1.2302 4.5719-1.7222 0.97969-4.0596 0.43542-5.1667-1.0885l-8.9802-13.389c-1.1072-1.524-0.49207-3.5922 1.2302-4.5719 1.7222-0.97969 4.0596-0.43542 5.1667 1.0885l9.1032 13.28-0.12302 0.10885z"/><path id="path2741" d="m31 20-2-3c-1-1.7-3.3-2-5-1l-17 10c-1.7 1-2 3.3-1 5l2 3c0.50305 0.54268 1 0 1 0l22-13s0.50305-0.48374 0-1z"/><path id="path2745" d="m20 34c2.2 3.3 5 4 5 4" style="fill:none;stroke-linecap:round;stroke-linejoin:round;stroke-width:3;stroke:#000"/>
	<g id="crop_x0020_marks" style="stroke:#000">
		<path id="path2748" d="m48 48h-48v-48h48v48z" style="fill:none;stroke:none"/>
	</g>
<path id="path3550" d="m25.5 31.5c2.2 3.3 5 4 5 4" style="fill:none;stroke-linecap:round;stroke-linejoin:round;stroke-width:3;stroke:#000"/></svg>
