<?xml version="1.0" encoding="UTF-8"?>
<!-- Generator: Adobe Illustrator 9.0, SVG Export Plug-In  -->
<svg id="svg2" width="48" height="48" version="1.0" viewBox="0 0 48 48" xml:space="preserve" xmlns="http://www.w3.org/2000/svg" xmlns:cc="http://creativecommons.org/ns#" xmlns:dc="http://purl.org/dc/elements/1.1/" xmlns:rdf="http://www.w3.org/1999/02/22-rdf-syntax-ns#"><metadata id="metadata27"><rdf:RDF><cc:Work rdf:about=""><dc:format>image/svg+xml</dc:format><dc:type rdf:resource="http://purl.org/dc/dcmitype/StillImage"/></cc:Work></rdf:RDF></metadata>
	<g id="Layer_x0020_3" style="fill:#fff;stroke:#000">
		<g id="g5" style="stroke:none">
			<path id="path7" d="m37.9 38.8-7.8-7.8c-0.7-0.7-1.8-0.9-2.7-0.6 1.8-2.2 2.9-5 2.9-8 0-6.9-5.6-12.5-12.5-12.5s-12.6 5.5-12.6 12.4 5.6 12.5 12.5 12.5c3 0 5.8-1.1 8-2.9-0.3 0.9-0.1 2 0.6 2.7l7.8 7.8c1 1 2.7 1 3.7 0s1-2.7 0-3.7l0.1 0.1zm-20.1-7.3c-5.1 0-9.2-4.1-9.2-9.2s4.1-9.2 9.2-9.2 9.2 4.1 9.2 9.2-4.1 9.2-9.2 9.2z" style="fill:none;stroke-width:6.9612;stroke:#fff"/>
			<path id="path9" d="m38.3 17.1v20.6h-25.3v-29.2h16.9l8.3 8.5 0.1 0.1z" style="fill:none;stroke-linejoin:round;stroke-width:13.245;stroke:#fff"/>
			<path id="path11" d="m38.3 17.1v20.6h-25.3v-29.2h16.9l8.3 8.5 0.1 0.1z" style="fill:none;stroke-linejoin:round;stroke-width:6.6225;stroke:#000"/>
			<path id="path13" d="m38.3 17.1v20.6h-25.3v-29.2h16.9l8.3 8.5 0.1 0.1z"/>
			<g id="g15">
				<path id="path17" d="m38 38.9-7.8-7.8c-0.7-0.7-1.8-0.9-2.7-0.6 1.8-2.2 2.9-5 2.9-8 0-6.9-5.6-12.5-12.5-12.5s-12.5 5.6-12.5 12.5 5.6 12.5 12.5 12.5c3 0 5.8-1.1 8-2.9-0.3 0.9-0.1 2 0.6 2.7l7.8 7.8c1 1 2.7 1 3.7 0s1-2.7 0-3.7zm-20.1-7.3c-5.1 0-9.2-4.1-9.2-9.2s4.1-9.2 9.2-9.2 9.2 4.1 9.2 9.2-4.1 9.2-9.2 9.2z" style="fill:#000"/>
				<path id="path19" d="m27.1 22.4c0 5.1-4.1 9.2-9.2 9.2s-9.2-4.1-9.2-9.2 4.1-9.2 9.2-9.2 9.2 4.1 9.2 9.2z"/>
			</g>
		</g>
	</g>
	<g id="crop_x0020_marks" style="stroke:#000">
		<path id="path22" d="m48 48h-48v-48h48v48z" style="fill:none;stroke:none"/>
	</g>
</svg>
