<?xml version="1.0" encoding="UTF-8"?>
<!-- Generator: Adobe Illustrator 9.0, SVG Export Plug-In  -->
<svg id="svg2" width="48" height="48" version="1.0" viewBox="0 0 48 48" xml:space="preserve" xmlns="http://www.w3.org/2000/svg" xmlns:cc="http://web.resource.org/cc/" xmlns:dc="http://purl.org/dc/elements/1.1/" xmlns:rdf="http://www.w3.org/1999/02/22-rdf-syntax-ns#"><metadata id="metadata17"><rdf:RDF><cc:Work rdf:about=""><dc:format>image/svg+xml</dc:format><dc:type rdf:resource="http://purl.org/dc/dcmitype/StillImage"/><dc:title>Edit Redo</dc:title><dc:date>Novembrer 2007</dc:date><dc:creator><cc:Agent><dc:title>Jakub Steiner</dc:title></cc:Agent></dc:creator><dc:source>http://www.gnome.org/</dc:source><dc:subject><rdf:Bag><rdf:li>edit</rdf:li><rdf:li>redo</rdf:li></rdf:Bag></dc:subject><dc:contributor><cc:Agent><dc:title>Canvas sizing and pixel perfect by Luca Ferretti</dc:title></cc:Agent></dc:contributor><cc:license rdf:resource="http://creativecommons.org/licenses/LGPL/2.1/"/></cc:Work><cc:License rdf:about="http://creativecommons.org/licenses/LGPL/2.1/"><cc:permits rdf:resource="http://web.resource.org/cc/Reproduction"/><cc:permits rdf:resource="http://web.resource.org/cc/Distribution"/><cc:requires rdf:resource="http://web.resource.org/cc/Notice"/><cc:permits rdf:resource="http://web.resource.org/cc/DerivativeWorks"/><cc:requires rdf:resource="http://web.resource.org/cc/ShareAlike"/><cc:requires rdf:resource="http://web.resource.org/cc/SourceCode"/></cc:License></rdf:RDF></metadata>
	<rect id="rect2187" width="48" height="48" style="fill:none"/><path id="path3166" d="m24.9 5.1 15.1 14.9c1 1 1 1 0 2l-15 15c-0.92746 0.072543-1-1-1-1v-8h-4c-1.4 0-4-0.2-4 3v4c0 3.8 6.1788 5.0438 6.5 6.2 0.5 1.8-2.5 1.8-2.5 1.8h-5c-5.1 0.2-7-5.1-7-10v-7c0-7.9 3.7-12 10-12h6v-8s0-1 0.9-0.9z" style="fill:#fff;stroke-linecap:round;stroke-linejoin:round;stroke-width:8;stroke:#fff"/><path id="path9" d="m24.9 5.1 15.1 14.9c1 1 1 1 0 2l-15 15c-0.92746 0.072543-1-1-1-1v-8h-4c-1.4 0-4-0.2-4 3v4c0 3.8 6.1788 5.0438 6.5 6.2 0.5 1.8-2.5 1.8-2.5 1.8h-5c-5.1 0.2-7-5.1-7-10v-7c0-7.9 3.7-12 10-12h6v-8s0-1 0.9-0.9z"/>
	
</svg>
