<?xml version="1.0" encoding="UTF-8"?>
<!-- Generator: Adobe Illustrator 9.0, SVG Export Plug-In  -->
<svg id="svg7107" width="48" height="48" version="1.0" viewBox="0 0 48 48" xml:space="preserve" xmlns="http://www.w3.org/2000/svg" xmlns:cc="http://web.resource.org/cc/" xmlns:dc="http://purl.org/dc/elements/1.1/" xmlns:rdf="http://www.w3.org/1999/02/22-rdf-syntax-ns#"><metadata id="metadata7122"><rdf:RDF><cc:Work rdf:about=""><dc:format>image/svg+xml</dc:format><dc:type rdf:resource="http://purl.org/dc/dcmitype/StillImage"/><cc:license rdf:resource="http://creativecommons.org/licenses/LGPL/2.1/"/><dc:title>Format Text Italic</dc:title><dc:creator><cc:Agent><dc:title>Jakub Steiner</dc:title></cc:Agent></dc:creator><dc:source>http://www.gnome.org/</dc:source><dc:subject><rdf:Bag><rdf:li>format</rdf:li><rdf:li>text</rdf:li><rdf:li>italic</rdf:li></rdf:Bag></dc:subject><dc:contributor><cc:Agent><dc:title>Canvas resize, pixel perfect and "sync" with format-text-bold by Luca Ferretti</dc:title></cc:Agent></dc:contributor></cc:Work><cc:License rdf:about="http://creativecommons.org/licenses/LGPL/2.1/"><cc:permits rdf:resource="http://web.resource.org/cc/Reproduction"/><cc:permits rdf:resource="http://web.resource.org/cc/Distribution"/><cc:requires rdf:resource="http://web.resource.org/cc/Notice"/><cc:permits rdf:resource="http://web.resource.org/cc/DerivativeWorks"/><cc:requires rdf:resource="http://web.resource.org/cc/ShareAlike"/><cc:requires rdf:resource="http://web.resource.org/cc/SourceCode"/></cc:License></rdf:RDF></metadata>
	<rect id="rect10054" width="48" height="48" style="fill:none"/><path id="path12966" d="m20 30-7 10h-5l23-32h4l5 32h-4l-1-10h-15zm15-3s-0.9-13.2-1-15h-1c-1.1 1.8-11 15-11 15h12 1z" style="fill:none;stroke-linejoin:round;stroke-width:12;stroke:#fff"/><path id="path7114" d="m20 30-7 10h-5l23-32h4l5 32h-4l-1-10h-15zm15-3s-0.9-13.2-1-15h-1c-1.1 1.8-11 15-11 15h12 1z" style="stroke-linejoin:round;stroke-width:4;stroke:#000"/>
	
</svg>
