<?xml version="1.0" encoding="UTF-8"?>
<!-- Generator: Adobe Illustrator 9.0, SVG Export Plug-In  -->
<svg id="svg2" width="48" height="48" version="1.0" viewBox="0 0 48 48" xml:space="preserve" xmlns="http://www.w3.org/2000/svg" xmlns:cc="http://web.resource.org/cc/" xmlns:dc="http://purl.org/dc/elements/1.1/" xmlns:rdf="http://www.w3.org/1999/02/22-rdf-syntax-ns#"><metadata id="metadata27"><rdf:RDF><cc:Work rdf:about=""><dc:format>image/svg+xml</dc:format><dc:type rdf:resource="http://purl.org/dc/dcmitype/StillImage"/><dc:title>Format Text Strikethrough</dc:title><dc:date>January 2008</dc:date><dc:creator><cc:Agent><dc:title>Luca Ferretti</dc:title></cc:Agent></dc:creator><dc:source>http://www.gnome.org</dc:source><dc:subject><rdf:Bag><rdf:li>format</rdf:li><rdf:li>text</rdf:li><rdf:li>striketrough</rdf:li></rdf:Bag></dc:subject><dc:contributor><cc:Agent><dc:title>Based on text-bold shape, plus minor editing</dc:title></cc:Agent></dc:contributor><cc:license rdf:resource="http://creativecommons.org/licenses/LGPL/2.1/"/></cc:Work><cc:License rdf:about="http://creativecommons.org/licenses/LGPL/2.1/"><cc:permits rdf:resource="http://web.resource.org/cc/Reproduction"/><cc:permits rdf:resource="http://web.resource.org/cc/Distribution"/><cc:requires rdf:resource="http://web.resource.org/cc/Notice"/><cc:permits rdf:resource="http://web.resource.org/cc/DerivativeWorks"/><cc:requires rdf:resource="http://web.resource.org/cc/ShareAlike"/><cc:requires rdf:resource="http://web.resource.org/cc/SourceCode"/></cc:License></rdf:RDF></metadata>
	<rect id="rect6077" width="48" height="48" style="fill:none"/><g id="Layer_x0020_4" style="stroke-linecap:round;stroke-linejoin:round;stroke-width:2;stroke:#000">
		<g id="g5" style="stroke-linecap:round;stroke-linejoin:round;stroke-width:2">
			<g id="g7" style="stroke-linecap:round;stroke-linejoin:round;stroke-width:2">
				<g id="g9" style="stroke-linecap:round;stroke-linejoin:round;stroke-width:2">
					<path id="path11" d="m18 30.9-2.8 7.2h-9.2l12.1-28.2h11.6l12.3 28.2h-9.6l-3-7.2h-11.4zm10-4.8s-3.8-9.8-4.4-11.4h-0.2c-0.5 1.7-4.2 11.4-4.2 11.4h8.8z" style="stroke:none"/>
				</g>
				
			</g>
			<g id="g17" style="stroke-linecap:round;stroke-linejoin:round;stroke-width:2">
				<path id="path11026" d="m17 31-2 10h-8l13-33h8l13 33h-8l-2-10h-14zm13-3-5-16h-2l-5 16h12z" style="fill:none;stroke-linecap:round;stroke-linejoin:round;stroke-width:10;stroke:#fff"/><path id="path19" d="m17 31-2 10h-8l13-33h8l13 33h-8l-2-10h-14zm13-3-5-16h-2l-5 16h12z" style="stroke-linecap:round;stroke-linejoin:round;stroke-width:2"/>
			</g>
		</g>
	</g>
	
<rect id="rect2170" x="3" y="17" width="42" height="13" ry="3.8848" style="stroke-linecap:round;stroke-linejoin:round;stroke-width:4;stroke:#fff"/></svg>
