<?xml version="1.0" encoding="UTF-8"?>
<!-- Generator: Adobe Illustrator 9.0, SVG Export Plug-In  -->
<svg id="svg2" width="48" height="48" version="1.0" viewBox="0 0 48 48" xml:space="preserve" xmlns="http://www.w3.org/2000/svg" xmlns:cc="http://creativecommons.org/ns#" xmlns:dc="http://purl.org/dc/elements/1.1/" xmlns:rdf="http://www.w3.org/1999/02/22-rdf-syntax-ns#"><metadata id="metadata19"><rdf:RDF><cc:Work rdf:about=""><dc:format>image/svg+xml</dc:format><dc:type rdf:resource="http://purl.org/dc/dcmitype/StillImage"/><cc:license rdf:resource="http://creativecommons.org/licenses/LGPL/2.1/"/></cc:Work><cc:License rdf:about="http://creativecommons.org/licenses/LGPL/2.1/"><cc:permits rdf:resource="http://web.resource.org/cc/Reproduction"/><cc:permits rdf:resource="http://web.resource.org/cc/Distribution"/><cc:requires rdf:resource="http://web.resource.org/cc/Notice"/><cc:permits rdf:resource="http://web.resource.org/cc/DerivativeWorks"/><cc:requires rdf:resource="http://web.resource.org/cc/ShareAlike"/><cc:requires rdf:resource="http://web.resource.org/cc/SourceCode"/></cc:License></rdf:RDF></metadata>
	<rect id="rect1318" width="48" height="48" style="fill:none"/><path id="path3073" d="m45 24a21 21 0 1 1-42 0 21 21 0 1 1 42 0z" style="fill-rule:evenodd;stroke-linecap:round;stroke-linejoin:round;stroke-width:4;stroke:#fff"/><path id="path11" d="m17.8 6.6 13.9 14.1c0.4 0.4 0.3 0.6 0 0.9l-13.9 14c-0.1 0.1-0.8 0.029099-0.8-0.1709v-8.4291l-10.9 0.2c-0.3 0-2.1 0-2.1-0.2v-11c0-0.3 1.8-0.7 2.1-0.7l10.9-0.3v-8.4545s0-0.54549 0.8 0.054505z" style="fill:#fff"/>
	
</svg>
