<?xml version="1.0" encoding="UTF-8"?>
<!-- Generator: Adobe Illustrator 9.0, SVG Export Plug-In  -->
<svg id="svg2" width="48px" height="48px" sodipodi:docbase="/home/luca/Desktop/black-and-white/scalable/actions" sodipodi:docname="go-previous.svg" sodipodi:version="0.32" viewBox="0 0 48 48" xml:space="preserve" xmlns="http://www.w3.org/2000/svg" xmlns:cc="http://web.resource.org/cc/" xmlns:dc="http://purl.org/dc/elements/1.1/" xmlns:rdf="http://www.w3.org/1999/02/22-rdf-syntax-ns#" xmlns:sodipodi="http://inkscape.sourceforge.net/DTD/sodipodi-0.dtd"><metadata id="metadata17"><rdf:RDF><cc:Work rdf:about=""><dc:format>image/svg+xml</dc:format><dc:type rdf:resource="http://purl.org/dc/dcmitype/StillImage"/></cc:Work></rdf:RDF></metadata><sodipodi:namedview id="base" bordercolor="#666666" borderopacity="1.0" pagecolor="#ffffff" showgrid="true"/>
	<rect id="rect3313" width="48" height="48" style="fill:none"/><g id="g5500" transform="matrix(-5.5565e-18 1 1 5.5565e-18 -.11239 .11239)"><path id="path4046" d="m41 26c0.3 0 0.58819-0.53228 0-1l-16-16c-1-1-1-1-2 0l-16 16c-0.59843 0.4252-0.2 1 0 1h10v13s0 1 1 1h12c1 0 1-1 1-1v-13h10z" style="stroke-width:8;stroke:#fff" sodipodi:nodetypes="ccccccccccccc"/><path id="path9" d="m41 26c0.3 0 0.58819-0.53228 0-1l-16-16c-1-1-1-1-2 0l-16 16c-0.59843 0.4252-0.2 1 0 1h10v13s0 1 1 1h12c1 0 1-1 1-1v-13h10z" sodipodi:nodetypes="ccccccccccccc"/></g>
	
</svg>
