<?xml version="1.0" encoding="UTF-8"?>
<!-- Generator: Adobe Illustrator 9.0, SVG Export Plug-In  -->
<svg id="svg2" width="48" height="48" version="1.0" viewBox="0 0 48 48" xml:space="preserve" xmlns="http://www.w3.org/2000/svg" xmlns:cc="http://creativecommons.org/ns#" xmlns:dc="http://purl.org/dc/elements/1.1/" xmlns:rdf="http://www.w3.org/1999/02/22-rdf-syntax-ns#"><metadata id="metadata21"><rdf:RDF><cc:Work rdf:about=""><dc:format>image/svg+xml</dc:format><dc:type rdf:resource="http://purl.org/dc/dcmitype/StillImage"/></cc:Work></rdf:RDF></metadata>
	<g id="Layer_x0020_3" style="fill:#fff;stroke-linejoin:round;stroke-width:7.5901;stroke:#fff">
		<g id="g5">
			<path id="path7" d="m41.1 28c0.3 0 0.3-0.3 0.2-0.5l-16.9-16.7c-0.5-0.5-0.7-0.4-1 0l-16.7 16.7c-0.1 0.1-0.1 0.4 0.1 0.4h10v13.6c0 0.3 0.2 0.5 0.4 0.5h13.3c0.3 0 0.5-0.2 0.5-0.5v-13.6l10.1 0.1z"/>
			<path id="path9" d="m41.2 10.1c0 0.2-0.1 0.3-0.3 0.3h-33.8c-0.2 0-0.3-0.1-0.3-0.3v-3.7c0-0.2 0.1-0.3 0.3-0.3h33.7c0.2 0 0.3 0.1 0.3 0.3v3.8l0.1-0.1z"/>
			<path id="path11" d="m41.1 28c0.3 0 0.3-0.3 0.2-0.5l-16.9-16.7c-0.5-0.5-0.7-0.4-1 0l-16.7 16.7c-0.1 0.1-0.1 0.4 0.1 0.4h10v13.6c0 0.3 0.2 0.5 0.4 0.5h13.3c0.3 0 0.5-0.2 0.5-0.5v-13.6l10.1 0.1z" style="fill:#000;stroke:none"/>
			<path id="path13" d="m41.2 10.1c0 0.2-0.1 0.3-0.3 0.3h-33.8c-0.2 0-0.3-0.1-0.3-0.3v-3.7c0-0.2 0.1-0.3 0.3-0.3h33.7c0.2 0 0.3 0.1 0.3 0.3v3.8l0.1-0.1z" style="fill:#000;stroke:none"/>
		</g>
	</g>
	<g id="crop_x0020_marks" style="stroke:#000">
		<path id="path16" d="m48 48h-48v-48h48v48z" style="fill:none;stroke:none"/>
	</g>
</svg>
