<?xml version="1.0" encoding="UTF-8"?>
<!-- Generator: Adobe Illustrator 9.0, SVG Export Plug-In  -->
<svg id="svg2" width="48" height="48" version="1.0" viewBox="0 0 48 48" xml:space="preserve" xmlns="http://www.w3.org/2000/svg" xmlns:cc="http://creativecommons.org/ns#" xmlns:dc="http://purl.org/dc/elements/1.1/" xmlns:rdf="http://www.w3.org/1999/02/22-rdf-syntax-ns#"><metadata id="metadata35"><rdf:RDF><cc:Work rdf:about=""><dc:format>image/svg+xml</dc:format><dc:type rdf:resource="http://purl.org/dc/dcmitype/StillImage"/></cc:Work></rdf:RDF></metadata>
	<g id="Layer_x0020_4" style="stroke:#000">
		<g id="g5" style="stroke:none">
			<path id="path7" d="m40.7 30.2c0.7-2 1.1-4.1 1.1-6.3s-0.4-4.3-1.1-6.2c1.4-1.4 2.2-3.3 2.2-5.3 0-4.2-3.4-7.6-7.6-7.6-2.1 0-4.1 0.9-5.5 2.3-1.8-0.6-3.8-1-5.9-1s-4.1 0.4-5.9 1c-1.4-1.4-3.3-2.4-5.5-2.4-4.1 0.1-7.5 3.5-7.5 7.7 0 2.1 0.9 4 2.3 5.4-0.7 1.9-1.1 4-1.1 6.2s0.4 4.3 1.1 6.2c-1.4 1.4-2.3 3.3-2.3 5.4 0 4.2 3.4 7.6 7.6 7.6 2.2 0 4.1-0.9 5.5-2.4 1.8 0.6 3.8 1 5.9 1 2 0 4-0.3 5.8-1 1.4 1.5 3.3 2.4 5.5 2.4 4.2 0 7.6-3.4 7.6-7.6 0-2.1-0.9-4-2.2-5.4zm-5.4-22.3c2.4 0 4.4 2 4.4 4.4 0 0.8-0.2 1.6-0.6 2.2-1.5-2.5-3.6-4.5-6.2-6 0.7-0.4 1.5-0.7 2.3-0.7l0.1 0.1zm-27.1 4.5c0-2.4 2-4.4 4.4-4.4 0.9 0 1.7 0.3 2.4 0.7-2.5 1.5-4.6 3.6-6.2 6.1-0.4-0.7-0.6-1.5-0.6-2.3v-0.1zm4.4 27.6c-2.5 0-4.4-2-4.4-4.4 0-0.9 0.2-1.7 0.7-2.3 1.5 2.5 3.7 4.6 6.2 6.1-0.7 0.4-1.5 0.7-2.4 0.7l-0.1-0.1zm11.4-11.2c-2.6 0-4.8-2.1-4.8-4.8 0-2.6 2.1-4.8 4.8-4.8 2.6 0 4.8 2.1 4.8 4.8 0 2.6-2.1 4.8-4.8 4.8zm11.3 11.2c-0.9 0-1.7-0.3-2.4-0.7 2.5-1.5 4.6-3.5 6.2-6 0.4 0.7 0.6 1.4 0.6 2.3 0 2.5-2 4.4-4.4 4.4z" style="fill:none;stroke-linejoin:round;stroke-width:7.0064;stroke:#fff"/>
			<path id="path9" d="m6.3 24c0 9.8 8 17.8 17.8 17.8s17.8-8 17.8-17.8-8-17.8-17.8-17.8-17.8 8-17.8 17.8zm13 0c0-2.6 2.1-4.8 4.8-4.8 2.6 0 4.8 2.1 4.8 4.8s-2.1 4.8-4.8 4.8c-2.6 0-4.8-2.1-4.8-4.8z"/>
			<path id="path11" d="m27.8 35.6c0 4.2 3.4 7.6 7.6 7.6s7.6-3.4 7.6-7.6-3.4-7.6-7.6-7.6-7.6 3.4-7.6 7.6zm3.2 0c0-2.5 2-4.4 4.4-4.4 2.5 0 4.4 2 4.4 4.4s-2 4.4-4.4 4.4-4.4-2-4.4-4.4z"/>
			<path id="path13" d="m5.1 35.6c0 4.2 3.4 7.6 7.6 7.6s7.6-3.4 7.6-7.6-3.4-7.6-7.6-7.6-7.6 3.4-7.6 7.6zm3.1 0c0-2.5 2-4.4 4.4-4.4s4.4 2 4.4 4.4-2 4.4-4.4 4.4-4.4-2-4.4-4.4z"/>
			<path id="path15" d="m5.1 12.4c0 4.2 3.4 7.6 7.6 7.6s7.6-3.4 7.6-7.6-3.4-7.6-7.6-7.6-7.6 3.4-7.6 7.6zm3.1 0c0-2.4 2-4.4 4.4-4.4s4.4 2 4.4 4.4-2 4.4-4.4 4.4-4.4-2-4.4-4.4z"/>
			<path id="path17" d="m27.8 12.4c0 4.2 3.4 7.6 7.6 7.6s7.6-3.4 7.6-7.6-3.4-7.6-7.6-7.6-7.6 3.4-7.6 7.6zm3.2 0c0-2.5 2-4.4 4.4-4.4 2.5 0 4.4 2 4.4 4.4s-2 4.4-4.4 4.4-4.4-2-4.4-4.4z"/>
			<path id="path19" d="m9.2 24c0 8.2 6.7 14.9 14.9 14.9s14.8-6.7 14.8-14.9-6.7-14.9-14.9-14.9-14.8 6.7-14.8 14.9zm7.7 0c0-4 3.2-7.2 7.2-7.2s7.2 3.2 7.2 7.2-3.2 7.2-7.2 7.2-7.2-3.2-7.2-7.2z" style="fill:#fff"/>
			<path id="path21" d="m9.2 31.2 9.5-5.3c1 1.8 1.8 2.6 3.4 3.4l-4.6 9.7c-3.1-1.2-7.1-5.1-8.3-7.8z"/>
			<path id="path23" d="m31.5 39-5.5-9.6c1.9-1 2.7-1.8 3.5-3.5l10.1 4.7c-1.3 3.1-5.3 7.3-8 8.5l-0.1-0.1z"/>
			<path id="path25" d="m38.9 16.8-9.4 5.4c-0.9-1.9-1.8-2.6-3.4-3.4l4.6-9.9c3 1.2 7 5.2 8.2 7.9z"/>
			<path id="path27" d="m16.6 9 5.5 9.4c-1.9 1-2.7 1.8-3.5 3.4l-10-4.5c1.3-3.1 5.3-7.1 8-8.3z"/>
		</g>
	</g>
	<g id="crop_x0020_marks" style="stroke:#000">
		<path id="path30" d="m48 48h-48v-48h48v48z" style="fill:none;stroke:none"/>
	</g>
</svg>
