<?xml version="1.0" encoding="UTF-8"?>
<!-- Created with Inkscape (http://www.inkscape.org/) -->
<svg id="svg3189" width="48" height="48" version="1.0" xmlns="http://www.w3.org/2000/svg" xmlns:cc="http://creativecommons.org/ns#" xmlns:dc="http://purl.org/dc/elements/1.1/" xmlns:rdf="http://www.w3.org/1999/02/22-rdf-syntax-ns#">
 <metadata id="metadata3194">
  <rdf:RDF>
   <cc:Work rdf:about="">
    <dc:format>image/svg+xml</dc:format>
    <dc:type rdf:resource="http://purl.org/dc/dcmitype/StillImage"/>
    <cc:license rdf:resource=""/>
    <dc:title>Insert Text</dc:title>
    <dc:date>2008-12-30</dc:date>
    <dc:creator>
     <cc:Agent>
      <dc:title>Vinicius Depizzol &lt;vdepizzol@gmail.com&gt;</dc:title>
     </cc:Agent>
    </dc:creator>
    <dc:subject>
     <rdf:Bag>
      <rdf:li>text</rdf:li>
      <rdf:li>insert</rdf:li>
     </rdf:Bag>
    </dc:subject>
   </cc:Work>
  </rdf:RDF>
 </metadata>
 <g id="layer1">
  <rect id="rect3793" width="48" height="48" rx="0" ry="0" style="fill-opacity:0"/>
  <rect id="rect6561" x="4" y="4" width="40" height="34" rx="3" ry="3" style="fill-rule:evenodd;stroke-linecap:round;stroke-linejoin:round;stroke-width:8;stroke:#fff"/>
  <path id="path3165" transform="matrix(1 0 0 .76578 2.625 11.69)" d="m13.836 26.522h15.079l-7.5394 13.059-7.5394-13.059z" style="fill:#fff;stroke-linecap:round;stroke-linejoin:round;stroke-width:13.713;stroke:#fff"/>
  <rect id="rect1315" x="4" y="4" width="40" height="34" rx="3.3" ry="3.3" style="fill-rule:evenodd"/>
  <rect id="rect6622" x="8" y="8" width="32" height="26" rx="1.5" ry="1.5" style="fill-rule:evenodd;fill:#fff"/>
  <path id="path3187" transform="matrix(1 0 0 .76578 2.625 11.69)" d="m13.836 26.522h15.079l-7.5394 13.059-7.5394-13.059z" style="fill:#fff;stroke-linecap:round;stroke-linejoin:round;stroke-width:10.285;stroke:#fff"/>
  <path id="path3159" transform="matrix(1 0 0 .76578 2.625 11.69)" d="m13.836 26.522h15.079l-7.5394 13.059-7.5394-13.059z" style="fill:#fff;stroke-linecap:round;stroke-linejoin:round;stroke-width:4.571;stroke:#000"/>
  <path id="path19" d="m18.775 26.5h-5.2418l6.9891-15h6.9891l6.9891 15h-5.2418l-1.7473-3.875-6.9891-0.05357-1.7473 3.9286zm8.3816-6.0536s-2.208-5.4107-2.5574-6.2679h-1.1648c-0.29121 0.91072-2.4145 6.2679-2.4145 6.2679h6.1367z" style="stroke-linejoin:round;stroke:#000"/>
 </g>
</svg>
