<?xml version="1.0" encoding="UTF-8"?>
<!-- Generator: Adobe Illustrator 9.0, SVG Export Plug-In  -->
<svg id="svg2" width="48" height="48" version="1.0" viewBox="0 0 48 48" xml:space="preserve" xmlns="http://www.w3.org/2000/svg" xmlns:cc="http://creativecommons.org/ns#" xmlns:dc="http://purl.org/dc/elements/1.1/" xmlns:rdf="http://www.w3.org/1999/02/22-rdf-syntax-ns#"><metadata id="metadata17"><rdf:RDF><cc:Work rdf:about=""><dc:format>image/svg+xml</dc:format><dc:type rdf:resource="http://purl.org/dc/dcmitype/StillImage"/></cc:Work></rdf:RDF></metadata>
	<g id="Layer_x0020_3" style="stroke:#000">
		<g id="g5">
			<path id="path7" d="m39.6 17.9c-1.3 0-2.5 1.2-3.2 2.9-1 0.5-2.5 0.1-2.9-1v-7.2h-0.2-18.6-0.2v7.3c-0.4 1.2-1.8 1.6-2.8 1.1-0.6-1.9-1.9-3.1-3.3-3.1-2.1 0-3.8 2.8-3.8 6.2s1.7 6.2 3.8 6.2c1.3 0 2.5-1.2 3.2-2.9 1-0.5 2.5-0.1 2.9 1v7.2h0.2 18.7 0.2v-7.3c0.4-1.2 1.8-1.6 2.8-1.1 0.6 1.9 1.9 3.1 3.3 3.1 2.1 0 3.8-2.8 3.8-6.2s-1.7-6.2-3.8-6.2h-0.1z" style="stroke-linejoin:round;stroke-width:6.8141;stroke:#fff"/>
			<path id="path9" d="m39.6 17.9c-1.3 0-2.5 1.2-3.2 2.9-1 0.5-2.5 0.1-2.9-1v-7.2h-0.2-18.6-0.2v7.3c-0.4 1.2-1.8 1.6-2.8 1.1-0.6-1.9-1.9-3.1-3.3-3.1-2.1 0-3.8 2.8-3.8 6.2s1.7 6.2 3.8 6.2c1.3 0 2.5-1.2 3.2-2.9 1-0.5 2.5-0.1 2.9 1v7.2h0.2 18.7 0.2v-7.3c0.4-1.2 1.8-1.6 2.8-1.1 0.6 1.9 1.9 3.1 3.3 3.1 2.1 0 3.8-2.8 3.8-6.2s-1.7-6.2-3.8-6.2h-0.1z" style="stroke:none"/>
		</g>
	</g>
	<g id="crop_x0020_marks" style="stroke:#000">
		<path id="path12" d="m48 48h-48v-48h48v48z" style="fill:none;stroke:none"/>
	</g>
</svg>
