<?xml version="1.0" encoding="UTF-8"?>
<!-- Created with Inkscape (http://www.inkscape.org/) -->
<svg id="svg10115" width="48" height="48" version="1.0" xmlns="http://www.w3.org/2000/svg" xmlns:cc="http://creativecommons.org/ns#" xmlns:dc="http://purl.org/dc/elements/1.1/" xmlns:rdf="http://www.w3.org/1999/02/22-rdf-syntax-ns#">
 <metadata id="metadata10120">
  <rdf:RDF>
   <cc:Work rdf:about="">
    <dc:format>image/svg+xml</dc:format>
    <dc:type rdf:resource="http://purl.org/dc/dcmitype/StillImage"/>
    <dc:title>Important</dc:title>
    <dc:subject>
     <rdf:Bag>
      <rdf:li>emblem important</rdf:li>
     </rdf:Bag>
    </dc:subject>
    <dc:creator>
     <cc:Agent>
      <dc:title>Luca Ferretti</dc:title>
     </cc:Agent>
    </dc:creator>
    <cc:license rdf:resource="http://creativecommons.org/licenses/LGPL/2.1/"/>
   </cc:Work>
   <cc:License rdf:about="http://creativecommons.org/licenses/LGPL/2.1/">
    <cc:permits rdf:resource="http://web.resource.org/cc/Reproduction"/>
    <cc:permits rdf:resource="http://web.resource.org/cc/Distribution"/>
    <cc:requires rdf:resource="http://web.resource.org/cc/Notice"/>
    <cc:permits rdf:resource="http://web.resource.org/cc/DerivativeWorks"/>
    <cc:requires rdf:resource="http://web.resource.org/cc/ShareAlike"/>
    <cc:requires rdf:resource="http://web.resource.org/cc/SourceCode"/>
   </cc:License>
  </rdf:RDF>
 </metadata>
 <g id="layer1">
  <path id="path10123" d="m46 24a22 21.992 0 1 1-44 0 22 21.992 0 1 1 44 0z" style="fill-rule:evenodd;stroke-width:4;stroke:#fff"/>
  <path id="path10998" d="m40 24a16 16 0 1 1-32 0 16 16 0 1 1 32 0z" style="fill-rule:evenodd;fill:#fff"/>
  <path id="path11873" transform="translate(0,-2)" d="m27 36a3 3 0 1 1-6 0 3 3 0 1 1 6 0z" style="fill-rule:evenodd"/>
  <path id="path12748" transform="translate(-.46875)" d="m28.469 15c0 4-2 15-4 15s-4-11-4-15c0-4.968 3-5 4-5s4 0.032 4 5z" style="fill-rule:evenodd"/>
 </g>
</svg>
