<?xml version="1.0" encoding="UTF-8"?>
<!-- Generator: Adobe Illustrator 9.0, SVG Export Plug-In  -->
<svg id="svg2" width="48" height="48" version="1.0" viewBox="0 0 48 48" xml:space="preserve" xmlns="http://www.w3.org/2000/svg" xmlns:cc="http://creativecommons.org/ns#" xmlns:dc="http://purl.org/dc/elements/1.1/" xmlns:rdf="http://www.w3.org/1999/02/22-rdf-syntax-ns#"><metadata id="metadata29"><rdf:RDF><cc:Work rdf:about=""><dc:format>image/svg+xml</dc:format><dc:type rdf:resource="http://purl.org/dc/dcmitype/StillImage"/></cc:Work></rdf:RDF></metadata>
	<g id="Layer_x0020_3" style="stroke-linejoin:round;stroke-width:6.6871;stroke:#fff">
		<g id="g5">
			<path id="path7" d="m21.8 30.2-6.5-6.5-5.9 5.9 12.4 12.4 21.5-21.5-5.9-5.9-15.7 15.7 0.1-0.1z" style="fill-rule:evenodd"/>
			<path id="path9" d="m21.8 30.2-6.5-6.5-5.9 5.9 12.4 12.4 21.5-21.5-5.9-5.9-15.7 15.7 0.1-0.1z" style="fill-rule:evenodd;stroke:none"/>
			<g id="g11">
				<path id="path13" d="m9.2 17.2-1 3.8h-3.6l4.6-14.8h4.4l4.6 14.9h-3.6l-1.1-3.8h-4.3v-0.1zm3.7-2.5-0.9-3.1c-0.2-0.9-0.5-2-0.7-2.9h-0.1c-0.2 0.9-0.4 2-0.7 2.9l-0.9 3.2h3.3v-0.1z"/>
				<path id="path15" d="m20.2 6.4c0.9-0.2 2.6-0.3 4.3-0.3 2 0 3.3 0.2 4.4 0.8 1 0.5 1.8 1.6 1.8 2.9s-0.8 2.5-2.4 3.2c1.7 0.4 3 1.7 3 3.7 0 1.4-0.6 2.4-1.5 3.2-1.1 0.9-2.9 1.3-5.8 1.3-1.7 0-2.9-0.1-3.6-0.2v-14.6h-0.2zm3.3 5.7h1.1c1.8 0 2.7-0.7 2.7-1.8s-0.9-1.7-2.4-1.7c-0.7 0-1.2 0-1.4 0.1v3.4zm0 6.6c0.3 0.1 0.7 0.1 1.3 0.1 1.5 0 2.9-0.6 2.9-2.2 0-1.5-1.3-2.1-3-2.1h-1.1v4.2h-0.1z"/>
			</g>
			<g id="g17" style="stroke:none">
				<path id="path19" d="m9.2 17.2-1 3.8h-3.6l4.6-14.8h4.4l4.6 14.9h-3.6l-1.1-3.8h-4.3v-0.1zm3.7-2.5-0.9-3.1c-0.2-0.9-0.5-2-0.7-2.9h-0.1c-0.2 0.9-0.4 2-0.7 2.9l-0.9 3.2h3.3v-0.1z"/>
				<path id="path21" d="m20.2 6.4c0.9-0.2 2.6-0.3 4.3-0.3 2 0 3.3 0.2 4.4 0.8 1 0.5 1.8 1.6 1.8 2.9s-0.8 2.5-2.4 3.2c1.7 0.4 3 1.7 3 3.7 0 1.4-0.6 2.4-1.5 3.2-1.1 0.9-2.9 1.3-5.8 1.3-1.7 0-2.9-0.1-3.6-0.2v-14.6h-0.2zm3.3 5.7h1.1c1.8 0 2.7-0.7 2.7-1.8s-0.9-1.7-2.4-1.7c-0.7 0-1.2 0-1.4 0.1v3.4zm0 6.6c0.3 0.1 0.7 0.1 1.3 0.1 1.5 0 2.9-0.6 2.9-2.2 0-1.5-1.3-2.1-3-2.1h-1.1v4.2h-0.1z"/>
			</g>
		</g>
	</g>
	<g id="crop_x0020_marks" style="stroke:#000">
		<path id="path24" d="m48 48h-48v-48h48v48z" style="fill:none;stroke:none"/>
	</g>
</svg>
