<?xml version="1.0" encoding="UTF-8"?>
<!-- Generator: Adobe Illustrator 9.0, SVG Export Plug-In  -->
<svg id="svg2" width="48" height="48" version="1.0" viewBox="0 0 48 48" xml:space="preserve" xmlns="http://www.w3.org/2000/svg" xmlns:cc="http://creativecommons.org/ns#" xmlns:dc="http://purl.org/dc/elements/1.1/" xmlns:rdf="http://www.w3.org/1999/02/22-rdf-syntax-ns#"><metadata id="metadata45"><rdf:RDF><cc:Work rdf:about=""><dc:format>image/svg+xml</dc:format><dc:type rdf:resource="http://purl.org/dc/dcmitype/StillImage"/></cc:Work></rdf:RDF></metadata>
	<g id="Layer_x0020_4" style="stroke:#000">
		<g id="g5" style="stroke:none">
			<g id="g7">
				<g id="g9">
					<path id="path11" d="m36.7 9.2-1.8 0.9-0.4-1.7 2.6-1.2h1.9v9.6h-2.2v-7.6h-0.1z"/>
					<path id="path13" d="m34.6 38.9h1c0.7 0 1.4-0.2 1.9-0.6 0.6-0.4 1.1-1.1 1.2-1.8-0.4 0.4-1.1 0.7-2 0.7-1.6 0-3-1.1-3-3s1.5-3.5 3.6-3.5c2.5 0 3.6 1.9 3.6 4.1 0 2-0.6 3.5-1.7 4.4-0.9 0.8-2.2 1.3-3.7 1.3h-1v-1.8l0.1 0.2zm2.6-6.6c-0.8 0-1.3 0.7-1.3 1.7 0 0.8 0.5 1.5 1.4 1.5 0.6 0 1-0.3 1.3-0.6 0.1-0.1 0.1-0.3 0.1-0.6 0-1-0.4-2-1.4-2h-0.1z"/>
				</g>
				<g id="g15" style="fill:none;stroke-width:6;stroke:#fff">
					<path id="path17" d="m36.7 9.2-1.8 0.9-0.4-1.7 2.6-1.2h1.9v9.6h-2.2v-7.6h-0.1z"/>
					<path id="path19" d="m34.6 38.9h1c0.7 0 1.4-0.2 1.9-0.6 0.6-0.4 1.1-1.1 1.2-1.8-0.4 0.4-1.1 0.7-2 0.7-1.6 0-3-1.1-3-3s1.5-3.5 3.6-3.5c2.5 0 3.6 1.9 3.6 4.1 0 2-0.6 3.5-1.7 4.4-0.9 0.8-2.2 1.3-3.7 1.3h-1v-1.8l0.1 0.2zm2.6-6.6c-0.8 0-1.3 0.7-1.3 1.7 0 0.8 0.5 1.5 1.4 1.5 0.6 0 1-0.3 1.3-0.6 0.1-0.1 0.1-0.3 0.1-0.6 0-1-0.4-2-1.4-2h-0.1z"/>
				</g>
			</g>
			<path id="path21" d="m39.2 26.7c0 1-0.8 1.7-1.7 1.7-1 0-1.7-0.8-1.7-1.7 0-1 0.8-1.7 1.7-1.7 1 0 1.7 0.8 1.7 1.7z" style="stroke-linejoin:round;stroke-width:6;stroke:#fff"/>
			<path id="path23" d="m39.2 21.5c0 1-0.8 1.7-1.7 1.7-1 0-1.7-0.8-1.7-1.7 0-1 0.8-1.7 1.7-1.7 1 0 1.7 0.8 1.7 1.7z" style="stroke-linejoin:round;stroke-width:6;stroke:#fff"/>
			<path id="path25" d="m25.6 27.3-4.2 4.2v-23.3h-5.9v23.4l-4.2-4.2-4.3 4.1 9.3 9.3c1.2 1.2 3 1.2 4.2 0l9.3-9.3-4.2-4.2z" style="stroke-linejoin:round;stroke-width:6;stroke:#fff"/>
			<g id="g27">
				<path id="path29" d="m36.6 9.4-1.8 0.9-0.4-1.7 2.5-1.2h1.8v9.5h-2.1v-7.5z"/>
				<path id="path31" d="m34.4 38.6h1c0.7 0 1.4-0.2 1.9-0.6 0.6-0.4 1-1 1.2-1.7-0.4 0.4-1 0.7-1.9 0.7-1.6 0-2.9-1.1-2.9-3 0-1.8 1.5-3.4 3.6-3.4 2.4 0 3.6 1.9 3.6 4.1 0 2-0.6 3.4-1.6 4.3-0.9 0.8-2.2 1.3-3.6 1.3h-1v-1.7h-0.3zm2.6-6.4c-0.7 0-1.3 0.7-1.3 1.7 0 0.8 0.5 1.5 1.3 1.5 0.6 0 1-0.3 1.3-0.6 0.1-0.1 0.1-0.3 0.1-0.6 0-1-0.4-2-1.4-2z"/>
			</g>
			<path id="path33" d="m39.3 26.7c0 1-0.8 1.7-1.7 1.7-1 0-1.7-0.8-1.7-1.7 0-1 0.8-1.7 1.7-1.7 1 0 1.7 0.8 1.7 1.7z"/>
			<path id="path35" d="m39.3 21.4c0 1-0.8 1.7-1.7 1.7-1 0-1.7-0.8-1.7-1.7 0-1 0.8-1.7 1.7-1.7 1 0 1.7 0.8 1.7 1.7z"/>
			<path id="path37" d="m25.7 27.3-4.2 4.2v-23.3h-5.9v23.4l-4.2-4.2-4.2 4.2 9.3 9.3c1.2 1.2 3 1.2 4.2 0l9.3-9.3-4.3-4.3z"/>
		</g>
	</g>
	<g id="crop_x0020_marks" style="stroke:#000">
		<path id="path40" d="m48 48h-48v-48h48v48z" style="fill:none;stroke:none"/>
	</g>
</svg>
