<?xml version="1.0" encoding="UTF-8"?>
<!-- Generator: Adobe Illustrator 9.0, SVG Export Plug-In  -->
<svg id="svg2" width="48" height="48" version="1.0" viewBox="0 0 48 48" xml:space="preserve" xmlns="http://www.w3.org/2000/svg" xmlns:cc="http://web.resource.org/cc/" xmlns:dc="http://purl.org/dc/elements/1.1/" xmlns:rdf="http://www.w3.org/1999/02/22-rdf-syntax-ns#"><metadata id="metadata19"><rdf:RDF><cc:Work rdf:about=""><dc:format>image/svg+xml</dc:format><dc:type rdf:resource="http://purl.org/dc/dcmitype/StillImage"/><dc:title>Documents (emblem)</dc:title><dc:creator><cc:Agent><dc:title>Luca Ferretti</dc:title></cc:Agent></dc:creator><dc:subject><rdf:Bag><rdf:li>emblem documents</rdf:li></rdf:Bag></dc:subject><cc:license rdf:resource="http://creativecommons.org/licenses/LGPL/2.1/"/></cc:Work><cc:License rdf:about="http://creativecommons.org/licenses/LGPL/2.1/"><cc:permits rdf:resource="http://web.resource.org/cc/Reproduction"/><cc:permits rdf:resource="http://web.resource.org/cc/Distribution"/><cc:requires rdf:resource="http://web.resource.org/cc/Notice"/><cc:permits rdf:resource="http://web.resource.org/cc/DerivativeWorks"/><cc:requires rdf:resource="http://web.resource.org/cc/ShareAlike"/><cc:requires rdf:resource="http://web.resource.org/cc/SourceCode"/></cc:License></rdf:RDF></metadata>
	
	<path id="path7662" d="m6 33.008h23v-27l-15.936 0.05533-7.0337 5.9101-0.030643 21.035z" style="fill:#fff;stroke-linejoin:round;stroke-width:12;stroke:#fff"/><g id="crop_x0020_marks" style="stroke:#000">
		<path id="path14" d="m48 48h-48v-48h48v48z" style="fill:none;stroke:none"/>
	</g>
<path id="path6771" d="m42 42h-23v-27l14.018 0.041044 8.9816 5.959v21z" style="fill:#fff;stroke-linejoin:round;stroke-width:12;stroke:#fff"/><path id="path7" d="m42 42h-23v-27h16l7 6.0909v20.909z" style="stroke-linejoin:round;stroke-width:4;stroke:#000"/><path id="path9" d="m39.976 21.985 0.024177 18.015-19-0.007777 1.4e-5 -22.992h12.983l5.9924 4.9849z" style="fill:#fff"/><path id="path7658" d="m6 33h23v-27l-16.021 0.018304-6.9786 5.9817v21z" style="stroke-linejoin:round;stroke-width:4;stroke:#000"/><path id="path7660" d="m7.9462 13.096 0.053804 17.904 19-0.007777-1.4e-5 -22.992h-13l-6.0538 5.0961z" style="fill:#fff"/></svg>
