<?xml version="1.0" encoding="UTF-8"?>
<!-- Created with Inkscape (http://www.inkscape.org/) -->
<svg id="svg2" width="48px" height="48px" xmlns="http://www.w3.org/2000/svg" xmlns:cc="http://web.resource.org/cc/" xmlns:dc="http://purl.org/dc/elements/1.1/" xmlns:rdf="http://www.w3.org/1999/02/22-rdf-syntax-ns#">
 <metadata id="metadata7">
  <rdf:RDF>
   <cc:Work rdf:about="">
    <dc:format>image/svg+xml</dc:format>
    <dc:type rdf:resource="http://purl.org/dc/dcmitype/StillImage"/>
    <cc:license rdf:resource="http://creativecommons.org/licenses/GPL/2.0/"/>
    <dc:title>Photos (emblem)</dc:title>
    <dc:description>A photo camera.</dc:description>
    <dc:contributor>
     <cc:Agent>
      <dc:title/>
     </cc:Agent>
    </dc:contributor>
    <dc:creator>
     <cc:Agent>
      <dc:title>Luca Ferretti &lt;elle.uca@libero.it&gt;</dc:title>
     </cc:Agent>
    </dc:creator>
    <dc:subject>
     <rdf:Bag>
      <rdf:li>photos</rdf:li>
      <rdf:li>emblem</rdf:li>
     </rdf:Bag>
    </dc:subject>
   </cc:Work>
   <cc:License rdf:about="http://creativecommons.org/licenses/GPL/2.0/">
    <cc:permits rdf:resource="http://web.resource.org/cc/Reproduction"/>
    <cc:permits rdf:resource="http://web.resource.org/cc/Distribution"/>
    <cc:requires rdf:resource="http://web.resource.org/cc/Notice"/>
    <cc:permits rdf:resource="http://web.resource.org/cc/DerivativeWorks"/>
    <cc:requires rdf:resource="http://web.resource.org/cc/ShareAlike"/>
    <cc:requires rdf:resource="http://web.resource.org/cc/SourceCode"/>
   </cc:License>
  </rdf:RDF>
 </metadata>
 <rect id="rect9880" width="48" height="48" ry="0" style="fill:none"/>
 <path id="path9152" d="m8 12 7.0052 0.057592 2-5h14l2 5 6.9948-0.057592c2 0 4 2 4 4l0.10995 22.058c0 1.079-0.86865 1.9476-1.9476 1.9476h-36.105c-1.079 0-1.9476-0.86865-1.9476-1.9476l-0.10995-22.058c0-2 2-4 4-4z" style="fill-rule:evenodd;fill:#fff;stroke-width:8;stroke:#fff"/>
 <path id="rect8423" d="m8 12 7.0052 0.057592 2-5h14l2 5 6.9948-0.057592c2 0 4 2 4 4l0.10995 22.058c0 1.079-0.86865 1.9476-1.9476 1.9476h-36.105c-1.079 0-1.9476-0.86865-1.9476-1.9476l-0.10995-22.058c0-2 2-4 4-4z" style="fill-rule:evenodd"/>
 <path id="path12070" d="m24.058 16.005c-5.4781 0-9.9432 4.5041-9.9432 10s4.4651 10 9.9432 10 9.9432-4.5041 9.9432-10-4.4651-10-9.9432-10zm0 4.9091c2.7974 0 5.0455 2.2572 5.0455 5.0909-1e-6 2.8337-2.248 5.0909-5.0455 5.0909-2.7974 1e-6 -5.0455-2.2572-5.0455-5.0909s2.248-5.0909 5.0455-5.0909z" style="fill-rule:evenodd;fill:#fff"/>
</svg>
