<?xml version="1.0" encoding="UTF-8"?>
<!-- Created with Inkscape (http://www.inkscape.org/) -->
<svg id="svg3465" width="48px" height="48px" sodipodi:docbase="/home/luca/Desktop/black-and-white/scalable/emblems" sodipodi:docname="emblem-readonly.svg" sodipodi:version="0.32" xmlns="http://www.w3.org/2000/svg" xmlns:cc="http://web.resource.org/cc/" xmlns:dc="http://purl.org/dc/elements/1.1/" xmlns:rdf="http://www.w3.org/1999/02/22-rdf-syntax-ns#" xmlns:sodipodi="http://inkscape.sourceforge.net/DTD/sodipodi-0.dtd">
 <sodipodi:namedview id="base" bordercolor="#666666" borderopacity="1.0" pagecolor="#ffffff" showgrid="true"/>
 <metadata id="metadata3470">
  <rdf:RDF>
   <cc:Work rdf:about="">
    <dc:format>image/svg+xml</dc:format>
    <dc:type rdf:resource="http://purl.org/dc/dcmitype/StillImage"/>
   </cc:Work>
  </rdf:RDF>
 </metadata>
 <g id="layer1">
  <rect id="rect4928" width="48" height="48" style="fill:none"/>
  <path id="path4200" d="m24 4c-7 0-12 4.1739-12 11v6h-2c-2 0-3 1-3 3v17c0 0.98033 1 3 3 3h29.384c1.616-0.009454 2.616-2.0197 2.616-3v-17c0-2-1-3.0095-3-3.0095l-2 0.009454v-6c0-7-5-11-12-11h-1zm0 5h1c7 0 7 6 7 8v4h-15v-4c0-2 0-8 7-8z" style="color:#000000;display:block;fill:#fff;stroke-miterlimit:10;stroke-width:8;stroke:#fff" sodipodi:nodetypes="cccccccccccccsccsccccc"/>
  <path id="path2086" d="m24 4c-7 0-12 4.1739-12 11v6h-2c-2 0-3 1-3 3v17c0 0.98033 1 3 3 3h29.384c1.616-0.009454 2.616-2.0197 2.616-3v-17c0-2-1-3.0095-3-3.0095l-2 0.009454v-6c0-7-5-11-12-11h-1zm0 5h1c7 0 7 6 7 8v4h-15v-4c0-2 0-8 7-8z" style="color:#000000;display:block" sodipodi:nodetypes="cccccccccccccsccsccccc"/>
 </g>
</svg>
